<svg id="f3b247fe-13d4-4a6f-b280-9b5053b31de5" data-name="vonal_bontva" xmlns="http://www.w3.org/2000/svg" width="669.64" height="1344.6" viewBox="0 0 669.64 1344.6"><title>bosznia_monenegro_vonal</title><path d="M668.31,774.32v511.33c0,22-16.83,40-37.39,40s-37.39,18-37.39,40V2028" transform="translate(-573.2 -683.45)" fill="none" stroke="#f0f" stroke-miterlimit="10" stroke-width="6"/><line x1="3" y1="1344.6" x2="3" fill="none" stroke="#f0f" stroke-miterlimit="10" stroke-width="6"/><path d="M668.31,774.32v787.82a40.12,40.12,0,0,0,40,40h491.53a40.12,40.12,0,0,1,40,40V2028" transform="translate(-573.2 -683.45)" fill="none" stroke="#754c24" stroke-miterlimit="10" stroke-width="6"/><path d="M576.2,683.45v934a40.12,40.12,0,0,0,40,40h566.31a40.12,40.12,0,0,1,40,40V2028" transform="translate(-573.2 -683.45)" fill="none" stroke="#754c24" stroke-miterlimit="10" stroke-width="6"/></svg>