<?xml version="1.0" encoding="UTF-8" standalone="no"?>
<!-- Created with Inkscape (http://www.inkscape.org/) -->

<svg
   xmlns:dc="http://purl.org/dc/elements/1.1/"
   xmlns:cc="http://creativecommons.org/ns#"
   xmlns:rdf="http://www.w3.org/1999/02/22-rdf-syntax-ns#"
   xmlns:svg="http://www.w3.org/2000/svg"
   xmlns="http://www.w3.org/2000/svg"
   xmlns:sodipodi="http://sodipodi.sourceforge.net/DTD/sodipodi-0.dtd"
   xmlns:inkscape="http://www.inkscape.org/namespaces/inkscape"
   width="5.839355mm"
   height="5.6785855mm"
   viewBox="0 0 5.839355 5.6785855"
   version="1.1"
   id="svg1207"
   inkscape:version="0.92.3 (2405546, 2018-03-11)"
   sodipodi:docname="cite_begin.svg">
  <defs
     id="defs1201" />
  <sodipodi:namedview
     id="base"
     pagecolor="#ffffff"
     bordercolor="#666666"
     borderopacity="1.0"
     inkscape:pageopacity="0.0"
     inkscape:pageshadow="2"
     inkscape:zoom="1.4"
     inkscape:cx="-3.5162791"
     inkscape:cy="-76.424331"
     inkscape:document-units="mm"
     inkscape:current-layer="layer1"
     showgrid="false"
     inkscape:window-width="1853"
     inkscape:window-height="1025"
     inkscape:window-x="67"
     inkscape:window-y="27"
     inkscape:window-maximized="1" />
  <metadata
     id="metadata1204">
    <rdf:RDF>
      <cc:Work
         rdf:about="">
        <dc:format>image/svg+xml</dc:format>
        <dc:type
           rdf:resource="http://purl.org/dc/dcmitype/StillImage" />
        <dc:title></dc:title>
      </cc:Work>
    </rdf:RDF>
  </metadata>
  <g
     inkscape:label="Layer 1"
     inkscape:groupmode="layer"
     id="layer1"
     transform="translate(-56.800561,-121.80357)">
    <path
       inkscape:connector-curvature="0"
       class="cls-4"
       d="m 56.800561,125.3728 c 0,-1.80446 1.143,-3.18823 1.852083,-3.56923 v 0 l 0.447146,0.40746 v 0.17727 a 2.9104167,2.9104167 0 0 0 -0.878417,2.159 c 0,1.15623 0.8255,1.23295 0.8255,2.07168 a 0.8334375,0.8334375 0 0 1 -0.862542,0.86255 c -0.775229,0 -1.38377,-1.00278 -1.38377,-2.10873 z m 3.54277,0 c 0,-1.80446 1.129771,-3.18823 1.852084,-3.56923 h 0.01323 l 0.431271,0.40746 v 0.17727 a 2.9104167,2.9104167 0 0 0 -0.875771,2.159 c 0,1.15623 0.8255,1.23295 0.8255,2.07168 a 0.8334375,0.8334375 0 0 1 -0.865188,0.86255 c -0.783166,0 -1.381125,-1.00278 -1.381126,-2.10873 z"
       id="path252"
       style="fill:#b40e80;fill-opacity:1;stroke-width:0.26458332" />
  </g>
</svg>
