<svg
      xmlns:dc="http://purl.org/dc/elements/1.1/"
      xmlns:cc="http://creativecommons.org/ns#"
      xmlns:rdf="http://www.w3.org/1999/02/22-rdf-syntax-ns#"
      xmlns:svg="http://www.w3.org/2000/svg"
      xmlns="http://www.w3.org/2000/svg"
      xmlns:xlink="http://www.w3.org/1999/xlink"
      xmlns:sodipodi="http://sodipodi.sourceforge.net/DTD/sodipodi-0.dtd"
      xmlns:inkscape="http://www.inkscape.org/namespaces/inkscape"
      width="1678.1899"
      height="2496.1101"
      viewBox="0 0 1678.19 2496.11"
      version="1.1"
      id="svg3581"
      sodipodi:docname="map2.svg"
      inkscape:version="0.92.3 (2405546, 2018-03-11)">
      <style>
        @import url('https://fonts.googleapis.com/css?family=Roboto&display=swap');
        @import url('fonts/MYRIADPRO-REGULAR.woff');
        @font-face {
          font-family: Myriad;
          src: url(fonts/MYRIADPRO-REGULAR.woff);
        }
      </style>
      <metadata
        id="metadata3585">
        <rdf:RDF>
          <cc:Work
            rdf:about="">
            <dc:format>image/svg+xml</dc:format>
            <dc:type
              rdf:resource="http://purl.org/dc/dcmitype/StillImage" />
            <dc:title>OSCE_layout_D</dc:title>
          </cc:Work>
        </rdf:RDF>
      </metadata>
      <sodipodi:namedview
        pagecolor="#ffffff"
        bordercolor="#666666"
        borderopacity="1"
        objecttolerance="10"
        gridtolerance="10"
        guidetolerance="10"
        inkscape:pageopacity="0"
        inkscape:pageshadow="2"
        inkscape:window-width="1853"
        inkscape:window-height="1025"
        id="namedview3583"
        showgrid="false"
        fit-margin-top="0"
        fit-margin-left="0"
        fit-margin-right="0"
        fit-margin-bottom="0"
        inkscape:zoom="0.2931933"
        inkscape:cx="1030.0943"
        inkscape:cy="1353.6043"
        inkscape:window-x="67"
        inkscape:window-y="27"
        inkscape:window-maximized="1"
        inkscape:current-layer="edce9a80-aa17-4c46-89f4-b92668b3371d" />
      <defs
        id="defs72">
        <clipPath
          id="f23a33c9-7a0b-4144-a664-4f275dfd587a">
          <rect
            y="294.03"
            width="1375.92"
            height="911.34003"
            id="rect2"
            x="0"
            style="fill:none" />
        </clipPath>
        <clipPath
          id="a187e4bf-6318-4e4c-ad66-eb6dcc78c0df">
          <rect
            width="1580.24"
            height="313.85999"
            id="rect5"
            x="0"
            y="0"
            style="fill:none" />
        </clipPath>
        <linearGradient
          id="a6ad2c66-f046-490f-9f42-e605f6057df5"
          x1="1057.04"
          y1="1287.62"
          x2="1057.04"
          y2="391.82001"
          gradientUnits="userSpaceOnUse">
          <stop
            offset="0"
            stop-color="#fbaf17"
            id="stop8" />
          <stop
            offset="0.11"
            stop-color="#fbaf17"
            stop-opacity="0.98"
            id="stop10" />
          <stop
            offset="0.25"
            stop-color="#fbaf17"
            stop-opacity="0.92"
            id="stop12" />
          <stop
            offset="0.39"
            stop-color="#fbaf17"
            stop-opacity="0.83"
            id="stop14" />
          <stop
            offset="0.54"
            stop-color="#fbaf17"
            stop-opacity="0.7"
            id="stop16" />
          <stop
            offset="0.69"
            stop-color="#fbaf17"
            stop-opacity="0.53"
            id="stop18" />
          <stop
            offset="0.85"
            stop-color="#fbaf17"
            stop-opacity="0.32"
            id="stop20" />
          <stop
            offset="1"
            stop-color="#fbaf17"
            stop-opacity="0.1"
            id="stop22" />
        </linearGradient>
        <linearGradient
          id="b297943c-621e-4104-9372-e848c1de02ba"
          x1="683.51001"
          y1="1287.62"
          x2="683.51001"
          y2="640.70001"
          gradientUnits="userSpaceOnUse">
          <stop
            offset="0.07"
            stop-color="#fbaf17"
            id="stop25" />
          <stop
            offset="0.17"
            stop-color="#fbaf17"
            stop-opacity="0.98"
            id="stop27" />
          <stop
            offset="0.29"
            stop-color="#fbaf17"
            stop-opacity="0.91"
            id="stop29" />
          <stop
            offset="0.43"
            stop-color="#fbaf17"
            stop-opacity="0.8"
            id="stop31" />
          <stop
            offset="0.58"
            stop-color="#fbaf17"
            stop-opacity="0.65"
            id="stop33" />
          <stop
            offset="0.75"
            stop-color="#fbaf17"
            stop-opacity="0.46"
            id="stop35" />
          <stop
            offset="0.91"
            stop-color="#fbaf17"
            stop-opacity="0.23"
            id="stop37" />
          <stop
            offset="1"
            stop-color="#fbaf17"
            stop-opacity="0.1"
            id="stop39" />
        </linearGradient>
        <linearGradient
          id="e8cf26fe-0628-40b1-a012-07a23ca83b39"
          x1="864.28998"
          y1="1287.62"
          x2="864.28998"
          y2="462.17999"
          xlink:href="#b297943c-621e-4104-9372-e848c1de02ba" />
        <linearGradient
          id="aa76b8bd-e144-4e30-a228-2a7ff4e96005"
          x1="656.97998"
          y1="1287.62"
          x2="656.97998"
          y2="754.32001"
          xlink:href="#b297943c-621e-4104-9372-e848c1de02ba" />
        <linearGradient
          id="a7be003c-07b3-4be9-8a81-d630b2982ce6"
          x1="642.97998"
          y1="1287.62"
          x2="642.97998"
          y2="830.60999"
          xlink:href="#b297943c-621e-4104-9372-e848c1de02ba" />
        <linearGradient
          id="e96ef8b9-dce7-4462-bc3e-15d248f933ca"
          x1="567.51001"
          y1="1287.62"
          x2="567.51001"
          y2="872.15002"
          xlink:href="#b297943c-621e-4104-9372-e848c1de02ba" />
        <linearGradient
          id="a6f83caa-50e9-4243-8942-a1b2f0fe269b"
          x1="498.42999"
          y1="1287.62"
          x2="498.42999"
          y2="774.32001"
          xlink:href="#b297943c-621e-4104-9372-e848c1de02ba" />
        <linearGradient
          id="b9259d5e-2969-42b2-98c3-6625c45d6e4b"
          x1="406.32001"
          y1="1287.62"
          x2="406.32001"
          y2="683.45001"
          xlink:href="#b297943c-621e-4104-9372-e848c1de02ba" />
        <linearGradient
          id="e2e5286e-11a5-417b-bc96-c2659e60c5f6"
          x1="1057.04"
          y1="1287.62"
          x2="1057.04"
          y2="391.82001"
          gradientUnits="userSpaceOnUse">
          <stop
            offset="0.08"
            stop-color="#c1272d"
            id="stop48" />
          <stop
            offset="0.1"
            stop-color="#c32c2c"
            stop-opacity="0.97"
            id="stop50" />
          <stop
            offset="0.21"
            stop-color="#d45326"
            stop-opacity="0.71"
            id="stop52" />
          <stop
            offset="0.31"
            stop-color="#e27420"
            stop-opacity="0.49"
            id="stop54" />
          <stop
            offset="0.42"
            stop-color="#ed8e1c"
            stop-opacity="0.32"
            id="stop56" />
          <stop
            offset="0.52"
            stop-color="#f5a019"
            stop-opacity="0.2"
            id="stop58" />
          <stop
            offset="0.62"
            stop-color="#f9ab18"
            stop-opacity="0.12"
            id="stop60" />
          <stop
            offset="0.7"
            stop-color="#fbaf17"
            stop-opacity="0.1"
            id="stop62" />
        </linearGradient>
        <linearGradient
          id="e25ae56b-1423-4e2f-b92c-215cef7c0559"
          x1="671.76001"
          y1="1287.62"
          x2="671.76001"
          y2="664.20001"
          xlink:href="#e2e5286e-11a5-417b-bc96-c2659e60c5f6" />
        <linearGradient
          id="f9de3bf1-fdc6-4508-b881-379dfd0e369d"
          x1="864.28998"
          y1="1287.62"
          x2="864.28998"
          y2="462.17999"
          xlink:href="#e2e5286e-11a5-417b-bc96-c2659e60c5f6" />
        <linearGradient
          id="b276e8d8-1c45-4762-9fa7-77857a4553c5"
          x1="654.47998"
          y1="1287.62"
          x2="654.47998"
          y2="759.32001"
          xlink:href="#e2e5286e-11a5-417b-bc96-c2659e60c5f6" />
        <linearGradient
          id="b37c3e8e-6d38-48e0-97db-87c92abfe806"
          x1="642.97998"
          y1="1287.62"
          x2="642.97998"
          y2="830.60999"
          xlink:href="#e2e5286e-11a5-417b-bc96-c2659e60c5f6" />
        <linearGradient
          id="f6cf2913-d0cc-420b-a83a-fb47ff16a232"
          x1="567.51001"
          y1="1287.62"
          x2="567.51001"
          y2="872.15002"
          xlink:href="#e2e5286e-11a5-417b-bc96-c2659e60c5f6" />
        <linearGradient
          id="a636bfc1-9e3b-4eb7-9550-69f810344c86"
          x1="498.42999"
          y1="1287.62"
          x2="498.42999"
          y2="774.32001"
          xlink:href="#e2e5286e-11a5-417b-bc96-c2659e60c5f6" />
        <linearGradient
          id="b013e4af-a80e-458d-8fbb-e70d4fb45e00"
          x1="406.32001"
          y1="1287.62"
          x2="406.32001"
          y2="683.45001"
          xlink:href="#e2e5286e-11a5-417b-bc96-c2659e60c5f6" />
        <linearGradient
          inkscape:collect="always"
          xlink:href="#b297943c-621e-4104-9372-e848c1de02ba"
          id="linearGradient3587"
          gradientUnits="userSpaceOnUse"
          x1="683.51001"
          y1="1287.62"
          x2="683.51001"
          y2="640.70001" />
        <linearGradient
          inkscape:collect="always"
          xlink:href="#e2e5286e-11a5-417b-bc96-c2659e60c5f6"
          id="linearGradient3589"
          gradientUnits="userSpaceOnUse"
          x1="1057.04"
          y1="1287.62"
          x2="1057.04"
          y2="391.82001" />
      </defs>
      <title
        id="title74">OSCE_layout_D</title>
      <g
        style="isolation:isolate"
        id="g3579"
        transform="translate(97.95,-294.03)">
        <g
          id="edce9a80-aa17-4c46-89f4-b92668b3371d"
          data-name="Layer 1">
          <g
            clip-path="url(#f23a33c9-7a0b-4144-a664-4f275dfd587a)"
            id="g174">
            <path
              d="m 1370.52,671.08 c 0,0 -6.07,-0.54 -4.92,-1.69 h -71.55 a 15,15 0 0 0 -9.24,3.83 l -7.15,7.14 a 5.44,5.44 0 0 1 -7.66,0 l -17.87,-17.88 a 5.44,5.44 0 0 0 -7.66,0 l -15.28,15.29 a 15.05,15.05 0 0 1 -9.24,3.82 h -3 c -3,0 -6.79,-1.37 -8.47,-3.05 a 11.72,11.72 0 0 1 -3,-7.16 c 0,-2.26 -1.73,-5.84 -3.83,-7.94 l -1.84,-1.84 a 5.44,5.44 0 0 0 -7.66,0 l -16.16,16.17 a 15.12,15.12 0 0 1 -9.25,3.83 h -36.92 a 15,15 0 0 0 -9.24,3.83 L 1084,722 1076.34,729.65 1064,742 a 15.06,15.06 0 0 0 -3.82,9.24 v 11.16 a 5.43,5.43 0 0 1 -5.42,5.41 h -38.2 a 15.07,15.07 0 0 0 -9.24,3.83 l -2.49,2.49 a 15.07,15.07 0 0 1 -9.25,3.83 H 969 a 5.44,5.44 0 0 0 -5.41,5.42 v 6 a 5.43,5.43 0 0 0 5.41,5.41 h 23.67 a 5.43,5.43 0 0 1 5.41,5.42 v 0.06 a 15.11,15.11 0 0 1 -3.82,9.25 l -0.52,0.51 a 15.07,15.07 0 0 1 -9.24,3.83 h -19.09 a 5.22,5.22 0 0 0 -5.41,5 14.45,14.45 0 0 0 3.83,8.82 l 1.26,1.27 c 2.11,2.11 2.54,5.12 1,6.7 -1.54,1.58 -5.31,2.88 -8.29,2.88 h -32.33 a 15,15 0 0 0 -9.24,3.83 l -5.74,5.73 a 15,15 0 0 1 -9.24,3.83 h -17.84 a 15.07,15.07 0 0 0 -9.25,3.83 l -22,22 A 15.07,15.07 0 0 0 848.3,887 v 18.25 a 5.44,5.44 0 0 0 5.42,5.42 h 4.94 a 15,15 0 0 0 9.24,-3.83 l 8.23,-8.23 a 5.44,5.44 0 0 1 7.66,0 l 7.32,7.32 a 5.43,5.43 0 0 1 0,7.66 l -5.81,5.81 a 5.44,5.44 0 0 0 0,7.66 l 11.11,11.1 a 5.44,5.44 0 0 1 0,7.66 l -2.94,2.93 a 5.44,5.44 0 0 0 0,7.66 l 3.69,3.69 a 5.43,5.43 0 0 1 0,7.66 l -1.16,1.12 a 5.41,5.41 0 0 1 -7.65,0 l -7,-7 c -2.11,-2.11 -5.19,-2.47 -6.86,-0.81 -1.67,1.66 -1.3,4.75 0.81,6.86 l 2.17,2.17 a 5.43,5.43 0 0 1 0,7.66 l -0.81,0.82 a 5.41,5.41 0 0 0 0,7.65 l 1.57,1.58 a 5.44,5.44 0 0 0 7.66,0 l 6.41,-6.42 a 5.44,5.44 0 0 1 7.66,0 l 2.78,2.78 A 15.06,15.06 0 0 0 912,988 h 5.06 a 5.44,5.44 0 0 1 5.42,5.42 v 8.38 a 15.11,15.11 0 0 0 3.82,9.25 l 5.21,5.2 a 15,15 0 0 0 9.24,3.83 H 944 a 5.44,5.44 0 0 1 5.42,5.41 v 4.46 a 5.44,5.44 0 0 1 -5.42,5.41 h -2.18 a 15,15 0 0 0 -9.24,3.83 l -0.06,0.06 a 5.43,5.43 0 0 0 0,7.66 l 0.66,0.66 a 5.43,5.43 0 0 0 7.66,0 l 4.29,-4.3 a 15.11,15.11 0 0 1 9.25,-3.82 h 2.33 a 15.07,15.07 0 0 0 9.24,-3.83 l 7.7,-7.7 a 5.4022958,5.4022958 0 1 1 7.64,7.64 l -3.08,3.08 a 5.43,5.43 0 0 0 0,7.66 l 1.87,1.87 a 5.19,5.19 0 0 0 7.31,0.35 14.46,14.46 0 0 1 8.9,-3.48 h 8.23 a 14.28,14.28 0 0 0 8.82,-3.4 c 1.87,-1.87 5.13,-1.68 7.23,0.42 l 1.73,1.73 7.53,7.53 a 14.84,14.84 0 0 0 9.12,3.71 h 53.27 a 5.43,5.43 0 0 0 5.41,-5.42 v -34.13 a 5.43,5.43 0 0 1 5.42,-5.41 h 48.15 a 15.06,15.06 0 0 1 9.24,3.82 l 17,17 a 15.12,15.12 0 0 0 9.25,3.83 h 31.16 a 15.07,15.07 0 0 0 9.24,-3.83 l 32.57,-32.57 7.66,-7.66 22.79,-22.79 a 15.07,15.07 0 0 1 9.25,-3.83 h 17.22 a 15.12,15.12 0 0 0 9.24,-3.83 l 20,-20 a 5.43,5.43 0 0 1 7.66,0 l 4.44,4.44 a 5.44,5.44 0 0 1 0,7.66 l -9,9 a 5,5 0 0 0 0.26,7.38 l 14.21,12.33 a 33.45,33.45 0 0 1 6.56,8.37 l 3.51,6.83 c 1.35,2.65 2.47,2.38 2.47,-0.6 V 677 a 6.06,6.06 0 0 0 -5.41,-5.92 z"
              id="path76"
              inkscape:connector-curvature="0"
              style="fill:#dbdbd7" />
            <path
              d="m 1301.51,1025.27 a 5.44,5.44 0 0 0 -7.66,0 l -25,25 a 14.18,14.18 0 0 1 -8.53,3.83 13.85,13.85 0 0 0 -8.4,3.7 14.84,14.84 0 0 1 -9.11,3.7 h -7.25 a 5.43,5.43 0 0 0 -5.41,5.42 v 7.87 a 5.44,5.44 0 0 1 -5.42,5.42 h -6 c -3,0 -5.42,2 -5.42,4.46 0,2.46 -2,5.85 -4.44,7.55 0,0 -0.81,0.57 -1.13,0.25 l 17.58,17.59 a 5.44,5.44 0 0 0 7.66,0 l 2.3,-2.3 c 2.1,-2.1 5.87,-3.83 8.36,-3.83 2.49,0 6.26,-1.72 8.37,-3.83 l 14.63,-14.63 c 2.11,-2.1 3.83,-5.33 3.83,-7.17 0,-1.84 2.44,-3.35 5.42,-3.35 h 1.59 a 15,15 0 0 0 9.19,-3.78 5.4,5.4 0 0 0 0,-7.61 l -3.17,-3.17 a 5.41,5.41 0 0 1 0,-7.65 l 18.93,-18.94 a 5.43,5.43 0 0 0 0,-7.66 z"
              id="path78"
              inkscape:connector-curvature="0"
              style="fill:#dbdbd7" />
            <path
              d="m 88.55,802.88 a 15.12,15.12 0 0 1 -3.83,-9.25 v -11 c 0,-3 -2,-5.42 -4.38,-5.42 -2.38,0 -4.34,2.4 -4.34,5.38 v 11 A 5.42,5.42 0 0 1 70.54,799 H 64 l -18,18 a 5.43,5.43 0 0 0 0,7.66 l 7.49,7.5 a 5.41,5.41 0 0 1 0,7.65 l -2.39,2.39 a 5.44,5.44 0 0 0 0,7.66 l 0.69,0.68 a 15.12,15.12 0 0 1 3.83,9.25 v 0.57 a 15.07,15.07 0 0 0 3.83,9.25 l 5.53,5.53 a 5.43,5.43 0 0 0 7.66,0 l 7.58,-7.58 a 15.07,15.07 0 0 0 3.83,-9.24 V 848 A 15,15 0 0 1 88,838.72 l 1.36,-1.37 a 15,15 0 0 0 3.83,-9.24 v -15.22 a 15,15 0 0 0 -3.83,-9.24 z"
              id="path80"
              inkscape:connector-curvature="0"
              style="fill:#dbdbd7" />
            <path
              d="m 907.53,1157.49 a 14.85,14.85 0 0 0 -9.1,3.83 l -5.62,5.62 a 5.44,5.44 0 0 1 -7.66,0 l -4,-4 a 15.07,15.07 0 0 0 -9.25,-3.83 h -18.7 a 15.07,15.07 0 0 0 -9.25,3.83 l -4.13,4.13 a 15.07,15.07 0 0 1 -9.25,3.83 h -12.64 a 15.07,15.07 0 0 1 -9.25,-3.83 l -0.41,-0.41 a 15.06,15.06 0 0 0 -9.24,-3.83 h -18.65 a 5.44,5.44 0 0 0 -5.42,5.42 v 8.11 a 5.44,5.44 0 0 0 5.42,5.42 h 55.11 c 3,0 5.41,2.16 5.41,4.81 0,2.65 2.44,4.8 5.42,4.8 h 4.28 a 15,15 0 0 0 9.24,-3.83 l 4.94,-4.93 a 15,15 0 0 1 9.24,-3.83 h 15.5 a 14.19,14.19 0 0 0 8.79,-3.38 14.29,14.29 0 0 1 8.8,-3.37 h 0.27 a 5.44,5.44 0 0 0 5.42,-5.42 v -3.71 a 5.35,5.35 0 0 0 -5.27,-5.43 z"
              id="path82"
              inkscape:connector-curvature="0"
              style="fill:#dbdbd7" />
            <path
              d="m 785.9,1014.94 h 2.76 a 5.2,5.2 0 0 0 5.41,-4.93 14.46,14.46 0 0 0 -3.82,-8.76 l -20.71,-20.71 a 15.12,15.12 0 0 0 -9.25,-3.83 H 759 a 15,15 0 0 1 -9.24,-3.83 l -1.13,-1.13 a 24.92,24.92 0 0 0 -9,-5.32 c 0,0 -8.44,-2.44 -8.24,-2.24 l -5,5 c -2.1,2.1 -1.39,3.82 1.59,3.82 h 1.56 a 15.12,15.12 0 0 1 9.24,3.83 l 8.59,8.59 a 15.06,15.06 0 0 0 9.24,3.83 h 4.49 a 15.07,15.07 0 0 1 9.24,3.83 l 6.33,6.33 a 15,15 0 0 1 3.83,9.24 v 0.89 a 5.44,5.44 0 0 0 5.4,5.39 z"
              id="path84"
              inkscape:connector-curvature="0"
              style="fill:#dbdbd7" />
            <path
              d="m 350,1113.44 a 5.42,5.42 0 0 1 0,-7.64 15.06,15.06 0 0 0 3.82,-9.24 v -4.3 a 15.07,15.07 0 0 1 3.83,-9.25 l 1.85,-1.85 a 15.06,15.06 0 0 0 3.83,-9.24 v -8.82 a 5.44,5.44 0 0 0 -5.41,-5.42 h -1.6 a 14.83,14.83 0 0 0 -9.1,3.68 14.72,14.72 0 0 1 -9.09,3.68 h -10.45 a 15.12,15.12 0 0 0 -9.25,3.83 l -4.07,4.08 a 15.12,15.12 0 0 1 -9.25,3.83 h -24.92 a 15.12,15.12 0 0 1 -9.25,-3.83 l -2.3,-2.31 a 15.12,15.12 0 0 0 -9.24,-3.83 h -2 a 15.12,15.12 0 0 0 -9.25,3.83 l -5.41,5.41 a 15,15 0 0 1 -9.24,3.83 h -7.21 a 5.28,5.28 0 0 0 -5.28,5.42 c 0,0 0.15,5.71 -0.13,6 l 15.19,15.19 a 5.43,5.43 0 0 0 7.66,0 l 1.79,-1.78 a 5.41,5.41 0 0 1 7.65,0 l 28.45,28.44 a 5.41,5.41 0 0 0 7.65,0 l 6.79,-6.78 a 5.41,5.41 0 0 1 7.65,0 L 319.4,1142 a 15.11,15.11 0 0 0 9.25,3.82 H 348 a 15.06,15.06 0 0 0 9.24,-3.82 l 6.85,-6.86 a 5.41,5.41 0 0 0 0,-7.65 z"
              id="path86"
              inkscape:connector-curvature="0"
              style="fill:#dbdbd7" />
            <path
              d="m 77.29,915.36 a 15.12,15.12 0 0 1 -3.83,-9.25 v -5.22 a 15.07,15.07 0 0 0 -3.83,-9.25 l -2.27,-2.27 a 5.43,5.43 0 0 0 -7.66,0 l -13,13 a 15.12,15.12 0 0 1 -9.25,3.83 H 26.52 a 5.43,5.43 0 0 0 -5.42,5.41 v 7.9 a 15,15 0 0 0 3.83,9.24 l 6.86,6.87 c 0,-0.07 0,42.37 0,42.37 A 15,15 0 0 1 28,987.21 l -2.85,2.85 a 15.12,15.12 0 0 0 -3.83,9.25 v 15.35 a 15.07,15.07 0 0 0 3.83,9.24 l 0.66,0.66 a 15.07,15.07 0 0 0 9.24,3.83 h 13.89 a 5.43,5.43 0 0 0 5.41,-5.42 v -13.53 a 5.44,5.44 0 0 1 5.42,-5.42 h 10.95 a 15.07,15.07 0 0 0 9.25,-3.83 l 3.62,-3.61 a 15.11,15.11 0 0 0 3.82,-9.25 v -24.14 a 15.11,15.11 0 0 0 -3.82,-9.25 l -2.38,-2.37 a 5.43,5.43 0 0 1 0,-7.66 l 8.49,-8.49 a 5.43,5.43 0 0 0 0,-7.66 z"
              id="path88"
              inkscape:connector-curvature="0"
              style="fill:#dbdbd7" />
            <path
              d="m 164,69 c 1.56,-1.56 4.57,-1.12 6.68,1 l 3.37,3.38 c 2.11,2.1 5.32,2.34 7.14,0.52 1.82,-1.82 1.59,-5 -0.52,-7.14 l -1.35,-1.36 a 5.41,5.41 0 0 1 0,-7.65 l 8.87,-8.88 H 138.17 L 157.35,68 c 2.1,2.14 5.11,2.58 6.65,1 z"
              id="path90"
              inkscape:connector-curvature="0"
              style="fill:#dbdbd7" />
            <path
              d="M 898.14,48.86 H 485.47 v 1.71 A 5.44,5.44 0 0 1 480.05,56 h -27.9 a 5.44,5.44 0 0 0 -5.42,5.41 v 6.5 a 5.29,5.29 0 0 0 5.1,5.42 5.28,5.28 0 0 1 5.1,5.41 v 1.68 a 5.42,5.42 0 0 0 5.41,5.41 5.43,5.43 0 0 0 -5.41,5.42 v 5.2 a 5.43,5.43 0 0 1 -5.42,5.41 h -53.38 a 5.42,5.42 0 0 1 -5.41,-5.41 v -7.53 a 5.43,5.43 0 0 0 -5.42,-5.41 h -15.67 a 15,15 0 0 0 -9.24,3.83 l -12.73,12.72 -7.66,7.66 -20.88,20.88 a 15,15 0 0 1 -9.24,3.83 h -36.06 a 5.43,5.43 0 0 0 -5.41,5.42 v 6.49 a 5.44,5.44 0 0 1 -5.42,5.42 h -1.76 a 5.43,5.43 0 0 0 -5.42,5.41 c 0,-3 -1.75,-5.41 -3.89,-5.41 -2.14,0 -5.62,-1.73 -7.73,-3.83 l -17.82,-17.82 a 5.44,5.44 0 0 1 0,-7.66 l 6.1,-6.1 a 5.43,5.43 0 0 0 0,-7.66 l -3.55,-3.56 a 5.44,5.44 0 0 0 -7.66,0 l -5.08,5.09 a 15.12,15.12 0 0 1 -9.24,3.83 h -16.69 a 15.11,15.11 0 0 0 -9.25,3.82 l -18.84,18.85 a 15.12,15.12 0 0 1 -9.24,3.83 h -10.58 a 5.43,5.43 0 0 1 -5.41,-5.42 v -8.53 a 5.44,5.44 0 0 0 -5.42,-5.42 h -21.27 a 5.44,5.44 0 0 1 -5.42,-5.41 V 100.64 A 15.06,15.06 0 0 0 103,91.4 l -1.06,-1.07 v 0 l -8.1,-8.09 A 15.12,15.12 0 0 1 90,73 v -8.54 c 0,-3 1.73,-3.69 3.83,-1.58 l 13.75,13.74 a 15,15 0 0 0 9.24,3.83 h 4 A 5.44,5.44 0 0 0 126.19,75 v -4 a 15.12,15.12 0 0 0 -3.83,-9.25 l -13,-13 H 56.73 a 13.21,13.21 0 0 1 0.91,4.39 v 27.32 a 5.43,5.43 0 0 0 5.42,5.41 33.92,33.92 0 0 0 -5.42,0.22 55.53,55.53 0 0 0 3.83,4 L 69.36,98 a 15.12,15.12 0 0 1 3.83,9.25 v 23.31 a 15.12,15.12 0 0 1 -3.83,9.25 L 49.5,159.69 a 5.44,5.44 0 0 1 -7.66,0 l -2,-2 A 15.07,15.07 0 0 0 30.6,153.86 H 19 a 5.44,5.44 0 0 0 -5.42,5.42 v 11.59 a 15.07,15.07 0 0 1 -3.83,9.25 l -0.87,0.87 A 15.07,15.07 0 0 0 5,190.2 c 0,-3 -0.37,-5 -0.83,-4.58 -0.46,0.42 -2.55,-0.89 -4.66,-3 L -3,180.09 a 15.07,15.07 0 0 0 -9.25,-3.83 h -38.08 a 15,15 0 0 0 -9.24,3.83 l -5.09,5.08 -7.66,7.66 -13.23,13.23 a 15.07,15.07 0 0 0 -3.83,9.25 V 232 a 15.06,15.06 0 0 1 -3.83,9.24 L -111,259.06 a 15.07,15.07 0 0 0 -3.83,9.25 V 277 a 5.43,5.43 0 0 0 5.41,5.41 5.25,5.25 0 0 0 -5.41,5 5.25,5.25 0 0 1 -5.42,5 h -30.95 a 15.07,15.07 0 0 0 -9.25,3.83 l -9.71,9.71 a 5.43,5.43 0 0 0 0,7.66 15.93,15.93 0 0 0 -3,-2.41 4.63,4.63 0 0 0 -1.14,-0.51 0.73,0.73 0 0 0 -0.69,0.09 5.23,5.23 0 0 1 -2.29,0.7 27.9,27.9 0 0 1 -4.12,0.3 h -22.29 a 5.41,5.41 0 0 0 -4.49,2.39 5.32,5.32 0 0 0 -0.93,3 v 0 29.43 a 14.6,14.6 0 0 1 -1.69,6.18 12.2,12.2 0 0 1 -2.2,3.12 l -3,3.1 -3,3.06 a 11.47,11.47 0 0 1 -1.91,1.48 16.76,16.76 0 0 1 -2.39,1.22 13.64,13.64 0 0 1 -4.94,1.12 h -31 a 5.44,5.44 0 0 0 -4.76,2.84 5.38,5.38 0 0 0 -0.66,2.58 v 15.16 a 5.41,5.41 0 0 1 -2,4.17 5.37,5.37 0 0 1 -3.44,1.24 h -15.16 a 13.65,13.65 0 0 1 -4.95,-1.12 q -0.63,-0.26 -1.23,-0.57 a 12.24,12.24 0 0 1 -3.07,-2.13 L -320,362.53 a 14.59,14.59 0 0 0 -5.57,-3.17 12.14,12.14 0 0 0 -3.68,-0.66 h -5.48 a 5.43,5.43 0 0 0 -5.41,5.41 v 53.05 a 5.36,5.36 0 0 1 -0.93,3 l -0.31,0.42 a 5.68,5.68 0 0 1 -0.74,0.73 5.38,5.38 0 0 1 -3.44,1.24 h -32.65 a 15.07,15.07 0 0 1 -9.25,-3.83 l -6.95,-6.95 a 12.65,12.65 0 0 0 -3.06,-2.14 14.6,14.6 0 0 0 -6.18,-1.69 h -49.05 a 5.43,5.43 0 0 0 -5.41,5.42 v 28.55 a 5.43,5.43 0 0 0 2,4.18 5.42,5.42 0 0 0 3.44,1.24 h 33.33 a 15.18,15.18 0 0 1 7.33,2.34 10.72,10.72 0 0 1 1.92,1.49 l 32.32,32.32 a 12.26,12.26 0 0 1 2.14,3.07 17.11,17.11 0 0 1 1,2.5 12.43,12.43 0 0 1 0.65,3.68 v 45.86 a 15,15 0 0 0 3.83,9.24 l 25.46,25.46 a 15.07,15.07 0 0 1 3.83,9.25 v 49.16 a 15.07,15.07 0 0 1 -3.83,9.25 l -23.52,23.52 a 15.06,15.06 0 0 0 -3.83,9.24 v 48.7 a 5.44,5.44 0 0 1 -5.41,5.42 h -1.35 a 5.43,5.43 0 0 0 -5.42,5.41 5.42,5.42 0 0 0 -5.41,-5.41 h -30.85 a 15.12,15.12 0 0 1 -9.25,-3.83 l -24,-24 a 15,15 0 0 0 -9.24,-3.83 h -69.73 a 15.12,15.12 0 0 1 -9.25,-3.83 l -13.52,-13.53 a 15.12,15.12 0 0 0 -9.25,-3.83 h -57.5 a 15,15 0 0 1 -9.24,-3.83 l -13.68,-13.67 a 15,15 0 0 0 -9.24,-3.83 h -52.58 a 5.42,5.42 0 0 0 -5.41,5.41 v 27.52 a 15.06,15.06 0 0 0 3.83,9.24 l 0.69,0.7 a 5.41,5.41 0 0 1 0,7.65 l -4.87,4.88 a 5.43,5.43 0 0 0 0,7.66 l 4.28,4.27 a 5.44,5.44 0 0 1 0,7.66 l -4.84,4.84 c -2.1,2.1 -1.39,3.82 1.59,3.82 -3,0 -6.77,1.36 -8.42,3 -1.65,1.64 -3,5.44 -3,8.42 v 62 a 15.12,15.12 0 0 1 -3.83,9.25 l -27,26.95 a 15.12,15.12 0 0 0 -3.83,9.24 V 874 a 15.06,15.06 0 0 1 -3.82,9.24 l -31.14,31.13 a 5.44,5.44 0 0 0 0,7.66 l 20.39,20.39 a 15.07,15.07 0 0 1 3.83,9.25 V 979 a 15,15 0 0 1 -3.83,9.24 l -24.56,24.57 c -2.11,2.11 -1.4,3.83 1.58,3.83 h 25 a 15,15 0 0 1 9.24,3.83 l 8.46,8.45 a 15,15 0 0 0 9.24,3.83 h 17.85 a 5.43,5.43 0 0 0 5.41,-5.41 5.44,5.44 0 0 0 5.42,5.41 h 2.86 a 15,15 0 0 1 9.24,3.83 l 21.89,21.88 a 15.12,15.12 0 0 1 3.83,9.25 V 1090 a 15.11,15.11 0 0 0 3.82,9.24 l 15.86,15.76 a 5.43,5.43 0 0 0 7.66,0 l 18.15,-18.15 a 15.07,15.07 0 0 1 9.24,-3.83 h 17.82 a 15,15 0 0 0 9.24,-3.83 l 5.47,-5.47 a 15.12,15.12 0 0 1 9.25,-3.83 H -559 a 15.12,15.12 0 0 1 9.25,3.83 l 9.64,9.65 a 15.07,15.07 0 0 0 9.25,3.83 h 48.25 a 15,15 0 0 0 9.24,-3.83 l 18.3,-18.3 a 15.12,15.12 0 0 1 9.25,-3.83 h 31.24 a 5.42,5.42 0 0 0 5.41,-5.41 v -6.78 a 15.07,15.07 0 0 1 3.83,-9.24 l 16.21,-16.21 a 15.07,15.07 0 0 0 3.83,-9.25 v -3.49 a 15.07,15.07 0 0 1 3.83,-9.24 l 12,-12 a 15.1,15.1 0 0 0 3.83,-9.24 v -43.5 a 15,15 0 0 1 3.83,-9.24 l 60.07,-60.08 a 15.12,15.12 0 0 1 9.24,-3.83 h 40.2 a 15.06,15.06 0 0 0 9.3,-3.83 l 11,-11 a 15,15 0 0 0 3.83,-9.24 v -1.85 a 5.44,5.44 0 0 1 5.42,-5.42 h 9.9 a 15.07,15.07 0 0 0 9.25,-3.83 l 9.05,-9.05 a 15.07,15.07 0 0 0 3.83,-9.24 v -10.64 c 0,-3 -1.37,-6.78 -3,-8.45 -1.63,-1.67 -5.47,-3 -8.45,-3 3,0 3.95,-1.47 2.15,-3.27 a 14,14 0 0 1 -3.27,-8.68 v -17.51 a 15.06,15.06 0 0 1 3.83,-9.24 l 7.58,-7.58 a 15.06,15.06 0 0 1 9.24,-3.83 h 70.05 a 15,15 0 0 1 9.24,3.83 l 23.75,23.75 a 15.11,15.11 0 0 0 9.24,3.82 h 12.93 a 15.06,15.06 0 0 0 9.24,-3.82 l 27.19,-27.21 7.66,-7.65 3.07,-3.07 a 15,15 0 0 1 9.24,-3.83 h 0.55 a 5.44,5.44 0 0 0 5.42,-5.41 c 0,3 1.2,5.41 2.67,5.41 1.47,0 4.39,-1.72 6.5,-3.83 l 11.05,-11 a 15.1,15.1 0 0 1 9.24,-3.83 h 3.15 a 15.11,15.11 0 0 0 9.25,-3.82 L 56.11,702 a 14.88,14.88 0 0 1 9.11,-3.83 14.88,14.88 0 0 1 9.12,3.83 l 21.11,21.12 a 15.12,15.12 0 0 0 9.25,3.88 h 7.38 a 5.42,5.42 0 0 1 5.41,5.41 v 30.2 a 15.12,15.12 0 0 0 3.83,9.25 l 27.07,27.07 a 14.65,14.65 0 0 1 3.83,8.94 14.68,14.68 0 0 0 3.83,8.93 l 27.58,27.58 a 15.07,15.07 0 0 0 9.25,3.83 h 6 a 15.12,15.12 0 0 1 9.25,3.83 l 21.7,21.71 a 15.07,15.07 0 0 0 9.25,3.83 h 30.28 a 15.07,15.07 0 0 1 9.25,3.83 L 304,906.77 a 15,15 0 0 0 9.24,3.83 h 7.17 a 5.44,5.44 0 0 1 5.42,5.41 v 19.18 a 5.43,5.43 0 0 0 5.41,5.41 h 21.86 a 15.07,15.07 0 0 1 9.24,3.83 l 11.24,11.24 a 15.07,15.07 0 0 1 3.83,9.25 v 17.25 a 15.07,15.07 0 0 0 3.83,9.25 l 20.18,20.18 a 5.43,5.43 0 0 1 0,7.65 l -0.77,0.77 a 15.07,15.07 0 0 1 -9.25,3.83 h -1.93 a 5.44,5.44 0 0 0 -5.42,5.42 v 13.17 a 15,15 0 0 1 -3.83,9.24 l -4.6,4.6 a 14.7,14.7 0 0 0 -3.83,8.94 5.29,5.29 0 0 0 5.42,5.11 h 6 a 15.12,15.12 0 0 0 9.25,-3.83 l 17.36,-17.37 a 15.06,15.06 0 0 0 3.83,-9.24 v -9.09 a 15.12,15.12 0 0 1 3.83,-9.25 l 8.69,-8.68 a 14.6,14.6 0 0 1 8.93,-3.83 5.29,5.29 0 0 0 5.11,-5.41 v -8.07 a 15.07,15.07 0 0 0 -3.83,-9.25 L 410.14,960 a 5.43,5.43 0 0 1 0,-7.66 l 24.26,-24.26 a 15,15 0 0 1 9.24,-3.83 h 11.64 a 15.07,15.07 0 0 1 9.25,3.83 l 6.64,6.64 c 2.11,2.11 3.83,5.67 3.83,7.92 0,2.25 2.44,4.08 5.41,4.08 H 489 a 5.43,5.43 0 0 0 4.49,-2.39 3.35,3.35 0 0 0 0.27,-0.45 4.63,4.63 0 0 0 0.41,-1 5.3,5.3 0 0 0 0.25,-1.6 V 930.7 a 15.12,15.12 0 0 0 -3.83,-9.25 l -14.82,-14.81 a 15,15 0 0 0 -9.24,-3.83 h -19.82 a 15.07,15.07 0 0 1 -9.25,-3.83 l -18.39,-18.39 a 15.07,15.07 0 0 0 -9.24,-3.83 h -31.56 a 5.42,5.42 0 0 1 -5.41,-5.41 v -9.09 a 15.06,15.06 0 0 1 3.82,-9.24 l 1,-1 a 5.44,5.44 0 0 0 0,-7.66 l -4.09,-4.09 a 15.11,15.11 0 0 0 -9.24,-3.82 h -25.92 a 15.12,15.12 0 0 1 -9.24,-3.83 l -36.78,-36.78 -7.65,-7.66 -14.56,-14.58 a 15.07,15.07 0 0 1 -3.83,-9.25 v -7 a 5.44,5.44 0 0 0 -5.42,-5.42 h -6 a 15,15 0 0 1 -9.24,-3.83 L 205.1,707.5 a 15.12,15.12 0 0 1 -3.83,-9.25 v -15.76 c 0,-3 1.15,-6.57 2.56,-8 1.41,-1.43 2.55,-5 2.55,-8 v -23.9 a 5.44,5.44 0 0 1 5.41,-5.42 H 214 a 15,15 0 0 0 9.24,-3.83 l 12.31,-12.31 a 15.12,15.12 0 0 1 9.25,-3.83 h 1 a 5.43,5.43 0 0 0 5.42,-5.41 c 0,3 1.7,5.41 3.77,5.41 2.07,0 5.5,1.73 7.61,3.83 l 0.24,0.24 c 2.1,2.1 2.64,5 1.2,6.45 -1.44,1.45 -0.19,2.63 2.79,2.63 a 14.77,14.77 0 0 0 -9.09,3.67 5.32,5.32 0 0 0 0.16,7.5 l 13.33,13.34 a 5.44,5.44 0 0 0 7.66,0 l 9.18,-9.19 a 5.44,5.44 0 0 1 7.66,0 l 7.41,7.41 a 15.07,15.07 0 0 1 3.83,9.25 v 14 a 15.07,15.07 0 0 0 3.83,9.25 l 46.4,46.4 a 15.07,15.07 0 0 0 9.25,3.83 H 376 a 15.07,15.07 0 0 1 9.25,3.83 L 418.51,773 a 5.23,5.23 0 0 0 7.36,0.31 5.22,5.22 0 0 0 0.3,7.35 l 1,1 a 5.33,5.33 0 0 0 7.5,0.15 5,5 0 0 0 -0.31,7 14.16,14.16 0 0 0 8.78,3.37 h 24.54 c 3,0 3.69,-1.72 1.59,-3.83 2.1,2.11 5.54,3.83 7.63,3.83 2.09,0 5.54,1.72 7.64,3.83 l 29.86,29.86 c 2.1,2.1 3.83,1.39 3.83,-1.59 0,3 1.28,6.69 2.84,8.26 1.56,1.57 2.85,5.28 2.85,8.26 v 32.38 a 15,15 0 0 0 3.83,9.24 l 8,8 a 15,15 0 0 1 3.83,9.24 v 16.09 a 15,15 0 0 0 3.83,9.24 l 35.6,35.61 1.76,1.76 5.9,5.9 10.95,11 a 15.07,15.07 0 0 0 9.25,3.83 h 13.82 a 5.43,5.43 0 0 1 5.41,5.41 v 1.75 a 15.07,15.07 0 0 0 3.83,9.24 l 6.52,6.52 a 15.07,15.07 0 0 0 9.25,3.83 h 63.52 a 15.12,15.12 0 0 1 9.25,3.83 l 3.92,3.93 a 5.43,5.43 0 0 1 0,7.66 l -1.95,1.95 a 15,15 0 0 1 -9.24,3.83 h -16.95 a 15.06,15.06 0 0 1 -9.24,-3.83 l -1.57,-1.57 a 15.07,15.07 0 0 0 -9.25,-3.83 h -9 a 15.07,15.07 0 0 0 -9.25,3.83 l -16.08,16.08 a 5.44,5.44 0 0 0 0,7.66 l 22,22 a 15.07,15.07 0 0 1 3.83,9.25 v 5.65 a 15.07,15.07 0 0 0 3.83,9.25 l 7.18,7.18 c 2.1,2.1 5.83,3.83 8.28,3.83 2.45,0 4.45,-2.44 4.45,-5.42 v -6.64 c 0,-3 1.72,-3.7 3.83,-1.59 l 19.38,19.38 c 2.1,2.1 5.16,3.83 6.79,3.83 1.63,0 3,-2.44 3,-5.42 v -5 c 0,-3 1.72,-3.7 3.83,-1.59 l 9.82,9.82 a 5.14,5.14 0 1 0 7.25,-7.26 l -6.19,-6.19 a 15,15 0 0 1 -3.83,-9.24 v -11.92 a 15.07,15.07 0 0 0 -3.83,-9.25 l -10.64,-10.64 c -2.11,-2.1 -1.39,-3.83 1.59,-3.83 h 23 a 5.43,5.43 0 0 0 5.42,-5.41 v -0.55 a 5.44,5.44 0 0 0 -5.42,-5.41 h -7.63 a 5.44,5.44 0 0 1 -5.42,-5.42 V 1035 a 15.12,15.12 0 0 1 3.83,-9.25 l 1.91,-1.9 a 5.41,5.41 0 0 1 7.65,0 l 15.1,15.09 a 5.41,5.41 0 0 0 7.65,0 l 8.17,-8.17 a 5.43,5.43 0 0 0 0,-7.66 l -17.69,-17.72 -7.66,-7.65 -2.23,-2.24 a 15.12,15.12 0 0 0 -9.24,-3.83 h -14.6 a 15.07,15.07 0 0 1 -9.25,-3.83 l -9.32,-9.32 a 5.44,5.44 0 0 1 0,-7.66 l 3.72,-3.71 a 5.43,5.43 0 0 0 0,-7.66 l -3.22,-3.22 a 5.43,5.43 0 0 1 0,-7.66 l 0.25,-0.26 a 5.44,5.44 0 0 1 7.66,0 l 3.22,3.23 c 2.11,2.1 5.32,2.34 7.13,0.53 1.81,-1.81 1.57,-5 -0.53,-7.13 l -36.86,-36.85 a 15.12,15.12 0 0 1 -3.83,-9.25 v -11.59 a 15.07,15.07 0 0 1 3.83,-9.24 l 3.56,-3.55 a 5.41,5.41 0 0 1 7.65,0 l 1.16,1.15 a 15.12,15.12 0 0 1 3.83,9.24 v 2.9 a 5.43,5.43 0 0 0 5.41,5.42 h 0.39 a 5.42,5.42 0 0 1 5.41,5.41 v 4.45 a 5.44,5.44 0 0 0 5.42,5.42 h 5.7 c 3,0 5.41,-1.48 5.41,-3.28 0,-1.8 -1.4,-4.67 -3.12,-6.39 -1.72,-1.72 -2,-4.21 -0.7,-5.53 1.3,-1.32 4.14,-0.7 6.25,1.41 l 8.4,8.4 c 2.1,2.11 5.27,2.39 7,0.63 1.73,-1.76 1.48,-4.92 -0.63,-7 L 737,886.43 c -2.11,-2.1 -3,-4.7 -1.88,-5.77 1.12,-1.07 3.67,-0.23 5.78,1.88 l 9.65,9.64 c 2.1,2.11 5.19,2.47 6.87,0.79 1.68,-1.68 1.31,-4.76 -0.79,-6.87 L 739.96,869.44 732.51,862 c -2,-2 -2.43,-4.74 -1,-6.16 1.43,-1.42 4.3,-0.84 6.4,1.26 l 0.92,0.92 a 5.44,5.44 0 0 0 7.66,0 l 14.95,-14.95 c 2.11,-2.11 5.06,-2.6 6.56,-1.1 1.5,1.5 4.45,1 6.56,-1.1 l 6.53,-6.53 a 15,15 0 0 1 9.24,-3.83 h 31.87 c 3,0 5.42,0.73 5.42,1.63 0,0.9 1.72,-0.09 3.83,-2.2 a 15.07,15.07 0 0 0 -3.83,9.25 5.43,5.43 0 0 0 5.41,5.41 h 6.61 a 15,15 0 0 0 9.24,-3.83 l 5.11,-5.11 a 5.44,5.44 0 0 1 7.66,0 l 1.84,1.84 a 5.43,5.43 0 0 1 0,7.66 L 850.66,858 c -2.1,2.11 -2.69,5 -1.3,6.35 1.39,1.35 4.25,0.8 6.35,-1.3 l 18.47,-18.47 7.66,-7.66 6,-6 a 15,15 0 0 0 3.83,-9.24 v -7.88 a 5.43,5.43 0 0 1 5.41,-5.41 h 10.85 a 15.07,15.07 0 0 0 9.24,-3.83 l 5.11,-5.11 a 15.06,15.06 0 0 1 9.24,-3.83 h 15 a 5.44,5.44 0 0 0 5.41,-5.42 v -2.53 a 5.43,5.43 0 0 0 -5.41,-5.41 h -18.26 a 15.07,15.07 0 0 1 -9.25,-3.83 l -19.07,-19.07 a 15.06,15.06 0 0 0 -9.24,-3.83 45.17,45.17 0 0 0 5.27,-0.15 l -4,-4 -13.4,-13.38 a 15.12,15.12 0 0 1 -3.83,-9.24 v -15.9 a 15.12,15.12 0 0 1 3.83,-9.24 l 2.74,-2.73 a 15.12,15.12 0 0 0 3.83,-9.25 v -23.91 a 5.43,5.43 0 0 1 5.41,-5.41 h 1.94 a 5.43,5.43 0 0 0 5.41,-5.42 v -8.5 a 5.43,5.43 0 0 0 -5.41,-5.42 5.43,5.43 0 0 0 5.41,-5.41 V 619 a 15,15 0 0 0 -3.83,-9.24 l -2.43,-2.44 a 15.06,15.06 0 0 1 -3.83,-9.24 V 568 a 5.43,5.43 0 0 1 5.41,-5.41 h 1 a 5.39,5.39 0 0 1 5.41,5.34 5.4,5.4 0 0 0 5.42,5.35 h 0.45 a 15.12,15.12 0 0 0 9.25,-3.83 l 3.62,-3.63 a 15,15 0 0 0 3.83,-9.24 v -5.34 a 15.07,15.07 0 0 0 -3.83,-9.25 c 2.11,2.11 3.83,1.46 3.83,-1.44 a 14.88,14.88 0 0 0 -3.83,-9.11 l -3.92,-3.92 a 5.43,5.43 0 0 1 0,-7.66 l 14.31,-14.31 a 15,15 0 0 0 3.83,-9.24 v -11.47 a 15,15 0 0 1 3.83,-9.24 l 20.4,-20.4 7.66,-7.66 4.81,-4.81 a 15.06,15.06 0 0 1 9.24,-3.83 h 14.26 a 5.43,5.43 0 0 1 5.42,5.41 V 452 a 5.42,5.42 0 0 0 5.41,5.41 h 11.74 a 15,15 0 0 0 9.24,-3.83 l 9.86,-9.85 a 5.43,5.43 0 0 1 7.66,0 l 8.08,8.07 a 5.43,5.43 0 0 0 7.66,0 l 0.06,-0.06 a 5.43,5.43 0 0 1 7.65,0 l 3.63,3.63 a 5.43,5.43 0 0 1 0,7.65 l -34.5,34.51 a 5.41,5.41 0 0 0 0,7.65 l 0.06,0.07 a 5.44,5.44 0 0 0 7.66,0 l 3.32,-3.33 a 5.43,5.43 0 0 1 7.66,0 l 6,6 a 5.44,5.44 0 0 0 7.66,0 l 1.84,-1.84 a 5.43,5.43 0 0 1 7.66,0 l 11.64,11.64 a 5.41,5.41 0 0 1 0,7.65 l -5.7,5.71 a 5.43,5.43 0 0 0 0,7.66 l 2.14,2.14 a 15.06,15.06 0 0 0 9.24,3.82 h 8.17 a 15.11,15.11 0 0 0 9.25,-3.82 l 7.78,-7.79 a 15,15 0 0 0 3.83,-9.24 v -6.35 a 15,15 0 0 1 3.83,-9.24 l 17,-17 7.66,-7.66 2.44,-2.43 a 15,15 0 0 1 9.24,-3.83 h 13.81 a 15.12,15.12 0 0 0 9.25,-3.83 l 0.8,-0.81 a 15,15 0 0 0 3.83,-9.24 v -6.54 a 5.43,5.43 0 0 0 -5.41,-5.41 h -6 a 15.06,15.06 0 0 0 -9.24,3.82 l -6.3,6.3 -7.66,7.66 -2.73,2.73 a 15.07,15.07 0 0 1 -9.25,3.83 h -8.76 a 15,15 0 0 1 -9.24,-3.83 l -8.08,-8.08 -7.66,-7.65 -3.63,-3.63 a 5.43,5.43 0 0 0 -7.65,0 l -1.25,1.25 a 5.43,5.43 0 0 1 -7.66,0 l -4.81,-4.81 c -2.11,-2.11 -5.9,-3.83 -8.43,-3.83 -2.53,0 -2.88,-1.72 -0.78,-3.83 l 4.37,-4.37 a 15.11,15.11 0 0 1 9.24,-3.82 h 6.84 a 15.07,15.07 0 0 0 9.24,-3.83 l 85.35,-85.35 a 15.07,15.07 0 0 1 9.25,-3.83 h 12.55 a 5.43,5.43 0 0 0 5.41,-5.42 v -6.76 c 0,-3 1.1,-6.51 2.44,-7.85 1.34,-1.34 0.71,-4.16 -1.4,-6.26 a 6.11,6.11 0 0 0 0.85,0.69 5.42,5.42 0 0 0 2,0.79 5.14,5.14 0 0 0 1,0.1 5.46,5.46 0 0 0 3.83,-1.58 l 6.06,-6.06 6.06,-6.06 a 5.42,5.42 0 0 1 4.86,-1.48 5.36,5.36 0 0 1 2.79,1.48 l 9,9 a 5.49,5.49 0 0 1 1.19,1.79 5.07,5.07 0 0 1 0.29,1 5.15,5.15 0 0 1 0,2.07 5.33,5.33 0 0 1 -1.48,2.79 l -19.65,19.66 a 5.15,5.15 0 0 0 -1.19,1.79 5.48,5.48 0 0 0 -0.39,2 5.56,5.56 0 0 0 0.39,2 5.34,5.34 0 0 0 1.19,1.79 l 3.62,3.62 a 5.43,5.43 0 0 1 0,7.66 l -10.75,10.75 a 5.43,5.43 0 0 0 0,7.66 l 0.06,0.06 a 15.12,15.12 0 0 0 9.25,3.83 h 7.87 a 5.36,5.36 0 0 1 1.61,0.24 5.28,5.28 0 0 1 1.41,0.69 5.41,5.41 0 0 1 2.4,4.48 v 0.16 a 8.43,8.43 0 0 1 0,0.86 13.74,13.74 0 0 1 -0.61,2.82 c -0.14,0.42 -0.3,0.85 -0.47,1.27 a 16.64,16.64 0 0 1 -1.22,2.38 10.6,10.6 0 0 1 -1.48,1.91 l -11.64,11.64 a 9.51,9.51 0 0 0 -0.77,0.88 13.82,13.82 0 0 0 -1.37,2.19 14.56,14.56 0 0 0 -1.69,6.18 v 6.09 a 14.6,14.6 0 0 0 1.69,6.18 13.72,13.72 0 0 0 1.37,2.18 7.46,7.46 0 0 0 0.77,0.88 l 4.07,4.07 a 5.56,5.56 0 0 1 0.89,1.14 1.57,1.57 0 0 1 -0.11,2 3.55,3.55 0 0 1 -2.37,0.65 h -26.14 a 5.34,5.34 0 0 0 -2.57,0.66 5.73,5.73 0 0 0 -1.25,0.93 5.43,5.43 0 0 0 -1.59,3.83 v 8.91 a 5.41,5.41 0 0 0 1.59,3.83 5.73,5.73 0 0 0 1.25,0.93 5.34,5.34 0 0 0 2.57,0.66 h 24.8 a 15,15 0 0 1 9.25,3.83 l 2.43,2.43 a 11.09,11.09 0 0 0 1.92,1.49 16.88,16.88 0 0 0 3.65,1.69 12.43,12.43 0 0 0 3.68,0.65 h 9.36 a 11.33,11.33 0 0 1 2.72,0.38 c 0.32,0.08 0.64,0.17 1,0.28 A 14.6,14.6 0 0 1 1277,472 l 10.46,10.45 a 12.2,12.2 0 0 0 3.06,2.14 17.58,17.58 0 0 0 2.5,1 12.43,12.43 0 0 0 3.68,0.65 h 25.09 a 15.12,15.12 0 0 1 9.25,3.83 l 21.59,21.59 a 15,15 0 0 0 9.24,3.83 h 8.61 a 5.52,5.52 0 0 0 3,-0.93 5.48,5.48 0 0 0 2.38,-3.93 5.25,5.25 0 0 0 0,-0.56 l 2.67,-461.22 z m -36.23,27 h 0.18 -0.18 a 5.47,5.47 0 0 0 -0.7,0.16 5.47,5.47 0 0 1 0.7,-0.2 z m -2.11,0.84 v 0 l -0.42,0.31 c 0.14,-0.15 0.27,-0.25 0.42,-0.35 z m -1.15,1 z"
              id="path92"
              inkscape:connector-curvature="0"
              style="fill:#dbdbd7" />
            <circle
              cx="866.62"
              cy="247.86"
              r="9"
              id="circle94" />
            <circle
              cx="850.62"
              cy="451.85999"
              r="9"
              id="circle96" />
            <circle
              cx="531.62"
              cy="648.85999"
              r="9"
              id="circle98" />
            <circle
              cx="483.62"
              cy="707.85999"
              r="9"
              id="circle100" />
            <circle
              cx="584.62"
              cy="766.85999"
              r="9"
              id="circle102" />
            <circle
              cx="609.62"
              cy="810.85999"
              r="9"
              id="circle104" />
            <circle
              cx="520.62"
              cy="768.85999"
              r="9"
              id="circle106" />
            <circle
              cx="540.62"
              cy="860.85999"
              r="9"
              id="circle108" />
            <text
              transform="translate(884,254.3)"
              font-size="18"
              id="text114"
              style="font-size:18px;font-family:Myriad">
              Kiev
            </text>
            <text
              transform="translate(867,457.3)"
              font-size="18"
              id="text116"
              style="font-size:18px;font-family:Myriad">Chisinau</text>
            <text
              transform="translate(541,675.3)"
              font-size="18"
              id="text128"
              style="font-size:18px;font-family:Myriad">Belgrade</text>
            <text
              transform="translate(413,694.3)"
              font-size="18"
              id="text142"
              style="font-size:18px;font-family:Myriad">Sarajevo</text>
            <text
              transform="translate(532,844.3)"
              font-size="18"
              id="text152"
              style="font-size:18px;font-family:Myriad">Tirane</text>
            <text
              transform="translate(445,755.3)"
              font-size="18"
              id="text162"
              style="font-size:18px;font-family:Myriad">Podgorica</text>
            <text
              transform="translate(552,753.3)"
              font-size="18"
              id="text170"
              style="font-size:18px;font-family:Myriad">
              Pristina
            </text>
            <text
              transform="translate(602,838.3)"
              font-size="18"
              id="text172"
              style="font-size:18px;font-family:Myriad">Skopja</text>
          </g>
          <line
            x1="1057.04"
            y1="1287.62"
            x2="1057.04"
            y2="1937.63"
            stroke-miterlimit="10"
            id="line176"
            style="fill:none;stroke:#fbaf17;stroke-width:100;stroke-miterlimit:10" />
          <path
            d="m 758,1287.62 v 58.11 a 40.12,40.12 0 0 0 40,40 h 102.19 a 40.12,40.12 0 0 1 40,40 v 511.9"
            stroke-miterlimit="10"
            id="path178"
            inkscape:connector-curvature="0"
            style="fill:none;stroke:#fbaf17;stroke-width:60;stroke-miterlimit:10" />
          <path
            d="m 864.29,1287.62 v 19.92 c 0,11 18,19.91 40,19.91 H 947 a 40.12,40.12 0 0 1 40,40 v 570.18"
            stroke-miterlimit="10"
            id="path180"
            inkscape:connector-curvature="0"
            style="fill:none;stroke:#fbaf17;stroke-width:40;stroke-miterlimit:10" />
          <path
            d="m 697,1287.62 v 121.67 a 40.12,40.12 0 0 0 40,40 h 113.75 a 40.12,40.12 0 0 1 40,40 v 448.34"
            stroke-miterlimit="10"
            id="path182"
            inkscape:connector-curvature="0"
            style="fill:none;stroke:#fbaf17;stroke-width:40;stroke-miterlimit:10" />
          <path
            d="m 643,1287.62 v 177.51 a 40.12,40.12 0 0 0 40,40 h 127.1 a 40.12,40.12 0 0 1 40,40 v 392.5"
            stroke-miterlimit="10"
            id="path184"
            inkscape:connector-curvature="0"
            style="fill:none;stroke:#fbaf17;stroke-width:40;stroke-miterlimit:10" />
          <path
            d="m 567.51,1287.62 v 227.62 a 40.12,40.12 0 0 0 40,40 h 162.9 a 40.12,40.12 0 0 1 40,40 v 342.39"
            stroke-miterlimit="10"
            id="path186"
            inkscape:connector-curvature="0"
            style="fill:none;stroke:#fbaf17;stroke-width:40;stroke-miterlimit:10" />
          <path
            d="m 498.43,1287.62 v 277.06 a 40.12,40.12 0 0 0 40,40 h 198.43 a 40.12,40.12 0 0 1 40,40 v 293"
            stroke-miterlimit="10"
            id="path188"
            inkscape:connector-curvature="0"
            style="fill:none;stroke:#fbaf17;stroke-width:30;stroke-miterlimit:10" />
          <path
            d="m 406.32,1287.62 v 329.67 a 40.12,40.12 0 0 0 40,40 h 252.57 a 40.12,40.12 0 0 1 40,40 v 240.34"
            stroke-miterlimit="10"
            id="path190"
            inkscape:connector-curvature="0"
            style="fill:none;stroke:#fbaf17;stroke-width:50;stroke-miterlimit:10" />
          <line
            x1="1057.04"
            y1="391.82001"
            x2="1057.04"
            y2="1287.62"
            stroke-miterlimit="10"
            id="line196"
            style="fill:none;stroke:url(#a6ad2c66-f046-490f-9f42-e605f6057df5);stroke-width:100;stroke-miterlimit:10" />
          <path
            d="m 579,670.7 h 139 a 40.12,40.12 0 0 1 40,40 v 576.92"
            stroke-miterlimit="10"
            id="path198"
            inkscape:connector-curvature="0"
            style="fill:none;stroke:url(#linearGradient3587);stroke-width:60;stroke-miterlimit:10" />
          <line
            x1="864.28998"
            y1="462.17999"
            x2="864.28998"
            y2="1287.62"
            stroke-miterlimit="10"
            id="line200"
            style="fill:none;stroke:url(#e8cf26fe-0628-40b1-a012-07a23ca83b39);stroke-width:40;stroke-miterlimit:10" />
          <path
            d="M 596.93,774.32 H 657 a 40.12,40.12 0 0 1 40,40 v 473.3"
            stroke-miterlimit="10"
            id="path202"
            inkscape:connector-curvature="0"
            style="fill:none;stroke:url(#aa76b8bd-e144-4e30-a228-2a7ff4e96005);stroke-width:40;stroke-miterlimit:10" />
          <line
            x1="642.97998"
            y1="830.60999"
            x2="642.97998"
            y2="1287.62"
            stroke-miterlimit="10"
            id="line204"
            style="fill:none;stroke:url(#a7be003c-07b3-4be9-8a81-d630b2982ce6);stroke-width:40;stroke-miterlimit:10" />
          <line
            x1="567.51001"
            y1="872.15002"
            x2="567.51001"
            y2="1287.62"
            stroke-miterlimit="10"
            id="line206"
            style="fill:none;stroke:url(#e96ef8b9-dce7-4462-bc3e-15d248f933ca);stroke-width:40;stroke-miterlimit:10" />
          <line
            x1="498.42999"
            y1="774.32001"
            x2="498.42999"
            y2="1287.62"
            stroke-miterlimit="10"
            id="line208"
            style="fill:none;stroke:url(#a6f83caa-50e9-4243-8942-a1b2f0fe269b);stroke-width:30;stroke-miterlimit:10" />
          <line
            x1="406.32001"
            y1="683.45001"
            x2="406.32001"
            y2="1287.62"
            stroke-miterlimit="10"
            id="line210"
            style="fill:none;stroke:url(#b9259d5e-2969-42b2-98c3-6625c45d6e4b);stroke-width:50;stroke-miterlimit:10" />
          <line
            x1="1057.04"
            y1="391.82001"
            x2="1057.04"
            y2="1287.62"
            stroke-miterlimit="10"
            id="line212"
            style="fill:none;stroke:url(#linearGradient3589);stroke-width:41;stroke-miterlimit:10" />
          <path
            d="m 579,670.7 h 139 a 40.12,40.12 0 0 1 40,40 v 576.92"
            stroke-miterlimit="10"
            id="path214"
            inkscape:connector-curvature="0"
            style="fill:none;stroke:url(#e25ae56b-1423-4e2f-b92c-215cef7c0559);stroke-width:13;stroke-miterlimit:10" />
          <line
            x1="864.28998"
            y1="462.17999"
            x2="864.28998"
            y2="1287.62"
            stroke-miterlimit="10"
            id="line216"
            style="fill:none;stroke:url(#f9de3bf1-fdc6-4508-b881-379dfd0e369d);stroke-width:15;stroke-miterlimit:10" />
          <path
            d="M 596.93,774.32 H 657 a 40.12,40.12 0 0 1 40,40 v 473.3"
            stroke-miterlimit="10"
            id="path218"
            inkscape:connector-curvature="0"
            style="fill:none;stroke:url(#b276e8d8-1c45-4762-9fa7-77857a4553c5);stroke-width:30;stroke-miterlimit:10" />
          <line
            x1="642.97998"
            y1="830.60999"
            x2="642.97998"
            y2="1287.62"
            stroke-miterlimit="10"
            id="line220"
            style="fill:none;stroke:url(#b37c3e8e-6d38-48e0-97db-87c92abfe806);stroke-width:20;stroke-miterlimit:10" />
          <line
            x1="567.51001"
            y1="872.15002"
            x2="567.51001"
            y2="1287.62"
            stroke-miterlimit="10"
            id="line222"
            style="fill:none;stroke:url(#f6cf2913-d0cc-420b-a83a-fb47ff16a232);stroke-width:10;stroke-miterlimit:10" />
          <line
            x1="498.42999"
            y1="774.32001"
            x2="498.42999"
            y2="1287.62"
            stroke-miterlimit="10"
            id="line224"
            style="fill:none;stroke:url(#a636bfc1-9e3b-4eb7-9550-69f810344c86);stroke-width:5;stroke-miterlimit:10" />
          <line
            x1="406.32001"
            y1="683.45001"
            x2="406.32001"
            y2="1287.62"
            stroke-miterlimit="10"
            id="line226"
            style="fill:none;stroke:url(#b013e4af-a80e-458d-8fbb-e70d4fb45e00);stroke-width:36;stroke-miterlimit:10" />
          <path
            d="m 1057,1287.62 v 259.94 a 40.12,40.12 0 0 1 -40,40 H 567.64 a 40.12,40.12 0 0 0 -40,40 v 310.07"
            stroke-miterlimit="10"
            id="path228"
            inkscape:connector-curvature="0"
            style="fill:none;stroke:#c1282e;stroke-width:41;stroke-miterlimit:10" />
          <path
            d="m 758,1287.62 v 177.51 a 40.12,40.12 0 0 1 -40,40 H 530.89 a 40.12,40.12 0 0 0 -40,40 v 392.5"
            stroke-miterlimit="10"
            id="path230"
            inkscape:connector-curvature="0"
            style="fill:none;stroke:#c1282e;stroke-width:13;stroke-miterlimit:10" />
          <path
            d="m 864.29,1287.62 v 218.29 a 40.12,40.12 0 0 1 -40,40 h -279.5 a 40.12,40.12 0 0 0 -40,40 v 351.72"
            stroke-miterlimit="10"
            id="path232"
            inkscape:connector-curvature="0"
            style="fill:none;stroke:#c1282e;stroke-width:15;stroke-miterlimit:10" />
          <path
            d="m 697,1287.62 v 129.79 a 40.12,40.12 0 0 1 -40,40 H 510 a 40.12,40.12 0 0 0 -40,40 v 440.22"
            stroke-miterlimit="10"
            id="path234"
            inkscape:connector-curvature="0"
            style="fill:none;stroke:#c1282e;stroke-width:30;stroke-miterlimit:10" />
          <path
            d="m 643,1287.62 v 76 a 40.12,40.12 0 0 1 -40,40 H 486.19 a 40.12,40.12 0 0 0 -40,40 v 494"
            stroke-miterlimit="10"
            id="path236"
            inkscape:connector-curvature="0"
            style="fill:none;stroke:#c1282e;stroke-width:20;stroke-miterlimit:10" />
          <path
            d="m 567.51,1287.62 v 40.9 a 40.12,40.12 0 0 1 -40,40 h -54.2 a 40.12,40.12 0 0 0 -40,40 v 529.11"
            stroke-miterlimit="10"
            id="path238"
            inkscape:connector-curvature="0"
            style="fill:none;stroke:#c1282e;stroke-width:10;stroke-miterlimit:10" />
          <path
            d="m 498.43,1287.62 -4.1,18.48 c -2.25,10.16 -18.39,18.47 -35.86,18.47 -17.47,0 -31.76,18 -31.76,40 v 573.06"
            stroke-miterlimit="10"
            id="path240"
            inkscape:connector-curvature="0"
            style="fill:none;stroke:#c1282e;stroke-width:5;stroke-miterlimit:10" />
          <line
            x1="406.32001"
            y1="1937.63"
            x2="406.32001"
            y2="1287.62"
            stroke-miterlimit="10"
            id="line242"
            style="fill:none;stroke:#c1282e;stroke-width:36;stroke-miterlimit:10" />
          <text
            transform="translate(419,1809.68)"
            font-size="18"
            font-weight="700"
            id="text244"
            style="font-weight:700;font-size:18px;font-family:Roboto-Bold, Roboto;fill:#ffffff">3 552 448</text>
          <text
            transform="translate(1129.55,589.87)"
            font-size="18"
            font-weight="700"
            id="text246"
            style="font-weight:700;font-size:18px;font-family:Roboto-Bold, Roboto">123 000</text>
          <text
            transform="translate(1129.55,566.98)"
            font-size="18"
            id="text252"
            style="font-size:18px;font-family:Roboto-Regular, Roboto">Country
    </text>
          <text
            transform="translate(896.37,589.87)"
            font-size="18"
            font-weight="700"
            id="text254"
            style="font-weight:700;font-size:18px;font-family:Roboto-Bold, Roboto">123 000</text>
          <text
            transform="translate(896.37,566.98)"
            font-size="18"
            id="text260"
            style="font-size:18px;font-family:Roboto-Regular, Roboto">Country
    </text>
          <text
            transform="translate(660.38,632.94)"
            font-size="18"
            font-weight="700"
            id="text262"
            style="font-weight:700;font-size:18px;font-family:Roboto-Bold, Roboto">123 000</text>
          <text
            transform="translate(660.38,610.06)"
            font-size="18"
            id="text268"
            style="font-size:18px;font-family:Roboto-Regular, Roboto">Country
    </text>
          <text
            transform="translate(310.14,777.16)"
            font-size="18"
            font-weight="700"
            id="text270"
            style="font-weight:700;font-size:18px;font-family:Roboto-Bold, Roboto">123 000</text>
          <text
            transform="translate(312.91,754.28)"
            font-size="18"
            id="text276"
            style="font-size:18px;font-family:Roboto-Regular, Roboto">Country
    </text>
          <text
            transform="translate(406.32,876.43)"
            font-size="18"
            font-weight="700"
            id="text278"
            style="font-weight:700;font-size:18px;font-family:Roboto-Bold, Roboto">123 000</text>
          <text
            transform="translate(409.1,853.54)"
            font-size="18"
            id="text284"
            style="font-size:18px;font-family:Roboto-Regular, Roboto">Country
    </text>
          <text
            transform="translate(477.49,977.56)"
            font-size="18"
            font-weight="700"
            id="text286"
            style="font-weight:700;font-size:18px;font-family:Roboto-Bold, Roboto">123 000</text>
          <text
            transform="translate(480.27,954.68)"
            font-size="18"
            id="text292"
            style="font-size:18px;font-family:Roboto-Regular, Roboto">Country
    </text>
          <text
            transform="translate(723.67,895.03)"
            font-size="18"
            font-weight="700"
            id="text294"
            style="font-weight:700;font-size:18px;font-family:Roboto-Bold, Roboto">123 000</text>
          <text
            transform="translate(723.67,872.15)"
            font-size="18"
            id="text300"
            style="font-size:18px;font-family:Roboto-Regular, Roboto">Country
    </text>
          <text
            transform="translate(670.29,1081.39)"
            font-size="18"
            font-weight="700"
            id="text302"
            style="font-weight:700;font-size:18px;font-family:Roboto-Bold, Roboto">123 000</text>
          <text
            transform="translate(670.29,1058.5)"
            font-size="18"
            id="text308"
            style="font-size:18px;font-family:Roboto-Regular, Roboto">Count<tspan
      x="48.16"
      y="0"
      letter-spacing="0.01em"
      id="tspan304"
      style="letter-spacing:0.01em">r</tspan>
    <tspan
      x="54.619999"
      y="0"
      id="tspan306">y</tspan>
    </text>
          <text
            transform="translate(864.29,1796.05)"
            font-size="18"
            font-weight="700"
            id="text310"
            style="font-weight:700;font-size:18px;font-family:Roboto-Bold, Roboto">123 000</text>
          <text
            transform="translate(851.83,1748.23)"
            font-size="18"
            id="text318"
            style="font-size:18px;font-family:Roboto-Regular, Roboto">not conflict<tspan
      x="12.63"
      y="21.6"
      id="tspan312">af</tspan>
    <tspan
      x="28.450001"
      y="21.6"
      letter-spacing="-0.01em"
      id="tspan314"
      style="letter-spacing:-0.01em">f</tspan>
    <tspan
      x="34.169998"
      y="21.6"
      id="tspan316">ected</tspan>
    </text>
          <path
            d="m 438.5,1937.63 v 79.48 a 40.12,40.12 0 0 1 -40,40 h -13.12 a 40.12,40.12 0 0 0 -40,40 v 138.19"
            stroke-miterlimit="10"
            id="path320"
            inkscape:connector-curvature="0"
            style="fill:none;stroke:#c1272d;stroke-width:100;stroke-miterlimit:10" />
          <path
            d="m 517.72,1937.63 v 79.48 a 40.12,40.12 0 0 0 40,40 h 27.77 a 40.12,40.12 0 0 1 40,40 v 528.18 a 40.12,40.12 0 0 1 -40,40 h -18.66 a 40.12,40.12 0 0 0 -40,40 v 84.85"
            stroke-miterlimit="10"
            id="path322"
            inkscape:connector-curvature="0"
            style="fill:none;stroke:#c1272d;stroke-width:60;stroke-miterlimit:10" />
          <path
            d="m 982.4,1937.63 v 355.23 a 40.12,40.12 0 0 0 40,40 h 557.84"
            stroke-miterlimit="10"
            id="path324"
            inkscape:connector-curvature="0"
            style="fill:none;stroke:#fbaf17;stroke-width:250;stroke-miterlimit:10" />
          <path
            d="m 345.38,2221.3 v 71.56 a 40.12,40.12 0 0 1 -40,40 H -97.95"
            stroke-miterlimit="10"
            id="path326"
            inkscape:connector-curvature="0"
            style="fill:none;stroke:#c1272d;stroke-width:100;stroke-miterlimit:10" />
          <text
            transform="translate(439.85,1761.72)"
            font-size="18"
            id="text334"
            style="font-size:18px;font-family:Roboto-Regular, Roboto;fill:#ffffff">conflict<tspan
      x="-2.8699999"
      y="21.6"
      id="tspan328">af</tspan>
    <tspan
      x="12.96"
      y="21.6"
      letter-spacing="-0.01em"
      id="tspan330"
      style="letter-spacing:-0.01em">f</tspan>
    <tspan
      x="18.67"
      y="21.6"
      id="tspan332">ected</tspan>
    </text>
          <path
            d="m 788.53,1937.63 v 722.66 a 5,5 0 0 0 5,5 h 249.58 a 5,5 0 0 1 5,5 v 119.85"
            stroke-miterlimit="10"
            id="path336"
            inkscape:connector-curvature="0"
            style="fill:none;stroke:#fbaf17;stroke-width:150;stroke-miterlimit:10" />
          <text
            transform="translate(564.17,2357.45)"
            font-size="18"
            id="text346"
            style="font-size:18px;font-family:Roboto-Regular, Roboto">conflict <tspan
      x="64.839996"
      y="0"
      letter-spacing="-0.01em"
      id="tspan338"
      style="letter-spacing:-0.01em">r</tspan>
    <tspan
      x="70.970001"
      y="0"
      id="tspan340">elated</tspan>
    <tspan
      x="11.43"
      y="21.6"
      id="tspan342">experienced</tspan>
    <tspan
      x="24.610001"
      y="43.200001"
      id="tspan344">violence</tspan>
    </text>
          <text
            transform="translate(739.69,2357.45)"
            font-size="18"
            id="text350"
            style="font-size:18px;font-family:Roboto-Regular, Roboto">experienced<tspan
      x="13.18"
      y="21.6"
      id="tspan348">violence</tspan>
    </text>
          <text
            transform="translate(592.27,2433.54)"
            font-size="18"
            font-weight="700"
            id="text352"
            style="font-weight:700;font-size:18px;font-family:Roboto-Bold, Roboto">271 287</text>
          <path
            d="m 1372.6,515.07 c 0,0 13.07,10.4 16.67,26.23 3.6,15.83 7.2,32.37 5.76,48.57 -1.44,16.2 -2.16,39.73 -2.16,43.07 0,3.34 -20.27,38.75 -20.27,38.75 l -7.8,181.85 3.86,133.74 7.26,8.38 c 0,0 50,21.32 56.53,24.19 6.53,2.87 15.11,17.28 19.43,28.07 4.32,10.79 3.6,9.36 8.63,45.34 5.03,35.98 7.2,47.49 7.2,47.49 0,0 34.54,9.36 36.7,10.08 2.16,0.72 -9.35,-15.83 7.2,3.6 16.55,19.43 45.33,23 45.33,23 l 23.3,6.48 V 309.57 h -204.32 z"
            id="path3576"
            inkscape:connector-curvature="0"
            style="fill:#dbdbd7" />
        </g>
      </g>
    </svg>