<svg xmlns="http://www.w3.org/2000/svg" width="3338" height="1195" viewBox="0 0 3338 1195"><title>OSCE_map_borderless</title><g id="b299414e-25c0-4b01-a28b-8c8d4809ea94" data-name="borderless"><path d="M2151.41,988.51a23.61,23.61,0,0,0,4.59-6.31c.58-1.53-1.25-5.08-1.48-5.32a17.32,17.32,0,0,0-3.21-1.48c-1.52-.58-6.47,2.65-8.42,4.59L2125,997.9a55.41,55.41,0,0,1-7.74,6.25,8.62,8.62,0,0,1-4.32,1.12,13.85,13.85,0,0,0-8.4,3.7,10,10,0,0,1-4.25,2.56,45.82,45.82,0,0,1-8.49,1.14,18.52,18.52,0,0,0-6.33,1.22c-1.48.67-2.7,6-2.7,8.14a19.55,19.55,0,0,1-1.22,6.64c-.67,1.49-5.56,2.71-7.22,2.71a28,28,0,0,0-7.71,1.74s-.73.27-.73,2.72a6,6,0,0,1-1.16,3.78c-1.81,2.08-3.47,3.9-3.69,4.06s.87,1.55,2.81,3.5l10.52,10.51a23.3,23.3,0,0,0,6.31,4.59c1.53.58,5.4-1.57,6-2.2a49.57,49.57,0,0,1,5.33-3.88,8.28,8.28,0,0,1,4.18-1.1,8.29,8.29,0,0,0,4.18-1.09,58.9,58.9,0,0,0,7.72-6.27l7.57-7.56a76.61,76.61,0,0,0,6.45-7.6,5.78,5.78,0,0,0,.91-3.11c0-1.84.6-2,.6-2a50.28,50.28,0,0,1,5.61-1.33c.44,0,3-.53,5.66-1.17a10.16,10.16,0,0,0,4.33-2.62c2.08-2.08,1.75-2.94,1.75-2.94a23.43,23.43,0,0,0-3.38-6.25,14.87,14.87,0,0,1-2.64-4.36c-.58-1.53,2.65-6.48,4.59-8.42Z" fill="#dbdbd7"/><path d="M941.51,754.44c-.21-.21-1.24-1.79-2.29-3.52s-1.92-8.36-1.92-11.11v-1a34,34,0,0,0-1.71-9.7s-.26-.72-2.67-.72-2.68.72-2.68.72a34,34,0,0,0-1.71,9.7v1a23.56,23.56,0,0,1-1.21,7.71c-.68,1.49-5.65,2.7-7.42,2.7s-4.87,1.59-6.82,3.54l-10.89,10.89a23.52,23.52,0,0,0-4.59,6.31c-.58,1.53,2.65,6.47,4.59,8.42l.42.42A23.61,23.61,0,0,1,907.2,786c.58,1.53-1.59,5.42-2.24,6.08a13.69,13.69,0,0,0-2.25,4c-.58,1.52,1.21,5,1.39,5.22s1.21,1.75,2.26,3.48,1.91,6.24,1.91,6.39.39,1.9.87,3.86,4.21,6.92,5.73,8.44a19.33,19.33,0,0,0,5.55,3.83c1.52.57,6.47-2.65,8.41-4.59l.51-.51a44.26,44.26,0,0,0,5.45-6.67c1.05-1.72,1.92-8.36,1.92-11.11v-.28a44.36,44.36,0,0,1,.86-8.57c.47-2,3.27-6,3.65-6.36a33.89,33.89,0,0,0,2.59-3.81c1.06-1.72,1.92-8.36,1.92-11.11v-5.22a45.16,45.16,0,0,0-.86-8.57C944.39,758.54,941.73,754.65,941.51,754.44Z" fill="#dbdbd7"/><path d="M1760.11,1108.67a9.94,9.94,0,0,0-4.84,1.2,46.63,46.63,0,0,0-7.07,5.44,19.79,19.79,0,0,1-5.58,3.86c-1.53.58-5.79-2-6.9-3.06a32.86,32.86,0,0,0-5.14-3.92c-1.72-1.06-8.36-1.92-11.11-1.92h-8.7a45.16,45.16,0,0,0-8.57.86c-2,.48-6.61,3.9-7.75,5a34,34,0,0,1-5.2,4c-1.72,1-8.36,1.91-11.11,1.91h-2.63a45.16,45.16,0,0,1-8.57-.86c-2-.47-5.77-3.06-5.88-3.17s-1.62-1.07-3.34-2.12-8.37-1.92-11.12-1.92H1638a23.53,23.53,0,0,0-7.71,1.22c-1.49.67-2.71,6-2.71,8.25a20,20,0,0,0,1.22,6.77c.67,1.49,6.45,2.71,9.2,2.71h45.11a31.09,31.09,0,0,1,9.64,1.85s.77.31.77,3,.77,3,.77,3a25.92,25.92,0,0,0,6.79,1.85,30.94,30.94,0,0,0,5.71-.86c2-.47,6.78-4.08,8.14-5.43a36.24,36.24,0,0,1,5.6-4.38c1.72-1.06,8.36-1.92,11.11-1.92h5.5a55.52,55.52,0,0,0,9.88-1.07,8.81,8.81,0,0,0,3.91-2.31,8.84,8.84,0,0,1,3.91-2.3c2.69-.59,5-1.07,5-1.07s1.36-.55,2.85-1.22,2.7-5,2.7-6a24.19,24.19,0,0,0-2-6.44S1763,1108.67,1760.11,1108.67Z" fill="#dbdbd7"/><path d="M1635.78,964.9a13.71,13.71,0,0,0,4.08,1.22,27.12,27.12,0,0,0,6-1.9s.78-.32.78-3a9.16,9.16,0,0,0-1.15-4.53,54,54,0,0,0-6.21-7.76l-13.64-13.64a44.26,44.26,0,0,0-6.67-5.45c-1.72-1-6.4-1.92-6.75-1.92A37.58,37.58,0,0,1,1608,927c-2-.47-5.93-3.22-6.24-3.53s-2-1.58-3.65-2.82-7.85-3.62-10.17-4.29a7.14,7.14,0,0,0-6.51,1.47,15.85,15.85,0,0,0-3.17,4.39c-.39,1,2.63,1.92,3.06,1.92a35.27,35.27,0,0,1,4.34.86c2,.47,7.27,4.56,9.21,6.5l1.52,1.52a45.4,45.4,0,0,0,6.67,5.45c1.73,1,7.12,1.91,8.36,1.91a31.13,31.13,0,0,1,5.81.87c2,.47,7.1,4.39,8.84,6.13a41.49,41.49,0,0,1,5.07,6.29c1.06,1.72,1.92,6.31,1.92,6.56S1634.29,964.23,1635.78,964.9Z" fill="#dbdbd7"/><path d="M1206.09,1068.16a27.8,27.8,0,0,1-5.32-8.21s-.33-.87,1.77-3a10.3,10.3,0,0,0,2.65-4.38,42.49,42.49,0,0,0,1.17-7,31.66,31.66,0,0,1,.86-5.72c.47-2,3.39-6.09,3.89-6.6a32.22,32.22,0,0,0,2.85-4.06c1-1.72,1.91-8.1,1.91-10.52a21.24,21.24,0,0,0-1.22-7.12c-.67-1.49-4.55-2.71-5-2.71s-3,.52-5.67,1.14a9.89,9.89,0,0,0-4.23,2.54,9.71,9.71,0,0,1-4.22,2.54,52,52,0,0,1-9.87,1.14h-.42a44.19,44.19,0,0,0-8.56.87c-2,.47-6.6,3.88-7.72,5a33.12,33.12,0,0,1-5.17,3.95c-1.72,1.06-8.36,1.92-11.11,1.92h-14.92a45.16,45.16,0,0,1-8.57-.86c-2-.48-6.19-3.49-6.83-4.12a29.88,29.88,0,0,0-4.28-3.07c-1.73-1-6.56-1.92-7.1-1.92a32.74,32.74,0,0,0-4.56.87c-2,.47-6.9,4.18-8.38,5.67a38,38,0,0,1-5.84,4.62c-1.73,1-7.73,1.91-9.72,1.91a18.12,18.12,0,0,0-6.27,1.22c-1.48.67-2.57,5.48-2.54,7A12.2,12.2,0,0,0,1077,1046l8.13,8.12a23.3,23.3,0,0,0,6.31,4.59c1.52.58,5.28-1.45,5.77-1.94a13.75,13.75,0,0,1,3.67-2c1.53-.58,6.47,2.65,8.42,4.59l21.37,21.37a23.3,23.3,0,0,0,6.31,4.59c1.53.58,6.41-2.58,8.27-4.44a22.69,22.69,0,0,1,6.17-4.45c1.53-.57,6.47,2.65,8.42,4.59l8.6,8.6a43.77,43.77,0,0,0,6.67,5.45c1.72,1.05,8.36,1.92,11.11,1.92h9.3a44.39,44.39,0,0,0,8.57-.87c2-.47,7.21-4.51,9.1-6.39a22.9,22.9,0,0,0,4.48-6.2c.58-1.53-2.65-6.47-4.59-8.42Z" fill="#dbdbd7"/><path d="M933.41,870.07A43.77,43.77,0,0,1,928,863.4c-1.06-1.72-1.92-7.28-1.92-8.72a32.87,32.87,0,0,0-.86-6.18c-.47-2-3.48-6.19-4.11-6.81a13.71,13.71,0,0,0-3.91-2.2c-1.53-.58-6.47,2.65-8.42,4.59L902.83,850a44.26,44.26,0,0,1-6.67,5.45c-1.72,1-8.36,1.92-11.11,1.92h-1a23.5,23.5,0,0,0-7.7,1.21c-1.49.67-2.71,6-2.71,8.15a39,39,0,0,0,.86,7.52c.48,2,4.51,7.22,6.4,9.11a13.67,13.67,0,0,1,3.43,8.43v32.37a45.25,45.25,0,0,1-.86,8.57c-.47,2-3.61,6.31-4.39,7.1a29.91,29.91,0,0,0-3.34,4.56c-1.06,1.72-1.92,8.36-1.92,11.11v5.35a45.16,45.16,0,0,0,.86,8.57c.48,2,3.12,5.82,3.3,6s1.73,1.19,3.46,2.24,8.36,1.92,11.11,1.92h3.92a23.42,23.42,0,0,0,7.7-1.22c1.49-.67,2.71-6.45,2.71-9.2v-3.53a23.53,23.53,0,0,1,1.22-7.71c.67-1.49,6.45-2.71,9.2-2.71h.95a45.16,45.16,0,0,0,8.57-.86c2-.47,6.49-3.78,7.49-4.78a32,32,0,0,0,3.72-4.94c1-1.72,1.91-8.36,1.91-11.11V919.37a44.36,44.36,0,0,0-.86-8.57c-.47-2-3.5-6.21-4.15-6.86a13.83,13.83,0,0,1-2.24-4c-.58-1.52,2.64-6.47,4.58-8.41l1.42-1.42a23.61,23.61,0,0,0,4.59-6.31c.58-1.53-2.64-6.48-4.59-8.42Z" fill="#dbdbd7"/><path d="M413.22,157.17a40.86,40.86,0,0,0-.86,7.86,20.8,20.8,0,0,0,1.22,7c.67,1.49,6.45,2.71,9.2,2.71h8.79a45.16,45.16,0,0,1,8.57.86c2,.47,7.26,4.56,9.21,6.5l10.81,10.81a44.85,44.85,0,0,0,6.66,5.45c1.73,1.05,8.37,1.91,11.12,1.91h5.72a22.29,22.29,0,0,1,6.85.87c1,.47-1.85,4.55-3.8,6.5l-9.78,9.79a46.06,46.06,0,0,1-6.67,5.45c-1.72,1-8.36,1.91-11.11,1.91H424.82a45.16,45.16,0,0,0-8.57.86c-2,.47-7.26,4.56-9.21,6.5l-5.7,5.7a22.68,22.68,0,0,0-4.23,5.45c-.38,1.06,4.53,1.92,7.28,1.92H609.61a19.86,19.86,0,0,0,9.19-2.73l6.35-4.66a21.07,21.07,0,0,0,6-4.46c.84-1.17-2.16-5.83-4.11-7.77l-3.65-3.66a23.46,23.46,0,0,1-4.59-6.31c-.58-1.53,2.64-6.47,4.59-8.42l35-35a23.84,23.84,0,0,0,4.59-6.31c.57-1.53-2.65-6.48-4.59-8.42l-20-20A23.84,23.84,0,0,0,632,132.9c-1.53-.58-6.48,2.65-8.42,4.59l-4.34,4.34a23.68,23.68,0,0,1-6.31,4.59c-1.53.58-6.47-2.65-8.42-4.59l-1.61-1.62a23.3,23.3,0,0,1-4.59-6.31c-.58-1.52,2.64-6.47,4.59-8.42l2.8-2.8a23.61,23.61,0,0,0,4.59-6.31c.58-1.53-1.67-5.5-2.42-6.25a30.84,30.84,0,0,1-3.27-4.49c-1.06-1.73-1.92-8.37-1.92-11.12V63.93a45.25,45.25,0,0,0-.86-8.57c-.47-2-4.56-7.26-6.5-9.21L579.75,30.58a46.06,46.06,0,0,1-5.45-6.67c-1-1.72-1.91-8.36-1.91-11.11V5a5,5,0,0,0-5-5H510.48a5,5,0,0,0-5,5V8.2a44.3,44.3,0,0,0,.87,8.57c.47,2,4.55,7.27,6.5,9.21l6.21,6.21a45.4,45.4,0,0,1,5.45,6.67c1,1.72,1.91,8.36,1.91,11.11V57.4a44.36,44.36,0,0,1-.86,8.57c-.47,2-4.56,7.27-6.5,9.21l-5.36,5.36A44.26,44.26,0,0,1,507,86c-1.72,1.05-8.36,1.92-11.11,1.92H451.38a23.56,23.56,0,0,0-7.71,1.21c-1.49.67-2.71,6.45-2.71,9.2v18a44.25,44.25,0,0,1-.86,8.56c-.47,2-4.56,7.27-6.5,9.22L419.73,148C417.78,149.9,413.7,155.2,413.22,157.17Z" fill="#dbdbd7"/><path d="M264.93,145a45.4,45.4,0,0,0,6.67,5.45c1.72,1.05,8.36,1.91,11.11,1.91h8.92a44.36,44.36,0,0,0,8.57-.86c2-.47,7.27-4.56,9.21-6.5l12.4-12.4a44.76,44.76,0,0,1,6.67-5.45c1.73-1.06,8.36-1.92,11.11-1.92h20.48a45.25,45.25,0,0,0,8.57-.86c2-.47,7.26-4.56,9.21-6.5l15.69-15.69A45.4,45.4,0,0,0,399,95.53c1.05-1.72,1.91-8.36,1.91-11.11V35a97.53,97.53,0,0,1,.62-10,4.15,4.15,0,0,1,1.1-2.17c.95-.95-.71-1.72-3.69-1.72a10.27,10.27,0,0,0,5-1.22,45.61,45.61,0,0,0,7-5.29,37.8,37.8,0,0,0,4.59-5.81c1.06-1.73,1.92-6.71,1.92-7.44S415.11,0,412.36,0H280.51c-2.75,0-5.76.76-6.67,1.67a15,15,0,0,0-2.73,4.45c-.57,1.53,2.55,6.38,4.38,8.2a22.26,22.26,0,0,1,4.37,6.1c.58,1.53-2.2,6-3.61,7.44a18.44,18.44,0,0,0-3.6,5.33c-.58,1.52,2.64,6.47,4.59,8.41l4.67,4.68a23.61,23.61,0,0,1,4.59,6.31c.58,1.53-2.64,6.48-4.59,8.42l-3.14,3.15a23.3,23.3,0,0,0-4.59,6.31c-.58,1.53,2.43,6.26,4.12,7.95a19.22,19.22,0,0,1,3.76,5c.38,1-4.53,1.91-7.28,1.91H264.45a45.25,45.25,0,0,0-8.57.86c-2,.48-6.53,3.83-7.59,4.89a32.53,32.53,0,0,0-3.83,5.05c-1.05,1.72-1.91,8.36-1.91,11.11v5a44.36,44.36,0,0,0,.86,8.57c.47,2,4.56,7.26,6.5,9.21Z" fill="#dbdbd7"/><path d="M1016.6,20.19c1.57-1.56,2.21-1.25,2.21-1.25a30.68,30.68,0,0,1,6.16,3.92,26.23,26.23,0,0,0,6.27,3.7s.74.33,2.56-1.49,1.49-2.56,1.49-2.56a31.72,31.72,0,0,0-2.69-5.26,14.29,14.29,0,0,1-1.73-3.45c-.57-1.53,2.65-6.47,4.59-8.42l1.8-1.8c2-1.94,1.29-3.54-1.46-3.54h-40c-2.75,0-3.41,1.6-1.46,3.54l12.1,12.1a36.74,36.74,0,0,0,8,5.77S1015,21.76,1016.6,20.19Z" fill="#dbdbd7"/><path d="M2007.33,962.1c2,.47,7.27,4.56,9.22,6.5l10,9.95a43.77,43.77,0,0,0,6.67,5.45c1.72,1.06,8.36,1.92,11.11,1.92h21.16a45.25,45.25,0,0,0,8.57-.86c2-.48,7.26-4.56,9.21-6.51l25.5-25.5,6.31-6.31,8.42-8.41,15.72-15.73a45,45,0,0,1,6.67-5.45c1.72-1,8.36-1.91,11.11-1.91h7.21a45.16,45.16,0,0,0,8.57-.86c2-.48,7.27-4.56,9.21-6.51L2194.86,895a23.61,23.61,0,0,1,6.31-4.59c1.53-.58,5.88,2,7.11,3.27a17,17,0,0,1,3.27,5c.58,1.53-2.64,6.47-4.59,8.42L2205,909a22.89,22.89,0,0,0-4.53,6.24c-.54,1.5,3,6.14,5,8l6.67,5.78c2.07,1.8,4.94,4.56,6.37,6.13a67.27,67.27,0,0,1,5.71,8.93c1,1.88,1.94,3.72,2.17,4.1a21.23,21.23,0,0,1,.76,6v5a13.89,13.89,0,0,1-3.54,8.54l-.43.43a13.91,13.91,0,0,0-3.53,8.53V990a13.93,13.93,0,0,0,3.53,8.54l8.68,8.68a13.86,13.86,0,0,1,3.54,8.53V1023a13.89,13.89,0,0,1-3.54,8.54l-8,8.05a13.91,13.91,0,0,0-3.54,8.54v67.37a13.93,13.93,0,0,1-3.53,8.54l-2.75,2.74a14,14,0,0,0-3.53,8.54v46.18a13.89,13.89,0,0,1-3.54,8.54l-4.92,4.92H3337.7V5a5,5,0,0,0-5-5H1343c-2.75,0-5,.39-5,.86a14.6,14.6,0,0,1-1.21,3.56c-.67,1.49-6.45,2.71-9.2,2.71h-17.9A23.53,23.53,0,0,0,1302,8.39c-1.49.67-2.71,5.66-2.71,7.44a25.43,25.43,0,0,0,2,7.86s.35.81,3.15.81,3.15.81,3.15.81a32.88,32.88,0,0,1,2,5.44,30.83,30.83,0,0,0,2,5.4s.38.85,3.36.85c-3,0-3.36.86-3.36.86a23.15,23.15,0,0,0-2,7.16,15.58,15.58,0,0,1-1.22,5.31c-.67,1.49-6.45,2.7-9.2,2.7h-43.38a23.56,23.56,0,0,1-7.71-1.21c-1.49-.67-2.71-5.89-2.71-8a18.91,18.91,0,0,0-1.21-6.46c-.67-1.49-6.45-2.71-9.2-2.71h-5.67a45.16,45.16,0,0,0-8.57.86c-2,.47-7.27,4.56-9.21,6.5l-5.66,5.66L1199.46,54c-1.52,1.53-6.47,6.47-8.42,8.42l-13.8,13.81a46.06,46.06,0,0,1-6.67,5.45c-1.73,1-8.36,1.91-11.11,1.91H1133.4a23.53,23.53,0,0,0-7.71,1.22c-1.49.67-2.7,5.66-2.7,7.44a17.34,17.34,0,0,1-1.22,6c-.67,1.49-4.6,2.71-5.08,2.71a29.88,29.88,0,0,0-5.44,2s-.86.39-.86,3.36c0-3-1.75-5.41-3.89-5.41a6.84,6.84,0,0,1-3.6-1,64.86,64.86,0,0,1-7.66-6.37l-10.75-10.75a23.3,23.3,0,0,1-4.59-6.31c-.58-1.53,2.42-6.25,4.1-7.93a20.63,20.63,0,0,0,4.1-5.83c.58-1.53-1.85-5.68-2.82-6.66a15.34,15.34,0,0,0-4.56-2.83c-1.52-.58-6,2.2-7.42,3.6a37.33,37.33,0,0,1-5.67,4.45c-1.73,1.06-8.37,1.92-11.12,1.92h-6.69a44.25,44.25,0,0,0-8.56.86c-2,.47-7.27,4.56-9.21,6.5l-11.78,11.77a44.23,44.23,0,0,1-6.66,5.45c-1.73,1.06-8.37,1.92-11.12,1.92h-.57a23.53,23.53,0,0,1-7.71-1.22c-1.49-.67-2.7-6.12-2.7-8.47a20.73,20.73,0,0,0-1.22-7c-.67-1.49-6.45-2.71-9.2-2.71H969.82a23.53,23.53,0,0,1-7.71-1.22c-1.49-.67-2.71-6.44-2.71-9.19V56.82a45.05,45.05,0,0,0-.86-8.56c-.48-2-3.21-5.92-3.5-6.21l-.54-.54L951,38l-1-1a44.76,44.76,0,0,1-5.45-6.67c-1.06-1.72-1.92-8-1.92-10.38a19.13,19.13,0,0,1,.86-6.11c.48-1,4.56,1.85,6.51,3.79l6.67,6.68a46.06,46.06,0,0,0,6.67,5.45c1.72,1.05,7,1.91,8.09,1.91a14.3,14.3,0,0,0,4.68-1.22c1.49-.67,2.71-5.08,2.71-6.17a30.62,30.62,0,0,0-.87-5.54c-.47-2-4.55-7.27-6.5-9.21l-5.91-5.91A13.92,13.92,0,0,0,957,0H914.31c-2.75,0-4.8.69-4.55,1.54a53.78,53.78,0,0,1,.46,7.85V26.64a28,28,0,0,0,2,9.56s.39.86,3.37.86a34.7,34.7,0,0,0-5.42.21c0,.12.34.47.34.47,1.92,2,5.08,5.17,7,7.12l.81.81a44.26,44.26,0,0,1,5.45,6.67c1,1.72,1.92,8.36,1.92,11.11V76.76a44.3,44.3,0,0,1-.87,8.57c-.47,2-4.55,7.27-6.5,9.21l-12.79,12.79a23.3,23.3,0,0,1-6.31,4.59c-1.53.58-5.34-1.51-5.89-2.06a31,31,0,0,0-4.15-2.93c-1.72-1.05-8.36-1.91-11.11-1.91h-1.59a23.56,23.56,0,0,0-7.71,1.21c-1.49.67-2.71,6.45-2.71,9.2V117a45.16,45.16,0,0,1-.86,8.57c-.47,2-3.16,5.87-3.4,6.11s-1.61,2.36-3,4.7a10.33,10.33,0,0,0-1.22,5c0-3-.37-5-.83-4.58s-.8.18-.8.18c-2.12-1.75-4.43-3.75-5.13-4.45a31.14,31.14,0,0,0-4.4-3.18c-1.72-1-8.36-1.91-11.11-1.91H807.25a45.16,45.16,0,0,0-8.57.86c-2,.47-6.82,4.11-8.22,5.51l-5.31,5.32-8.42,8.41-6.17,6.17a45,45,0,0,0-5.45,6.67c-1.05,1.72-1.91,8.36-1.91,11.11v6.69a45.25,45.25,0,0,1-.86,8.57c-.48,2-4.56,7.26-6.51,9.21l-10.75,10.75a45,45,0,0,0-5.45,6.67c-1,1.72-1.91,8.06-1.91,10.44a26.06,26.06,0,0,0,2,8.9s.38.85,3.36.85a5.24,5.24,0,0,0-5.41,5c0,2.77-.8,3.1-.8,3.1a29.9,29.9,0,0,1-9.62,1.93h-21a45.05,45.05,0,0,0-8.56.86c-2,.48-7.27,4.56-9.22,6.5l-2.64,2.65a28,28,0,0,0-5.31,8.21s-.33.88,1.78,3a16.26,16.26,0,0,0-3-2.41,4.63,4.63,0,0,0-1.14-.51.73.73,0,0,0-.69.09,5.23,5.23,0,0,1-2.29.7l-1.17.18c-1.62.07-5.2.12-8,.12h-12.3a39.51,39.51,0,0,0-8.51.95l-1,1.44-.59.86a63.28,63.28,0,0,0-.34,7.16v19.43a70.28,70.28,0,0,1-.67,9.18l-1,2-.61,1.2c-.84,1-2.22,2.55-3.06,3.39L635,311.66c-.84.84-2,2-2.7,2.56l-.74.45a16.13,16.13,0,0,1-2.38,1.22l-1.67.69a78.49,78.49,0,0,1-8.28.44h-21a37,37,0,0,0-8.84,1.15l-.92,1.68-.42.77c-.13,1-.24,4.06-.24,6.81v5.16a43.72,43.72,0,0,1-.77,8.18l-1.2,1-.94.78a53.61,53.61,0,0,1-7.5.47h-5.16a78.49,78.49,0,0,1-8.28-.44l-1.67-.69q-.63-.25-1.23-.57l-1.2-.61c-1-.84-3.46-3.11-5.4-5.06l-18.4-18.4a69.43,69.43,0,0,0-7-6l-2.13-.69-1.28-.42c-1.32-.13-3.63-.24-5.14-.24a15.86,15.86,0,0,0-5.44,1.22c-1.49.67-2.71,6.45-2.71,9.2v43a65.4,65.4,0,0,1-.34,7.15l-.59.87-.31.42a5.68,5.68,0,0,1-.74.73l-.93.78a55.66,55.66,0,0,1-7.51.46H479.4a45.16,45.16,0,0,1-8.57-.86c-2-.47-7.24-4.53-9.15-6.44s-4.32-4.17-5.35-5l-1.19-.62-2-1a70.21,70.21,0,0,0-9.18-.68h-39a23.53,23.53,0,0,0-7.71,1.22c-1.48.67-2.7,6.45-2.7,9.2v18.55a42.89,42.89,0,0,0,.77,8.18l1.2,1,.94.77a53.61,53.61,0,0,0,7.5.47h23.33a64.79,64.79,0,0,1,9.92.93,18.78,18.78,0,0,1,2.41,1.41l.73.46c.65.56,2.78,2.62,4.72,4.56l25.26,25.26c1.94,1.94,4.22,4.37,5.06,5.4l.61,1.2a16.44,16.44,0,0,1,1,2.5l.42,1.28c.13,1.32.24,4.65.24,7.4v35.86a45.16,45.16,0,0,0,.86,8.57c.48,2,4.56,7.26,6.5,9.21L504.4,521a45.53,45.53,0,0,1,5.45,6.67c1,1.72,1.91,8.36,1.91,11.11v39.14a45.16,45.16,0,0,1-.86,8.57c-.47,2-4.56,7.27-6.5,9.21l-16.46,16.46a45.49,45.49,0,0,0-5.45,6.66c-1.05,1.73-1.91,8.36-1.91,11.11v38.7a23.53,23.53,0,0,1-1.22,7.71c-.67,1.49-4.5,2.71-4.87,2.71a34.86,34.86,0,0,0-5.23,2s-.86.38-.86,3.36c0-3-.85-3.36-.85-3.36a27.8,27.8,0,0,0-9.56-2H437.14a45.16,45.16,0,0,1-8.57-.86c-2-.48-7.27-4.56-9.21-6.51l-16.9-16.9a46.06,46.06,0,0,0-6.67-5.45c-1.72-1-8.36-1.91-11.11-1.91H325a45.16,45.16,0,0,1-8.57-.86c-2-.48-7.27-4.56-9.21-6.51l-6.46-6.45a43.77,43.77,0,0,0-6.67-5.45c-1.72-1.06-8.36-1.92-11.11-1.92h-47.5a44.44,44.44,0,0,1-8.57-.86c-2-.47-7.26-4.56-9.21-6.5l-6.6-6.61a46.06,46.06,0,0,0-6.67-5.45c-1.72-1-8.36-1.91-11.11-1.91H150.69a23.53,23.53,0,0,0-7.71,1.22c-1.48.67-2.7,6.44-2.7,9.19v17.52a44.25,44.25,0,0,0,.86,8.56c.47,2,3.12,5.84,3.31,6a17.7,17.7,0,0,1,1.41,3.12c.57,1.53-2.15,6-3.49,7.32a17.64,17.64,0,0,0-3.49,5.21c-.58,1.53,2,5.85,3.19,7a16.67,16.67,0,0,1,3.19,4.91c.58,1.53-2.14,6-3.47,7.3a20.21,20.21,0,0,0-3.81,6.24h3c-3,0-6.77,1.36-8.42,3a7.68,7.68,0,0,0-2,3.51,62.19,62.19,0,0,0-1,9.91v52a44.36,44.36,0,0,1-.86,8.57c-.47,2-4.56,7.27-6.5,9.21l-19.88,19.88a44.76,44.76,0,0,0-5.45,6.67c-1.06,1.73-1.92,8.36-1.92,11.11v7.82a44.44,44.44,0,0,1-.86,8.57c-.47,2-4.56,7.26-6.5,9.21L63.5,862a23.3,23.3,0,0,0-4.59,6.31c-.58,1.53,2.64,6.47,4.59,8.42l13.32,13.32a45,45,0,0,1,5.45,6.67c1,1.72,1.91,8.36,1.91,11.11V925.2a45.25,45.25,0,0,1-.86,8.57c-.47,2-4.56,7.26-6.5,9.21l-17.5,17.49a22.68,22.68,0,0,0-4.23,5.45c-.38,1.06,4.53,1.92,7.28,1.92h15a45.25,45.25,0,0,1,8.57.86c2,.47,7.26,4.56,9.21,6.5l1.38,1.39a45.53,45.53,0,0,0,6.67,5.45c1.72,1.05,8.36,1.91,11.11,1.91h7.85a27.8,27.8,0,0,0,9.56-2.05s.85-.39.85-3.36c0,3,.86,3.36.86,3.36a24.74,24.74,0,0,0,6,2.05,31.37,31.37,0,0,1,5,.86c2,.48,7.26,4.56,9.21,6.51l14.81,14.81a44.85,44.85,0,0,1,5.45,6.66c1,1.73,1.91,8.37,1.91,11.12v12.29a44.39,44.39,0,0,0,.87,8.57c.47,2,4.55,7.26,6.5,9.21l8.69,8.69a23.84,23.84,0,0,0,6.31,4.59c1.53.58,6.48-2.65,8.42-4.59l11.08-11.08a44.76,44.76,0,0,1,6.67-5.45c1.72-1.05,8.36-1.92,11.11-1.92h7.82a44.44,44.44,0,0,0,8.57-.86c2-.47,6.9-4.2,8.41-5.7a38.21,38.21,0,0,1,5.86-4.65c1.73-1,8.37-1.91,11.12-1.91H288.6a44.36,44.36,0,0,1,8.57.86c2,.47,7.27,4.56,9.21,6.5L309,1041a45,45,0,0,0,6.67,5.45c1.72,1,8.36,1.91,11.11,1.91H365a45.05,45.05,0,0,0,8.56-.86c2-.47,7.27-4.56,9.22-6.5L394,1029.81a44.23,44.23,0,0,1,6.66-5.45c1.73-1.06,8.36-1.92,11.11-1.92H433a23.47,23.47,0,0,0,7.7-1.22c1.49-.67,2.71-5.72,2.71-7.58a36.27,36.27,0,0,1,.86-7c.48-2,4.56-7.26,6.51-9.21l9.14-9.14a45,45,0,0,0,5.45-6.67c1.05-1.72,1.91-6.89,1.91-7.85a31.17,31.17,0,0,1,.86-5.32c.48-2,4.56-7.26,6.51-9.21l5-5a45.4,45.4,0,0,0,5.45-6.67c1.05-1.72,1.91-8.36,1.91-11.11V903.06a44.39,44.39,0,0,1,.87-8.57c.47-2,4.55-7.26,6.5-9.21l53-53a44.76,44.76,0,0,1,6.67-5.45c1.72-1.05,8.36-1.92,11.11-1.92h30.2a44.25,44.25,0,0,0,8.56-.86c2-.47,7.27-4.56,9.21-6.5l3.92-3.92a43.77,43.77,0,0,0,5.45-6.67c1.06-1.72,1.92-6.53,1.92-7a14.48,14.48,0,0,1,1.22-3.64c.67-1.49,6.42-2.71,9.15-2.71a44.06,44.06,0,0,0,8.52-.86c2-.47,7.27-4.56,9.21-6.5l2-2a44.26,44.26,0,0,0,5.45-6.67c1.05-1.72,1.92-8.36,1.92-11.11v-.65a60.84,60.84,0,0,0-1-9.9,7.73,7.73,0,0,0-2.05-3.55c-1.67-1.67-5.47-3-8.45-3,3,0,3.94-1.47,2.15-3.27a8.43,8.43,0,0,1-2.23-3.79,57.62,57.62,0,0,1-1-9.89V724.9a45.05,45.05,0,0,1,.86-8.56c.47-2,4.56-7.27,6.5-9.21l.51-.51a44.76,44.76,0,0,1,6.67-5.45c1.72-1.06,8.36-1.92,11.11-1.92h60.05a45.16,45.16,0,0,1,8.57.86c2,.48,7.26,4.56,9.21,6.51l16.67,16.67a44.76,44.76,0,0,0,6.67,5.45c1.73,1,8.36,1.92,11.11,1.92h2.93a44.39,44.39,0,0,0,8.57-.87c2-.47,7.26-4.55,9.21-6.5L828,703.16l6.31-6.31,6.41-6.42A32,32,0,0,1,845.4,687c1.72-1.06,6.23-1.92,6.39-1.92s2.32-.92,4.83-2.05c0,0,.85-.39.85-3.36,0,3,1.21,5.41,2.68,5.41a4.53,4.53,0,0,0,2.52-.8,90.18,90.18,0,0,0,7.51-6.56l4-4a44.76,44.76,0,0,1,6.67-5.45c1.72-1,6.82-1.92,7.69-1.92a30.2,30.2,0,0,0,5.14-.86c2-.47,7.27-4.56,9.21-6.5l2.29-2.28a51.53,51.53,0,0,1,7.79-6.17,10.42,10.42,0,0,1,9.71,0,51.53,51.53,0,0,1,7.79,6.17l14,14a43.77,43.77,0,0,0,6.67,5.45c1.72,1,7.77,1.92,9.8,1.92a18.64,18.64,0,0,1,6.39,1.21c1.49.68,2.71,6.45,2.71,9.2v20.2a45.16,45.16,0,0,0,.86,8.57c.48,2,4.56,7.27,6.51,9.21l20,20a53.87,53.87,0,0,1,6.18,7.78,9.59,9.59,0,0,1,1.18,4.7,9.52,9.52,0,0,0,1.18,4.69,53.26,53.26,0,0,0,6.19,7.78L1032.68,792a44.38,44.38,0,0,0,6.67,5.45c1.72,1.05,7.46,1.91,9.12,1.91a34.49,34.49,0,0,1,6.58.86c2,.48,7.27,4.56,9.21,6.51l14.64,14.64a45,45,0,0,0,6.67,5.45c1.72,1.05,8.36,1.91,11.11,1.91H1117a45.16,45.16,0,0,1,8.57.86c2,.48,7.26,4.56,9.21,6.5l18.34,18.34a44.26,44.26,0,0,0,6.67,5.45c1.72,1.06,7.72,1.92,9.7,1.92a18.38,18.38,0,0,1,6.29,1.22c1.49.67,2.71,6.44,2.71,9.19v9.18a23.53,23.53,0,0,0,1.22,7.71c.67,1.49,6.44,2.7,9.19,2.7h11.86a44.39,44.39,0,0,1,8.57.87c2,.47,7.26,4.55,9.21,6.5l4.17,4.17a45.49,45.49,0,0,1,5.45,6.66c1.05,1.73,1.91,8.37,1.91,11.12v7.26a45.05,45.05,0,0,0,.86,8.56c.48,2,4.56,7.27,6.5,9.22l13.11,13.1a23.84,23.84,0,0,1,4.59,6.31c.58,1.53-1.23,5.06-1.44,5.27s-1.79,1.24-3.52,2.3-6.54,1.91-7.08,1.91a14.33,14.33,0,0,0-3.67,1.22c-1.49.67-2.71,6.45-2.71,9.2v3.17a45.16,45.16,0,0,1-.86,8.57c-.48,2-4,6.71-5.27,8a46.42,46.42,0,0,0-5,6.54,9.59,9.59,0,0,0-1.18,4.7c0,2.81.81,3.15.81,3.15a24.83,24.83,0,0,0,7.62,2,34.39,34.39,0,0,0,6.58-.86c2-.48,7.27-4.56,9.21-6.51l10.3-10.29a46.06,46.06,0,0,0,5.45-6.67c1-1.72,1.91-8.16,1.91-10.66a42.3,42.3,0,0,1,.86-8.11c.48-2,4.56-7.27,6.51-9.21l1.61-1.61a52.21,52.21,0,0,1,7.78-6.19,9.52,9.52,0,0,1,4.69-1.18c2.81,0,3.16-.81,3.16-.81a26.94,26.94,0,0,0,1.95-8.64,39.37,39.37,0,0,0-.86-7.6c-.48-2-4.56-7.27-6.51-9.21l-19.23-19.23a23.7,23.7,0,0,1-4.59-6.32c-.58-1.52,2.65-6.47,4.59-8.41l17.19-17.19a44.76,44.76,0,0,1,6.67-5.45c1.72-1.06,8.36-1.92,11.11-1.92h1.64a45.16,45.16,0,0,1,8.57.86c2,.48,7.17,4.46,9,6.29a61.1,61.1,0,0,1,6.12,7.47,7.25,7.25,0,0,1,1,3.77c0,2.24.68,2.48.68,2.48a34,34,0,0,0,9,1.6,36.29,36.29,0,0,0,7.8-.95l1-1.44a3.35,3.35,0,0,0,.27-.45,4.63,4.63,0,0,0,.41-1l.16-.5c0-.61.09-3.35.09-6.1v-.62a44.3,44.3,0,0,0-.87-8.57c-.47-2-4.55-7.27-6.5-9.21l-7.74-7.74a44.76,44.76,0,0,0-6.67-5.45c-1.72-1.06-8.36-1.92-11.11-1.92h-9.81a45.16,45.16,0,0,1-8.57-.86c-2-.47-7.27-4.56-9.21-6.5l-11.32-11.32a44.76,44.76,0,0,0-6.67-5.45c-1.72-1.05-8.36-1.92-11.11-1.92h-21.56a23.56,23.56,0,0,1-7.71-1.21c-1.49-.67-2.71-6.25-2.71-8.75a41.57,41.57,0,0,1,.87-8.11c.47-2,3.19-5.9,3.48-6.19a15.74,15.74,0,0,0,1.56-3.28c.58-1.53-2-5.81-3.1-6.93a33.62,33.62,0,0,0-5.17-4c-1.73-1-8.37-1.91-11.12-1.91H1196a45.25,45.25,0,0,1-8.57-.86c-2-.48-7.26-4.56-9.21-6.51l-29.7-29.7-6.31-6.31-8.42-8.42-7.49-7.49a45,45,0,0,1-5.45-6.67c-1-1.72-1.91-7.69-1.91-9.63a18.17,18.17,0,0,0-1.22-6.23c-.67-1.49-5.55-2.71-7.21-2.71a34.39,34.39,0,0,1-6.58-.86c-2-.47-7.27-4.56-9.21-6.5l-33.53-33.54a43.77,43.77,0,0,1-5.45-6.67c-1.06-1.72-1.92-8.36-1.92-11.11v-5.72a70.29,70.29,0,0,1,.86-9.93,6.31,6.31,0,0,1,1.69-3,6.33,6.33,0,0,0,1.7-3.05,70,70,0,0,0,.86-9.92v-13.9a23.53,23.53,0,0,1,1.22-7.71c.67-1.49,4.7-2.71,5.31-2.71a31.49,31.49,0,0,0,4.68-.86c2-.47,7.27-4.56,9.22-6.5l5.24-5.24a43.77,43.77,0,0,1,6.67-5.45c1.72-1.06,6.33-1.92,6.6-1.92a42.74,42.74,0,0,0,5-2.05s.85-.38.85-3.36c0,3,1.7,5.41,3.78,5.41a6.61,6.61,0,0,1,3.5,1c2.26,1.56,4.16,2.9,4.23,3s1.17,2.11,2.45,4.54c0,0,.31.59-1.13,2s-.19,2.63,2.79,2.63a14.77,14.77,0,0,0-9.09,3.67c-2,2-1.69,2.85-1.69,2.85a29.2,29.2,0,0,0,5.38,8.19l6.27,6.26a23.52,23.52,0,0,0,6.31,4.59c1.53.58,6.47-2.65,8.42-4.59l2.11-2.11a23.52,23.52,0,0,1,6.31-4.59c1.53-.58,6.47,2.65,8.42,4.59l.33.34a43.77,43.77,0,0,1,5.45,6.67c1.06,1.72,1.92,8.36,1.92,11.11v4a45.16,45.16,0,0,0,.86,8.57c.47,2,4.56,7.27,6.5,9.21l39.34,39.34a45,45,0,0,0,6.67,5.45c1.72,1,8.26,1.91,10.88,1.91a43.77,43.77,0,0,1,8.35.86c2,.48,7.27,4.56,9.21,6.51l26.2,26.2a30.49,30.49,0,0,0,8.16,5.45s.79.33,2.73-1.61c-1.94,1.94-1.61,2.73-1.61,2.73a37.21,37.21,0,0,0,2.4,5.1,36.15,36.15,0,0,0,5.12,2.32s.84.34,2.86-1.68a5,5,0,0,0-.31,7,8.67,8.67,0,0,0,3.9,2.3,55.52,55.52,0,0,0,9.88,1.07h14.54a24.56,24.56,0,0,0,8.69-1.72l-2.1-2.11c2.1,2.11,5.54,3.83,7.63,3.83a6.7,6.7,0,0,1,3.53,1,66.5,66.5,0,0,1,7.65,6.38l22.78,22.78a24.8,24.8,0,0,0,7.36,4.93v-3c0,3,1.29,6.7,2.85,8.26a7.14,7.14,0,0,1,1.91,3.35,64.55,64.55,0,0,1,.94,9.91v22.38a44.36,44.36,0,0,0,.86,8.57c.47,2,4.56,7.26,6.5,9.21l.89.89a44.26,44.26,0,0,1,5.45,6.67c1.06,1.72,1.92,8.36,1.92,11.11v6.09a45.16,45.16,0,0,0,.86,8.57c.47,2,4.56,7.27,6.5,9.21L1428,908.16l5.18,5.19.11.11,2.36,2.36,7.07,7.07,3.89,3.89a45,45,0,0,0,6.67,5.45c1.72,1,8.36,1.91,11.11,1.91h3.82a23.42,23.42,0,0,1,7.7,1.22c1.49.67,2.71,4.59,2.71,5.07a35.44,35.44,0,0,0,.86,4.44c.48,2,4.44,7.14,6.23,8.93a41.93,41.93,0,0,0,6.4,5.18c1.72,1,8.36,1.91,11.11,1.91h53.52a44.3,44.3,0,0,1,8.57.87c2,.47,6.56,3.85,7.64,4.93a16,16,0,0,1,3,4.74c.58,1.53-1.5,5.32-2,5.86a33.14,33.14,0,0,1-4.11,2.89c-1.72,1.05-8.36,1.91-11.11,1.91h-6.87a45.25,45.25,0,0,1-8.57-.86c-2-.47-6-3.32-6.46-3.76a33.74,33.74,0,0,0-3.92-2.7c-1.72-1-8.12-1.91-10.59-1.91a41.9,41.9,0,0,0-8,.86c-2,.47-7.27,4.56-9.21,6.5l-9,9a23.48,23.48,0,0,0-4.59,6.32c-.58,1.52,2.64,6.47,4.59,8.41l14.94,14.95a43.77,43.77,0,0,1,5.45,6.67c1.06,1.72,1.92,7.38,1.92,8.94a32.89,32.89,0,0,0,.86,6.39c.47,2,4.56,7.27,6.5,9.21l.11.11a58.73,58.73,0,0,0,7.71,6.28,8.09,8.09,0,0,0,4.11,1.09c2.44,0,2.71-.73,2.71-.73a28.69,28.69,0,0,0,1.74-8,15.05,15.05,0,0,1,.86-5.17c.47-1,4.56,1.85,6.5,3.8l12.31,12.3a80.77,80.77,0,0,0,7.55,6.52,5.08,5.08,0,0,0,2.78.85c1.63,0,1.77-.56,1.77-.56a41,41,0,0,0,1.2-7.36,12.41,12.41,0,0,1,.86-4.34c.47-1,4.56,1.85,6.5,3.8l2.75,2.74a29,29,0,0,0,8.17,5.4s.83.33,2.82-1.66,1.66-2.82,1.66-2.82a27.22,27.22,0,0,0-5-7.73,41.71,41.71,0,0,1-5-6.23c-1-1.72-1.91-8.36-1.91-11.11v-1.92a45.16,45.16,0,0,0-.86-8.57c-.48-2-4.56-7.27-6.51-9.21L1575,1014a23,23,0,0,1-4.23-5.45c-.38-1.05,3.3-1.92,4.54-1.92h16.89a19.18,19.18,0,0,0,6.53-1.21c1.49-.67,2.71-4.32,2.71-4.47a27.06,27.06,0,0,0-1.22-3c-.67-1.49-5.92-2.71-8-2.71a19.12,19.12,0,0,1-6.52-1.22c-1.49-.67-2.71-5-2.71-6a31.06,31.06,0,0,1,.86-5.41c.48-2,3.4-6.11,3.92-6.63a13.94,13.94,0,0,1,3.73-2c1.53-.58,6.47,2.64,8.42,4.58l8,8a23.24,23.24,0,0,0,6.31,4.58c1.53.58,6.47-2.64,8.42-4.58l1.1-1.1a23.77,23.77,0,0,0,4.58-6.31c.58-1.53-2.64-6.48-4.58-8.42l-10.66-10.66-6.32-6.31-6-6a31.57,31.57,0,0,0-4.25-3c-1.73-1-8.36-1.92-11.11-1.92h-4.56a44.36,44.36,0,0,1-8.57-.86c-2-.47-7.27-4.56-9.21-6.5l-2.25-2.25a23.61,23.61,0,0,1-4.59-6.31c-.58-1.53,1.89-5.72,2.91-6.74a15.77,15.77,0,0,0,2.91-4.64c.58-1.52-1.78-5.61-2.66-6.49a14.8,14.8,0,0,1-2.67-4.39c-.58-1.53,1.11-4.94,1.18-5s1.38-.6,2.91-1.18,5.6,1.78,6.49,2.67a26.84,26.84,0,0,0,6.19,3.63s.73.32,2.55-1.49,1.48-2.55,1.48-2.55a32,32,0,0,0-5.55-8.11l-29.78-29.79a44.23,44.23,0,0,1-5.45-6.66c-1.06-1.73-1.92-8.37-1.92-11.12v-1.59a45.25,45.25,0,0,1,.86-8.57c.48-2,3.77-6.47,4.75-7.45a15.36,15.36,0,0,1,4.55-2.83c1.53-.57,5.14,1.32,5.46,1.63a35.62,35.62,0,0,1,2.49,3.71c1,1.73,1.91,6.77,1.91,7.56a13.75,13.75,0,0,0,1.22,4.16c.67,1.49,4.29,2.71,4.39,2.71s1.42.55,2.91,1.22,2.7,5.19,2.7,6.42a14.74,14.74,0,0,0,1.22,4.93c.67,1.49,5.48,2.71,7,2.71a37.94,37.94,0,0,0,7.67-1.31s.59-.17.59-2-1.4-4.67-3.12-6.39-2-4.2-.7-5.53,1.88-1,1.88-1a43.37,43.37,0,0,1,7.9,6l1.33,1.33a33.18,33.18,0,0,0,8.09,5.61s.71.32,2.47-1.44,1.44-2.47,1.44-2.47a33.18,33.18,0,0,0-5.61-8.09l-3.2-3.2a53.31,53.31,0,0,1-6.19-7.77s-.29-.47.78-1.54,1.54-.78,1.54-.78a53.31,53.31,0,0,1,7.77,6.19l2.58,2.58a34.88,34.88,0,0,0,8,5.68s.68.32,2.35-1.36,1.36-2.35,1.36-2.35a34.88,34.88,0,0,0-5.68-8l-9.59-9.6-7.08-7.07-3.87-3.88c-2-2-2.43-4.74-1-6.15s2-1.11,2-1.11a52.23,52.23,0,0,1,4.86,2.82,16.37,16.37,0,0,0,3.24,1.51c1.52.58,6.47-2.64,8.41-4.59l7.88-7.88a38.75,38.75,0,0,1,8-5.82s.61-.31,2.11,1.19,2.11,1.19,2.11,1.19a37.22,37.22,0,0,0,7.71-5.56,43.18,43.18,0,0,1,6.4-5.18c1.72-1,8.36-1.91,11.11-1.91h21.89a89.72,89.72,0,0,1,10,.67s.46.06.46,1,1.72-.09,3.82-2.19a15.06,15.06,0,0,0-3.82,9.24c0,3,.85,3.36.85,3.36a24,24,0,0,0,7.86,2,35.85,35.85,0,0,0,6.88-.86c2-.48,6.82-4.12,8.23-5.52a18.28,18.28,0,0,1,5.33-3.61c1.52-.58,5.29,1.47,5.8,2a13.44,13.44,0,0,1,2,3.7c.58,1.53-2.64,6.47-4.58,8.42l-5.76,5.76a41,41,0,0,0-5.92,7.93s-.31.57,1.08,1.95,2,1.08,2,1.08a41.57,41.57,0,0,0,7.93-5.92l11.39-11.4,6.32-6.31,7.88-7.88a40.21,40.21,0,0,0,4.91-6.13c1.06-1.72,1.92-7.88,1.92-10.05a19.57,19.57,0,0,1,1.22-6.65c.67-1.48,6.44-2.7,9.19-2.7h.85a45.25,45.25,0,0,0,8.57-.86c2-.48,6.82-4.12,8.22-5.53a37.42,37.42,0,0,1,5.69-4.46c1.73-1.06,8.36-1.92,11.11-1.92h5a23.53,23.53,0,0,0,7.71-1.22c1.49-.67,2.71-4.76,2.71-5.46a13.74,13.74,0,0,0-1.22-4c-.67-1.49-6.45-2.71-9.2-2.71h-8.26a45.16,45.16,0,0,1-8.57-.86c-2-.48-7.27-4.56-9.21-6.5l-12-12a50.32,50.32,0,0,0-7.8-6.14,10.32,10.32,0,0,0-5-1.22,45.17,45.17,0,0,0,5.27-.15l-.44-.43c-1.94-1.95-5.13-5.13-7.07-7.07l-6.35-6.35a44.76,44.76,0,0,1-5.45-6.67c-1.06-1.73-1.92-8.36-1.92-11.11V669a45.05,45.05,0,0,1,.86-8.56c.48-2,3.59-6.29,4.34-7.05a30.41,30.41,0,0,0,3.28-4.5c1-1.72,1.92-8.36,1.92-11.11V623.91a23.5,23.5,0,0,1,1.21-7.7c.67-1.49,4.64-2.71,5.17-2.71a14.21,14.21,0,0,0,3.67-1.22c1.49-.67,2.71-6.11,2.71-8.45a25.79,25.79,0,0,0-2-8.81s-.38-.86-3.36-.86c3,0,3.36-.85,3.36-.85a27.8,27.8,0,0,0,2-9.56v-8.53a45.25,45.25,0,0,0-.86-8.57c-.47-2-3.52-6.22-4.19-6.89a30.76,30.76,0,0,1-3.13-4.35c-1-1.72-1.91-8.36-1.91-11.11V524.15a23.47,23.47,0,0,1,1.22-7.7c.67-1.49,4.43-2.71,4.72-2.71a42.05,42.05,0,0,1,5.09,2s.84.37.84,3.31.85,3.32.85,3.32c2.51,1.11,4.67,2,4.79,2s1.84-.39,3.8-.86,6.49-3.79,7.49-4.78a33.12,33.12,0,0,0,3.72-4.95c1.06-1.72,1.92-7.31,1.92-8.78a42.59,42.59,0,0,0-1.17-7.53,10.33,10.33,0,0,0-2.66-4.39c2.11,2.11,3.83,1.46,3.83-1.44a10,10,0,0,0-1.2-4.85,43.67,43.67,0,0,0-4.59-6.22,15.72,15.72,0,0,1-3-4.73c-.58-1.53,2.64-6.48,4.58-8.42l7.25-7.24a46.06,46.06,0,0,0,5.45-6.67c1-1.72,1.91-8.36,1.91-11.11V441a45.16,45.16,0,0,1,.86-8.57c.48-2,4.56-7.26,6.5-9.21l13.33-13.33,6.31-6.31c1.53-1.53,6-6,7.29-7.29a37.06,37.06,0,0,1,5.54-4.32c1.72-1.05,8.36-1.91,11.11-1.91h4.26a23.53,23.53,0,0,1,7.71,1.22c1.49.67,2.71,5.93,2.71,8.06a19.33,19.33,0,0,0,1.21,6.57c.67,1.49,6.45,2.7,9.2,2.7H1863a44.44,44.44,0,0,0,8.57-.86c2-.47,7.26-4.56,9.21-6.5l2.78-2.79a23.7,23.7,0,0,1,6.32-4.59c1.52-.58,6.47,2.65,8.41,4.59l1,1a23.52,23.52,0,0,0,6.31,4.59c1.53.58,4.9-1.07,4.91-1.09l2.81-1.08c1.53-.58,5.7,1.87,6.7,2.86a15.75,15.75,0,0,1,2.86,4.59c.58,1.53-2.64,6.48-4.59,8.42l-27.43,27.43a23.84,23.84,0,0,0-4.59,6.31c-.58,1.53,1.07,4.9,1.09,4.92l2.8,1.08c1.53.58,5.63-1.8,6.55-2.72a15,15,0,0,1,4.44-2.71c1.53-.58,6.23,2.4,7.88,4.05a20.6,20.6,0,0,0,5.78,4.05c1.52.58,5.29-1.47,5.8-2a13.69,13.69,0,0,1,3.7-2c1.52-.58,6.47,2.65,8.41,4.59l4.57,4.57a23.61,23.61,0,0,1,4.59,6.31c.58,1.53-2.33,6.17-3.9,7.74a19.85,19.85,0,0,0-3.91,5.62c-.58,1.53,1.54,5.37,2.13,6a31.74,31.74,0,0,0,4.2,3c1.72,1.05,7.95,1.91,10.2,1.91a38.94,38.94,0,0,0,7.65-.86c2-.47,7.27-4.56,9.21-6.5l.71-.71a44.26,44.26,0,0,0,5.45-6.67c1.06-1.72,1.92-7.55,1.92-9.3a34.48,34.48,0,0,1,.86-6.77c.47-2,4.56-7.26,6.5-9.21l9.92-9.91,6.31-6.32,6.1-6.1a30.76,30.76,0,0,1,4.35-3.13c1.72-1.05,8.36-1.91,11.11-1.91h3.81a45.16,45.16,0,0,0,8.57-.86c2-.48,5.86-3.15,6.08-3.37s1.26-1.82,2.32-3.54,1.91-7.58,1.91-9.38a17.41,17.41,0,0,0-1.22-6c-.67-1.49-5.53-2.7-7.17-2.7a33.52,33.52,0,0,0-6.54.86c-2,.47-7.09,4.38-8.82,6.11l-5.93,5.93-6.25,6.25a30.41,30.41,0,0,1-4.5,3.28c-1.72,1.05-8.08,1.91-10.49,1.91a41.37,41.37,0,0,1-8-.86c-2-.47-7.27-4.56-9.21-6.5l-1-1-6.31-6.31-6.69-6.69a15.57,15.57,0,0,0-4.59-2.87c-1.53-.58-5.17,1.33-5.51,1.68a14.6,14.6,0,0,1-3.4,1.68c-1.53.57-6-2.14-7.29-3.46a49,49,0,0,0-6.6-5.13,8.35,8.35,0,0,0-4.23-1.11h-2.54a24.84,24.84,0,0,1,3.95-6,34.41,34.41,0,0,1,5.31-4.1c1.72-1.05,7.65-1.91,9.53-1.91a35.63,35.63,0,0,0,7-.87c2-.47,7.26-4.55,9.21-6.5l78.28-78.27a44.23,44.23,0,0,1,6.66-5.45c1.73-1.06,8.36-1.92,11.11-1.92h2.56a23.47,23.47,0,0,0,7.7-1.22c1.49-.67,2.71-5.72,2.71-7.58a62.27,62.27,0,0,1,.83-8.31,6,6,0,0,1,1.61-2.92c1.34-1.34.71-4.15-1.4-6.26a6.11,6.11,0,0,0,.85.69,5.25,5.25,0,0,0,1.95.79,5.07,5.07,0,0,0,1,.1,5.3,5.3,0,0,0,2-.4l.65-.26c.63-.51,2.5-2.28,4.17-3.95l6.06-6.06c1.66-1.66,3.27-3.25,3.57-3.52l.3-.2a5.61,5.61,0,0,1,1.95-.79,5.54,5.54,0,0,1,2.07,0l1,.2a66.51,66.51,0,0,1,5.3,4.82l1.9,1.9c1.94,1.94,3.95,4.05,4.45,4.67l.27.65a5.27,5.27,0,0,1,.29,1,5.54,5.54,0,0,1,0,2.07l-.19,1a64.56,64.56,0,0,1-4.82,5.31l-12.59,12.58c-1.94,2-3.95,4.05-4.46,4.68l-.26.65a5.53,5.53,0,0,0,0,4.08l.26.65c.51.63,1.74,1.95,2.74,2.95a15.62,15.62,0,0,1,2.86,4.59c.58,1.52-2.64,6.47-4.59,8.41l-3.68,3.68a23.41,23.41,0,0,0-4.58,6.32c-.58,1.52,1.06,4.89,1.08,4.91l3.16,1.94c1.73,1.06,7.89,1.92,10.05,1.92s4.43,0,5,.08l.51.16a5.28,5.28,0,0,1,1.41.69l1.44,1c.53,1.93.95,3.55.95,3.59s0,.33,0,.65l0,.29a13.74,13.74,0,0,1-.61,2.82c-.14.42-.3.85-.47,1.27a16.13,16.13,0,0,1-1.22,2.38l-.46.73c-.56.65-2.62,2.77-4.56,4.72l-4.57,4.57c-1.94,1.94-3.77,3.78-4.06,4.09l-.24.32a13.56,13.56,0,0,0-1.37,2.19l-1,2a39.4,39.4,0,0,0,0,14.47l1,2a13.56,13.56,0,0,0,1.37,2.19l.24.32c.29.3,1.44,1.47,2.56,2.59s2.35,2.38,2.72,2.81l.21.36a1.56,1.56,0,0,1-.12,2l-.45.41c-1.05.13-4.16.24-6.91.24h-16.14c-2.75,0-5.81.11-6.81.24l-.76.42a5.73,5.73,0,0,0-1.25.93l-1,1a44,44,0,0,0,0,14.6l1,1a5.42,5.42,0,0,0,1.25.93l.76.42c1,.13,4.06.24,6.81.24h14.8a78.79,78.79,0,0,1,8.28.43l1.67.69,1.68.7a49.09,49.09,0,0,1,3.83,3.23c.67.67,1.75,1.68,2.4,2.24l.74.46a16.88,16.88,0,0,0,3.65,1.69l1.28.41c1.32.13,4.5.24,7.08.24s5.47.06,6.45.14l.95.24c.32.08.64.18,1,.28l2.14.69a70.54,70.54,0,0,1,7,6l3.38,3.38c1.94,1.94,4.37,4.22,5.4,5.06l1.2.61a17.58,17.58,0,0,0,2.5,1l1.28.41c1.32.14,4.65.24,7.4.24h15.09a44.3,44.3,0,0,1,8.57.87c2,.47,7.27,4.55,9.21,6.5l14.52,14.51a43.77,43.77,0,0,0,6.67,5.45c1.72,1.06,8,1.92,10.41,1.92s4.49,0,4.71,0,3-.11,5.78-.11h6.87a14,14,0,0,1,8.54,3.54l15.43,15.43a13.91,13.91,0,0,0,8.53,3.53h26.5a14,14,0,0,1,8.54,3.54l6.72,6.72a13.91,13.91,0,0,0,8.54,3.54h11.25a13.86,13.86,0,0,1,8.53,3.54l25.76,25.75a13.91,13.91,0,0,1,3.54,8.54v30.87a13.93,13.93,0,0,1-3.53,8.54L2337.6,607a13.91,13.91,0,0,1-8.53,3.53h-63.94a13.92,13.92,0,0,0-8.53,3.54l-4.43,4.43a14,14,0,0,1-8.54,3.53h-17.29a52.32,52.32,0,0,1-7-.37,26.15,26.15,0,0,0-6.21-1.1h-61.55a44.36,44.36,0,0,0-8.57.86c-2,.47-7.27,4.56-9.21,6.5l-.07.07a23.61,23.61,0,0,1-6.31,4.59c-1.53.58-6.48-2.64-8.42-4.59l-10.8-10.8a23.7,23.7,0,0,0-6.32-4.59c-1.52-.58-6.47,2.65-8.41,4.59l-8.22,8.21a44.23,44.23,0,0,1-6.66,5.45c-1.73,1.06-6.79,1.92-7.62,1.91a51.32,51.32,0,0,1-6.4-1,7.76,7.76,0,0,1-3.57-2.06,11.73,11.73,0,0,1-3.06-7.16,7.33,7.33,0,0,0-1-3.79,60.12,60.12,0,0,0-3.71-5.07,14,14,0,0,0-3.7-2c-1.52-.58-6.47,2.64-8.41,4.59l-9.1,9.09a43.77,43.77,0,0,1-6.67,5.45c-1.72,1.06-8.36,1.92-11.11,1.92h-26.92a45.16,45.16,0,0,0-8.57.86c-2,.47-7.27,4.56-9.21,6.5l-29.49,29.49c-1.94,2-4.78,4.79-6.31,6.31l-8.42,8.42-5.25,5.25a44.76,44.76,0,0,0-5.45,6.67c-1.05,1.72-1.92,8.36-1.92,11.11v1.19a23.56,23.56,0,0,1-1.21,7.71c-.67,1.48-6.45,2.7-9.2,2.7h-28.2a45.25,45.25,0,0,0-8.57.86c-2,.48-6.23,3.53-6.92,4.22a31.11,31.11,0,0,1-4.38,3.16c-1.72,1-8.36,1.91-11.11,1.91h-16.51a23.53,23.53,0,0,0-7.71,1.22c-1.48.67-2.7,5.54-2.7,7.19a16.63,16.63,0,0,0,1.22,5.71c.67,1.49,6.44,2.7,9.19,2.7h13.67a23.53,23.53,0,0,1,7.71,1.22c1.49.67,2.7,4.21,2.7,4.23s-.38,1.64-.86,3.6-3.08,5.79-3.22,5.93-1.67,1.12-3.39,2.17-8.36,1.92-11.11,1.92H1823a30.15,30.15,0,0,0-9.62,1.91s-.79.34-.79,3.08a9.29,9.29,0,0,0,1.16,4.59,57.65,57.65,0,0,0,3.3,4.87,39.05,39.05,0,0,1,2.85,5.11s.32.64-1.26,2.23a7.18,7.18,0,0,1-3.38,1.92,63.34,63.34,0,0,1-9.91,1h-23.48a38.18,38.18,0,0,0-7.38.86c-2,.48-7,4.26-8.54,5.84a40.43,40.43,0,0,1-6,4.78c-1.72,1.05-8.36,1.91-11.11,1.91H1741a45.16,45.16,0,0,0-8.57.86c-2,.48-7.27,4.56-9.21,6.5l-15,15a45,45,0,0,0-5.45,6.67c-1,1.72-1.91,8.36-1.91,11.11v8.26a23.47,23.47,0,0,0,1.22,7.7c.67,1.49,5.31,2.71,6.67,2.71a32.56,32.56,0,0,0,6-.86c2-.48,7.26-4.56,9.21-6.5l1.15-1.16a23.48,23.48,0,0,1,6.32-4.59c1.52-.58,6.47,2.64,8.41,4.59l.25.25a23.3,23.3,0,0,1,4.59,6.31c.58,1.53-2.36,6.19-4,7.79a20.13,20.13,0,0,0-4,5.68c-.58,1.52,2.64,6.47,4.59,8.41l4,4a23.7,23.7,0,0,1,4.59,6.32c.58,1.52-1.72,5.54-2.52,6.34a14.43,14.43,0,0,0-2.52,4.25c-.58,1.52,1.88,5.71,2.9,6.72a15.83,15.83,0,0,1,2.89,4.62c.58,1.53-1.3,5.14-1.61,5.45a15.66,15.66,0,0,1-3.33,1.61c-1.53.58-6.46-2.64-8.39-4.57a35,35,0,0,0-8-5.65s-.67-.32-2.34,1.34-1.34,2.34-1.34,2.34a30.23,30.23,0,0,0,3.23,5.61,13.31,13.31,0,0,1,2.14,3.86c.58,1.53-1.23,5.07-1.46,5.29a17.46,17.46,0,0,0-1.46,3.18c-.58,1.53,1.41,5.24,1.84,5.67a14.1,14.1,0,0,0,3.56,1.84c1.53.58,6.33-2.5,8.09-4.26a22,22,0,0,1,6-4.26c1.53-.58,5.51,1.68,6.28,2.44a30.24,30.24,0,0,0,4.52,3.31c1.72,1,7.25,1.91,8.64,1.91a15.42,15.42,0,0,1,5.24,1.22c1.49.67,2.7,6.09,2.7,8.39a39.45,39.45,0,0,0,.87,7.76c.47,2,4.13,6.85,5.56,8.28a37.94,37.94,0,0,0,5.74,4.52c1.72,1,6.84,1.91,7.73,1.91a13.86,13.86,0,0,1,4.33,1.22c1.49.67,2.71,5.2,2.71,6.42a14.74,14.74,0,0,1-1.22,4.93c-.67,1.49-4.69,2.71-5.29,2.71a33,33,0,0,0-4.66.86c-2,.48-5.69,3-5.7,3s-.51,1.28-1.09,2.8,1.21,5,1.39,5.22a19.24,19.24,0,0,0,3.11,1.38c1.52.58,5.84-2,7-3.2a34.35,34.35,0,0,1,5.29-4.06c1.72-1,6.63-1.91,7.27-1.91a31.62,31.62,0,0,0,4.74-.87c2-.47,7.26-4.55,9.21-6.5l.63-.63a28,28,0,0,1,8.21-5.31s.87-.33,3,1.77,1.77,3,1.77,3a23.21,23.21,0,0,1-3.32,6.21,14.39,14.39,0,0,0-2.59,4.32c-.58,1.53,1.47,5.3,2,5.82a27.75,27.75,0,0,0,5.54,2.87s.79.33,2.7-1.59a9.17,9.17,0,0,1,4-2.38,50.23,50.23,0,0,1,9-1.1,51,51,0,0,0,9-1.07,8.92,8.92,0,0,0,3.94-2.33c1.87-1.87,2.64-1.54,2.64-1.54a28.58,28.58,0,0,1,5.45,2.83l4.4,4.39,4,4a9.88,9.88,0,0,0,4.26,2.56,51.85,51.85,0,0,0,9.86,1.15h43.27a23.42,23.42,0,0,0,7.7-1.22c1.49-.67,2.71-6.44,2.71-9.19V971.65a23.53,23.53,0,0,1,1.22-7.71c.67-1.49,6.45-2.7,9.2-2.7h38.15A44.25,44.25,0,0,1,2007.33,962.1ZM1711.22,28.89Zm1.16-1.05Zm2.11-.84a5.47,5.47,0,0,0-.7.16,5.47,5.47,0,0,1,.7-.16l.18,0Zm853,297.29a13.91,13.91,0,0,1,3.53-8.53l43.68-43.68a13.89,13.89,0,0,0,3.54-8.54V257a13.91,13.91,0,0,1,3.53-8.53l34.43-34.43a13.89,13.89,0,0,0,3.54-8.54v-8a13.91,13.91,0,0,1,3.53-8.53l48.93-48.93a5.17,5.17,0,0,1,7.16-.09l2.75,2.61a14.51,14.51,0,0,0,8.63,3.44h13.5a13.91,13.91,0,0,0,8.53-3.53l6.43-6.43a14,14,0,0,1,8.54-3.54h9a13.92,13.92,0,0,1,8.53,3.54L2801.16,152a13.86,13.86,0,0,1,3.54,8.53v22a13.93,13.93,0,0,0,3.53,8.54L2826.16,209a5,5,0,0,0,7.07,0l18.93-18.93a5,5,0,0,1,7.07,0l29.81,29.8a5,5,0,0,1,0,7.08l-5.81,5.8a13.91,13.91,0,0,1-8.53,3.53h-15.25a14,14,0,0,0-8.54,3.54L2839.73,251a13.91,13.91,0,0,0-3.53,8.53V284c0,2.75-1,6-2.25,7.25s-3.84.66-5.79-1.28l-.93-.93a13.93,13.93,0,0,1-3.53-8.54v-22a13.91,13.91,0,0,1,3.53-8.53l3.93-3.93a13.89,13.89,0,0,0,3.54-8.54v-1.75a5,5,0,0,0-5-5H2760a14,14,0,0,0-8.54,3.54L2731.73,254a13.91,13.91,0,0,0-3.53,8.53V268a13.93,13.93,0,0,0,3.53,8.54L2747.16,292c2,1.94,3.54,5.11,3.54,7s-2.25,3.5-5,3.5h-37a5,5,0,0,0-5,5V324a5,5,0,0,0,5,5h13.5a13.92,13.92,0,0,1,8.53,3.54L2786.16,388a14,14,0,0,0,8.54,3.53h29.5a5,5,0,0,1,5,5V426a13.93,13.93,0,0,0,3.53,8.54L2849.16,451a13.86,13.86,0,0,1,3.54,8.53v25a13.93,13.93,0,0,0,3.53,8.54l8.93,8.93a13.86,13.86,0,0,1,3.54,8.53v26a5,5,0,0,0,5,5h33a5,5,0,0,1,5,5v13a13.93,13.93,0,0,0,3.53,8.54L2939.16,592a13.86,13.86,0,0,1,3.54,8.53v61a13.93,13.93,0,0,0,3.53,8.54l7.93,7.93a13.86,13.86,0,0,1,3.54,8.53v24.55a5,5,0,0,1-5,5h-11.46a13.86,13.86,0,0,0-8.53,3.54l-11.48,11.47a13.86,13.86,0,0,1-8.53,3.54h-20.91a14,14,0,0,0-8.54,3.53l-11,11a13.91,13.91,0,0,1-8.53,3.53h-31.19a14,14,0,0,1-8.54-3.53l-17.74-17.74a13.86,13.86,0,0,0-8.53-3.54h-14.38a13.86,13.86,0,0,1-8.53-3.54l-53.31-53.3a13.93,13.93,0,0,1-3.53-8.54V648.79a13.91,13.91,0,0,1,3.53-8.53l10.18-10.18a13.89,13.89,0,0,0,3.54-8.54V589a13.91,13.91,0,0,1,3.53-8.53l19.43-19.43a13.89,13.89,0,0,0,3.54-8.54v-5.43a5,5,0,0,0-5-5h-22.57a13.86,13.86,0,0,1-8.53-3.54l-5.93-5.93c-2-1.94-5.13-5.12-7.07-7.07L2608.11,421.08a13.89,13.89,0,0,1-3.54-8.54V389.67a14,14,0,0,0-3.53-8.54L2571,351.08a13.93,13.93,0,0,1-3.53-8.54Z" fill="#dbdbd7"/></g><g id="a9cb983e-90f8-4a55-b7c1-425e1402c10f" data-name="capitals"><circle cx="1720" cy="199" r="9"/><circle cx="1704" cy="403" r="9"/><circle cx="1385" cy="600" r="9"/><circle cx="1337" cy="659" r="9"/><circle cx="1438" cy="718" r="9"/><circle cx="1463" cy="762" r="9"/><circle cx="1374" cy="720" r="9"/><circle cx="1394" cy="812" r="9"/><text transform="translate(1737.38 205.44)" font-size="17" fill="#1d1d1b" font-family="OpenSans-SemiBold, Open Sans" font-weight="600">Kiev</text><text transform="translate(1720.38 408.44)" font-size="17" fill="#1d1d1b" font-family="OpenSans-SemiBold, Open Sans" font-weight="600">Chisinau</text><text transform="translate(1394.38 626.44)" font-size="17" fill="#1d1d1b" font-family="OpenSans-SemiBold, Open Sans" font-weight="600">Belgrade</text><text transform="translate(1266.38 645.44)" font-size="17" fill="#1d1d1b" font-family="OpenSans-SemiBold, Open Sans" font-weight="600">Sarajevo</text><text transform="translate(1385.38 795.44)" font-size="17" fill="#1d1d1b" font-family="OpenSans-SemiBold, Open Sans" font-weight="600">Tirana</text><text transform="translate(1298.38 706.44)" font-size="17" fill="#1d1d1b" font-family="OpenSans-SemiBold, Open Sans" font-weight="600">Podgorica</text><text transform="translate(1405.38 704.44)" font-size="17" fill="#1d1d1b" font-family="OpenSans-SemiBold, Open Sans" font-weight="600">Pristina</text><text transform="translate(1455.38 789.44)" font-size="17" fill="#1d1d1b" font-family="OpenSans-SemiBold, Open Sans" font-weight="600">Skopje</text></g></svg>