<svg id="e574e53d-73a0-4f57-a1c6-5a74fb04c22e" data-name="vonal_bontva" xmlns="http://www.w3.org/2000/svg" width="1918.93" height="2473.28" viewBox="0 0 1918.93 2473.28"><title>OSCE_vonal_export</title><path d="M1155.77,316.86V1617.44a40.12,40.12,0,0,1-40,40H737.52a40.12,40.12,0,0,0-40,40V2028" transform="translate(-0.64 -316.86)" fill="none" stroke="#f0f" stroke-miterlimit="10" stroke-width="6"/><path d="M748.9,670.7h139a40.12,40.12,0,0,1,40,40v796.15a40.12,40.12,0,0,1-40,40h-185a40.12,40.12,0,0,0-40,40V2028" transform="translate(-0.64 -316.86)" fill="none" stroke="#f0f" stroke-miterlimit="10" stroke-width="6"/><path d="M1034.17,462.18v1100a40.12,40.12,0,0,1-40,40h-274a40.12,40.12,0,0,0-40,40V2028" transform="translate(-0.64 -316.86)" fill="none" stroke="#f0f" stroke-miterlimit="10" stroke-width="6"/><path d="M766.81,767.89h60.1a40.12,40.12,0,0,1,40,40v643.66a40.12,40.12,0,0,1-40,40H685.53a40.12,40.12,0,0,0-40,40V2028" transform="translate(-0.64 -316.86)" fill="none" stroke="#f0f" stroke-miterlimit="10" stroke-width="6"/><path d="M812.86,830.61v565.64a40.12,40.12,0,0,1-40,40H668.19a40.12,40.12,0,0,0-40,40V2028" transform="translate(-0.64 -316.86)" fill="none" stroke="#f0f" stroke-miterlimit="10" stroke-width="6"/><path d="M737.39,872.15V1341a40.12,40.12,0,0,1-40,40H650.86a40.12,40.12,0,0,0-40,40V2028" transform="translate(-0.64 -316.86)" fill="none" stroke="#f0f" stroke-miterlimit="10" stroke-width="6"/><path d="M668.31,774.32v511.33c0,22-16.83,40-37.39,40s-37.39,18-37.39,40V2028" transform="translate(-0.64 -316.86)" fill="none" stroke="#f0f" stroke-miterlimit="10" stroke-width="6"/><line x1="575.56" y1="1711.18" x2="575.56" y2="366.59" fill="none" stroke="#f0f" stroke-miterlimit="10" stroke-width="6"/><line x1="653.52" y1="1711.18" x2="653.52" y2="2473.28" fill="none" stroke="#f0f" stroke-miterlimit="10" stroke-width="6"/><path d="M619.53,2028v307.29a40.12,40.12,0,0,1-40,40H.64" transform="translate(-0.64 -316.86)" fill="none" stroke="#f0f" stroke-miterlimit="10" stroke-width="6"/><path d="M1343.76,2028V1310.35a40.12,40.12,0,0,0-40-40h-108a40.12,40.12,0,0,1-40-40V316.86" transform="translate(-0.64 -316.86)" fill="none" stroke="#754c24" stroke-miterlimit="10" stroke-width="6"/><path d="M748.9,670.7h139a40.12,40.12,0,0,1,40,40V1341a40.12,40.12,0,0,0,40,40h301.29a40.12,40.12,0,0,1,40,40V2028" transform="translate(-0.64 -316.86)" fill="none" stroke="#754c24" stroke-miterlimit="10" stroke-width="6"/><path d="M1034.17,462.18v823.47a40.12,40.12,0,0,0,40,40H1286.5a40.12,40.12,0,0,1,40,40V2028" transform="translate(-0.64 -316.86)" fill="none" stroke="#754c24" stroke-miterlimit="10" stroke-width="6"/><path d="M766.81,767.89h60.1a40.12,40.12,0,0,1,40,40v588.36a40.12,40.12,0,0,0,40,40h344.92a40.12,40.12,0,0,1,40,40V2028" transform="translate(-0.64 -316.86)" fill="none" stroke="#754c24" stroke-miterlimit="10" stroke-width="6"/><path d="M812.86,830.61v620.94a40.12,40.12,0,0,0,40,40H1234.5a40.12,40.12,0,0,1,40,40V2028" transform="translate(-0.64 -316.86)" fill="none" stroke="#754c24" stroke-miterlimit="10" stroke-width="6"/><path d="M737.39,872.15v634.7a40.12,40.12,0,0,0,40,40h439.78a40.12,40.12,0,0,1,40,40V2028" transform="translate(-0.64 -316.86)" fill="none" stroke="#754c24" stroke-miterlimit="10" stroke-width="6"/><path d="M668.31,774.32v787.82a40.12,40.12,0,0,0,40,40h491.53a40.12,40.12,0,0,1,40,40V2028" transform="translate(-0.64 -316.86)" fill="none" stroke="#754c24" stroke-miterlimit="10" stroke-width="6"/><path d="M576.2,683.45v934a40.12,40.12,0,0,0,40,40h566.31a40.12,40.12,0,0,1,40,40V2028" transform="translate(-0.64 -316.86)" fill="none" stroke="#754c24" stroke-miterlimit="10" stroke-width="6"/><line x1="1265.41" y1="1711.18" x2="1265.41" y2="2473.28" fill="none" stroke="#754c24" stroke-miterlimit="10" stroke-width="6"/><path d="M1300.67,2028v307.29a40.12,40.12,0,0,0,40,40h578.9" transform="translate(-0.64 -316.86)" fill="none" stroke="#754c24" stroke-miterlimit="10" stroke-width="6"/></svg>