<svg id="b4dc151e-6513-48d0-aec2-66ca9c30cdd5" data-name="Layer 1" xmlns="http://www.w3.org/2000/svg" width="2230" height="1160" viewBox="0 0 2230 1160"><title>OSCE_map</title><path d="M2073.33,632.73a15,15,0,0,0,9.24-3.83l15.29-15.28a5.41,5.41,0,0,1,7.65,0l17.88,17.87a5.41,5.41,0,0,0,7.65,0l7.15-7.14a15.07,15.07,0,0,1,9.24-3.83H2219c-1.15,1.15,4.92,1.7,4.92,1.7a6,6,0,0,1,5.4,5.9V946.8c0,3-1.11,3.25-2.47.6l-3.5-6.83a33.5,33.5,0,0,0-6.56-8.37l-14.22-12.34a5,5,0,0,1-.26-7.37l9-9a5.43,5.43,0,0,0,0-7.66l-4.44-4.44a5.43,5.43,0,0,0-7.66,0l-20,20a15,15,0,0,1-9.24,3.83h-17.22a15.07,15.07,0,0,0-9.24,3.83l-22.8,22.8-7.65,7.65L2080.49,982a15.07,15.07,0,0,1-9.25,3.83h-31.16a15,15,0,0,1-9.24-3.83l-17-17a15,15,0,0,0-9.24-3.83h-48.15a5.43,5.43,0,0,0-5.41,5.42v34.13a5.44,5.44,0,0,1-5.42,5.42h-53.26a14.85,14.85,0,0,1-9.13-3.71l-7.53-7.54-1.72-1.72c-2.11-2.11-5.36-2.3-7.24-.42a14.28,14.28,0,0,1-8.82,3.4h-8.23a14.41,14.41,0,0,0-8.89,3.48,5.2,5.2,0,0,1-7.31-.35l-1.88-1.87a5.44,5.44,0,0,1,0-7.66l3.09-3.09A5.4,5.4,0,1,0,1827,979l-7.7,7.7a15.07,15.07,0,0,1-9.25,3.83h-2.33a15,15,0,0,0-9.24,3.83l-4.3,4.3a5.44,5.44,0,0,1-7.66,0l-.66-.67a5.43,5.43,0,0,1,0-7.66l.06,0a15,15,0,0,1,9.24-3.83h2.18a5.44,5.44,0,0,0,5.42-5.42v-4.45a5.43,5.43,0,0,0-5.42-5.41h-3.24a15.1,15.1,0,0,1-9.24-3.83l-5.2-5.21a15,15,0,0,1-3.83-9.24v-8.39a5.44,5.44,0,0,0-5.42-5.41h-5a15.07,15.07,0,0,1-9.25-3.83l-2.78-2.78a5.43,5.43,0,0,0-7.66,0l-6.41,6.41a5.43,5.43,0,0,1-7.66,0l-1.57-1.57a5.43,5.43,0,0,1,0-7.66l.82-.81a5.44,5.44,0,0,0,0-7.66l-2.18-2.18c-2.11-2.1-2.47-5.19-.8-6.85s4.74-1.3,6.85.8l7,7a5.43,5.43,0,0,0,7.66,0l1.11-1.12a5.43,5.43,0,0,0,0-7.66l-3.69-3.69a5.43,5.43,0,0,1,0-7.65l2.94-2.94a5.43,5.43,0,0,0,0-7.65l-11.11-11.11a5.44,5.44,0,0,1,0-7.66l5.81-5.8a5.43,5.43,0,0,0,0-7.66l-7.32-7.32a5.43,5.43,0,0,0-7.66,0l-8.23,8.23a15.07,15.07,0,0,1-9.24,3.83h-4.94a5.44,5.44,0,0,1-5.42-5.42V838.14a15.1,15.1,0,0,1,3.83-9.24l22-22a15.06,15.06,0,0,1,9.24-3.82h17.84a15.12,15.12,0,0,0,9.25-3.83l5.73-5.74a15.06,15.06,0,0,1,9.24-3.82h32.29c3,0,6.71-1.3,8.29-2.88s1.15-4.6-1-6.7l-1.27-1.27a14.5,14.5,0,0,1-3.83-8.82,5.24,5.24,0,0,1,5.41-5h19.13a15.07,15.07,0,0,0,9.25-3.83l.51-.51a15.07,15.07,0,0,0,3.83-9.24v-.06a5.44,5.44,0,0,0-5.42-5.42h-23.66a5.44,5.44,0,0,1-5.42-5.41v-6a5.43,5.43,0,0,1,5.42-5.41h26.51a15.07,15.07,0,0,0,9.24-3.83l2.49-2.49a15.07,15.07,0,0,1,9.25-3.83h38.19a5.44,5.44,0,0,0,5.42-5.42V702.35a15.07,15.07,0,0,1,3.83-9.25l12.32-12.32,7.66-7.66,36.56-36.56a15.07,15.07,0,0,1,9.24-3.83h36.93a15.06,15.06,0,0,0,9.24-3.83l16.17-16.16a5.41,5.41,0,0,1,7.65,0l1.84,1.83c2.11,2.11,3.83,5.68,3.83,7.94a11.72,11.72,0,0,0,3,7.16c1.68,1.68,5.49,3.06,8.47,3.06Z" fill="#e6e6e6" stroke="#fff" stroke-linecap="round" stroke-linejoin="round" stroke-width="2.87"/><path d="M2061.1,1043.6l17.59,17.58a5.41,5.41,0,0,0,7.65,0l2.3-2.29c2.1-2.11,5.87-3.83,8.37-3.83s6.26-1.72,8.36-3.83L2120,1036.6c2.1-2.11,3.82-5.34,3.82-7.18s2.44-3.34,5.42-3.34h1.59a15,15,0,0,0,9.2-3.78,5.4,5.4,0,0,0-.05-7.61l-3.17-3.17a5.43,5.43,0,0,1,0-7.66l18.93-18.93a5.43,5.43,0,0,0,0-7.66l-.86-.86a5.43,5.43,0,0,0-7.66,0l-25,25a14.12,14.12,0,0,1-8.53,3.83,13.91,13.91,0,0,0-8.4,3.7,14.77,14.77,0,0,1-9.11,3.71H2089a5.43,5.43,0,0,0-5.42,5.41v7.88a5.44,5.44,0,0,1-5.41,5.42h-6c-3,0-5.42,2-5.42,4.45s-2,5.86-4.44,7.56C2062.23,1043.35,2061.42,1043.91,2061.1,1043.6Z" fill="#e6e6e6" stroke="#fff" stroke-linecap="round" stroke-linejoin="round" stroke-width="2.87"/><path d="M166,710.52a5.44,5.44,0,0,1-5.42-5.42V693.89a5.43,5.43,0,0,0-5.41-5.42H141.76c-3,0-6.77,1.35-8.42,3s-3,5.44-3,8.42v62a15,15,0,0,1-3.83,9.24l-26.95,27a15,15,0,0,0-3.83,9.24v17.81a15.12,15.12,0,0,1-3.83,9.25L60.77,865.5a5.43,5.43,0,0,0,0,7.66l20.39,20.39A15.06,15.06,0,0,1,85,902.79v27.36a15.11,15.11,0,0,1-3.82,9.25L56.59,964c-2.11,2.1-1.39,3.82,1.58,3.82h25a15.07,15.07,0,0,1,9.24,3.83l8.46,8.46a15.1,15.1,0,0,0,9.24,3.83h17.85a5.44,5.44,0,0,0,5.42-5.42V949.38a15,15,0,0,1,3.83-9.24l15.36-15.37a15.07,15.07,0,0,0,3.83-9.24v-18a15.06,15.06,0,0,1,3.83-9.24l9.36-9.37a5.41,5.41,0,0,0,0-7.65l-16.5-16.5a5.44,5.44,0,0,1,0-7.66l4.67-4.66a15,15,0,0,1,9.24-3.83h10.24a5.44,5.44,0,0,0,5.42-5.42V813.85a15,15,0,0,1,3.83-9.24l13.74-13.74a15.07,15.07,0,0,0,3.83-9.25v-16.4a15.07,15.07,0,0,1,3.83-9.25l19.25-19.25a15.06,15.06,0,0,0,3.83-9.24V715.93a5.43,5.43,0,0,0-5.41-5.41H166Z" fill="#e6e6e6" stroke="#fff" stroke-linecap="round" stroke-linejoin="round" stroke-width="2.87"/><path d="M659.61,752.31c-1.67-1.67-5.47-3-8.45-3H615.54a15.12,15.12,0,0,1-9.24-3.83l-4.3-4.3a15,15,0,0,0-9.24-3.83H579.68a15,15,0,0,1-9.24-3.83L561.91,725a15,15,0,0,0-9.24-3.83H533.55a14.24,14.24,0,0,1-8.8-3.38,14.22,14.22,0,0,0-8.79-3.38H502.15a15.1,15.1,0,0,1-9.24-3.83L480.76,698.4c-2.1-2.1-5.56-3.83-7.69-3.83s-3.86-2.43-3.86-5.41v-4.78a5.44,5.44,0,0,0-5.42-5.42H432.94a15,15,0,0,1-9.24-3.83l-24-24a15.12,15.12,0,0,0-9.25-3.83H320.75a15,15,0,0,1-9.24-3.83L298,630a15.07,15.07,0,0,0-9.25-3.83H231.24a15.07,15.07,0,0,1-9.25-3.83l-13.67-13.68a15.12,15.12,0,0,0-9.25-3.83H146.5a5.44,5.44,0,0,0-5.42,5.42v27.51a15.07,15.07,0,0,0,3.83,9.25l.7.69a5.44,5.44,0,0,1,0,7.66l-4.88,4.87a5.44,5.44,0,0,0,0,7.66l4.28,4.28a5.43,5.43,0,0,1,0,7.66l-4.83,4.83c-2.11,2.11-1.4,3.83,1.58,3.83h13.42a5.43,5.43,0,0,1,5.41,5.42V705.1a5.44,5.44,0,0,0,5.42,5.42h59.53a5.43,5.43,0,0,1,5.41,5.41v11.55a15.06,15.06,0,0,1-3.83,9.24L207.87,756a15.07,15.07,0,0,0-3.83,9.25v16.4a15.07,15.07,0,0,1-3.83,9.25l-13.74,13.74a15,15,0,0,0-3.83,9.24v19.32a5.44,5.44,0,0,1-5.42,5.42H167a15,15,0,0,0-9.24,3.83l-4.67,4.66a5.44,5.44,0,0,0,0,7.66l16.5,16.5a5.41,5.41,0,0,1,0,7.65l-9.36,9.37a15.06,15.06,0,0,0-3.83,9.24v18a15.07,15.07,0,0,1-3.83,9.24l-15.36,15.37a15,15,0,0,0-3.83,9.24v29.11a5.43,5.43,0,0,0,5.41,5.42h2.86a15.07,15.07,0,0,1,9.25,3.83l21.88,21.88a15.07,15.07,0,0,1,3.83,9.24v22.29a15.07,15.07,0,0,0,3.83,9.25l15.76,15.76a5.43,5.43,0,0,0,7.66,0L222,1048a15.07,15.07,0,0,1,9.25-3.83h17.81a15,15,0,0,0,9.24-3.83l5.47-5.47a15.07,15.07,0,0,1,9.25-3.83H294.4a15.07,15.07,0,0,1,9.25,3.83l9.65,9.65a15.07,15.07,0,0,0,9.24,3.83h48.25a15.07,15.07,0,0,0,9.24-3.83l18.3-18.3a15.07,15.07,0,0,1,9.25-3.83h31.24a5.44,5.44,0,0,0,5.42-5.42v-6.77a15.11,15.11,0,0,1,3.82-9.25l16.22-16.21a15.07,15.07,0,0,0,3.83-9.24V972a15.11,15.11,0,0,1,3.82-9.25l12-12a15.07,15.07,0,0,0,3.83-9.25V898a15.07,15.07,0,0,1,3.83-9.25L551.7,828.7a15.07,15.07,0,0,1,9.25-3.83h40.19a15,15,0,0,0,9.24-3.83l11-11a15.06,15.06,0,0,0,3.83-9.24V799a5.44,5.44,0,0,1,5.42-5.41h9.91a15.06,15.06,0,0,0,9.24-3.83l9.05-9.05a15.06,15.06,0,0,0,3.83-9.24V760.76C662.65,757.78,661.28,754,659.61,752.31Z" fill="#e6e6e6" stroke="#fff" stroke-linecap="round" stroke-linejoin="round" stroke-width="2.87"/><path d="M917.42,750.1l-18,18a5.43,5.43,0,0,0,0,7.66l7.49,7.49a5.43,5.43,0,0,1,0,7.66l-2.38,2.39a5.41,5.41,0,0,0,0,7.65l.68.69a15,15,0,0,1,3.83,9.24v.58a15,15,0,0,0,3.83,9.24l5.53,5.54a5.44,5.44,0,0,0,7.66,0l7.58-7.58a15.06,15.06,0,0,0,3.83-9.24V799.1a15.07,15.07,0,0,1,3.83-9.25l1.36-1.36a15.07,15.07,0,0,0,3.83-9.25V764a15.07,15.07,0,0,0-3.83-9.25l-.77-.77a15.07,15.07,0,0,1-3.83-9.24v-11c0-3-2-5.41-4.38-5.41s-4.38,2.43-4.38,5.41v11a5.44,5.44,0,0,1-5.42,5.42Z" fill="#e6e6e6" stroke="#fff" stroke-linecap="round" stroke-linejoin="round" stroke-width="2.87"/><path d="M873.81,373.35a15.07,15.07,0,0,0-9.25-3.83H841.11a15.07,15.07,0,0,1-9.25-3.83l-6.15-6.15a15.06,15.06,0,0,0-9.24-3.83H786a15.12,15.12,0,0,1-9.25-3.83L762,337.11a15,15,0,0,1-3.83-9.24v-9.32a5.43,5.43,0,0,0-5.42-5.41H737a15.12,15.12,0,0,1-9.24-3.83l-44.52-44.52c-2.11-2.11-4.28-3.38-4.83-2.84s-3.43,1-6.41,1H649.66a5.44,5.44,0,0,0-5.42,5.42V297.8a15.06,15.06,0,0,1-3.83,9.24l-6.1,6.1a15,15,0,0,1-9.24,3.83h-31a5.44,5.44,0,0,0-5.42,5.42v15.16a5.43,5.43,0,0,1-5.41,5.41H568.12a15,15,0,0,1-9.24-3.83l-25.47-25.47a15.11,15.11,0,0,0-9.25-3.82h-5.47a5.43,5.43,0,0,0-5.42,5.41v53a5.43,5.43,0,0,1-5.41,5.42H475.2a15.07,15.07,0,0,1-9.24-3.83l-7-6.95a15,15,0,0,0-9.24-3.83h-49a5.43,5.43,0,0,0-5.42,5.41v28.56a5.43,5.43,0,0,0,5.42,5.41h33.33a15.12,15.12,0,0,1,9.24,3.83l32.33,32.33a15.06,15.06,0,0,1,3.82,9.24v45.86a15.12,15.12,0,0,0,3.83,9.25l25.47,25.46a15.11,15.11,0,0,1,3.82,9.24v49.15a15.06,15.06,0,0,1-3.82,9.24l-23.53,23.53a15.07,15.07,0,0,0-3.83,9.24v48.7A5.42,5.42,0,0,1,476,679h-1.35a5.43,5.43,0,0,0-5.41,5.42v4.78c0,3,1.73,5.41,3.86,5.41s5.59,1.73,7.69,3.83l12.15,12.15a15.1,15.1,0,0,0,9.24,3.83H516a14.22,14.22,0,0,1,8.79,3.38,14.24,14.24,0,0,0,8.8,3.38h19.12a15,15,0,0,1,9.24,3.83l8.53,8.52a15,15,0,0,0,9.24,3.83h13.08a15,15,0,0,1,9.24,3.83l4.3,4.3a15.12,15.12,0,0,0,9.24,3.83h35.62c3,0,4-1.47,2.15-3.27a14.05,14.05,0,0,1-3.27-8.68V719.86a15.07,15.07,0,0,1,3.83-9.24l7.58-7.58a15.07,15.07,0,0,1,9.25-3.83h70A15.07,15.07,0,0,1,750,703l23.74,23.74a15.07,15.07,0,0,0,9.25,3.83H795.9a15,15,0,0,0,9.24-3.83l27.21-27.2,7.65-7.66,3.07-3.06a15.07,15.07,0,0,1,9.25-3.83h.54a5.44,5.44,0,0,0,5.42-5.42V662.37a5.44,5.44,0,0,0-5.42-5.42H835.1a5.43,5.43,0,0,1-5.42-5.41V637.67a15,15,0,0,0-3.83-9.24L824.41,627a15.07,15.07,0,0,1-3.83-9.25v-7.37a15.06,15.06,0,0,1,3.83-9.24l8.92-8.92a5.43,5.43,0,0,0,0-7.65l-9.24-9.24a5.43,5.43,0,0,1,0-7.66l1.76-1.77a15,15,0,0,0,3.83-9.24V534.33a5.43,5.43,0,0,0-5.41-5.41h-6.72a5.43,5.43,0,0,0-5.42,5.41v7.37a5.42,5.42,0,0,1-5.41,5.41h-3.47a5.43,5.43,0,0,1-5.42-5.41V527a15.07,15.07,0,0,1,3.83-9.24l15.9-15.91c2.11-2.1,5.33-3.83,7.16-3.83s5.06-1.72,7.16-3.82L860.3,465.8a15.07,15.07,0,0,0,3.83-9.24V416.69a15,15,0,0,1,3.83-9.24L884.1,391.3a5.43,5.43,0,0,0,0-7.66Z" fill="#e6e6e6" fill-rule="evenodd"/><path d="M873.81,373.35a15.07,15.07,0,0,0-9.25-3.83H841.11a15.07,15.07,0,0,1-9.25-3.83l-6.15-6.15a15.06,15.06,0,0,0-9.24-3.83H786a15.12,15.12,0,0,1-9.25-3.83L762,337.11a15,15,0,0,1-3.83-9.24v-9.32a5.43,5.43,0,0,0-5.42-5.41H737a15.12,15.12,0,0,1-9.24-3.83l-44.52-44.52c-2.11-2.11-4.28-3.38-4.83-2.84s-3.43,1-6.41,1H649.66a5.44,5.44,0,0,0-5.42,5.42V297.8a15.06,15.06,0,0,1-3.83,9.24l-6.1,6.1a15,15,0,0,1-9.24,3.83h-31a5.44,5.44,0,0,0-5.42,5.42v15.16a5.43,5.43,0,0,1-5.41,5.41H568.12a15,15,0,0,1-9.24-3.83l-25.47-25.47a15.11,15.11,0,0,0-9.25-3.82h-5.47a5.43,5.43,0,0,0-5.42,5.41v53a5.43,5.43,0,0,1-5.41,5.42H475.2a15.07,15.07,0,0,1-9.24-3.83l-7-6.95a15,15,0,0,0-9.24-3.83h-49a5.43,5.43,0,0,0-5.42,5.41v28.56a5.43,5.43,0,0,0,5.42,5.41h33.33a15.12,15.12,0,0,1,9.24,3.83l32.33,32.33a15.06,15.06,0,0,1,3.82,9.24v45.86a15.12,15.12,0,0,0,3.83,9.25l25.47,25.46a15.11,15.11,0,0,1,3.82,9.24v49.15a15.06,15.06,0,0,1-3.82,9.24l-23.53,23.53a15.07,15.07,0,0,0-3.83,9.24v48.7A5.42,5.42,0,0,1,476,679h-1.35a5.43,5.43,0,0,0-5.41,5.42v4.78c0,3,1.73,5.41,3.86,5.41s5.59,1.73,7.69,3.83l12.15,12.15a15.1,15.1,0,0,0,9.24,3.83H516a14.22,14.22,0,0,1,8.79,3.38,14.24,14.24,0,0,0,8.8,3.38h19.12a15,15,0,0,1,9.24,3.83l8.53,8.52a15,15,0,0,0,9.24,3.83h13.08a15,15,0,0,1,9.24,3.83l4.3,4.3a15.12,15.12,0,0,0,9.24,3.83h35.62c3,0,4-1.47,2.15-3.27a14.05,14.05,0,0,1-3.27-8.68V719.86a15.07,15.07,0,0,1,3.83-9.24l7.58-7.58a15.07,15.07,0,0,1,9.25-3.83h70A15.07,15.07,0,0,1,750,703l23.74,23.74a15.07,15.07,0,0,0,9.25,3.83H795.9a15,15,0,0,0,9.24-3.83l27.21-27.2,7.65-7.66,3.07-3.06a15.07,15.07,0,0,1,9.25-3.83h.54a5.44,5.44,0,0,0,5.42-5.42V662.37a5.44,5.44,0,0,0-5.42-5.42H835.1a5.43,5.43,0,0,1-5.42-5.41V637.67a15,15,0,0,0-3.83-9.24L824.41,627a15.07,15.07,0,0,1-3.83-9.25v-7.37a15.06,15.06,0,0,1,3.83-9.24l8.92-8.92a5.43,5.43,0,0,0,0-7.65l-9.24-9.24a5.43,5.43,0,0,1,0-7.66l1.76-1.77a15,15,0,0,0,3.83-9.24V534.33a5.43,5.43,0,0,0-5.41-5.41h-6.72a5.43,5.43,0,0,0-5.42,5.41v7.37a5.42,5.42,0,0,1-5.41,5.41h-3.47a5.43,5.43,0,0,1-5.42-5.41V527a15.07,15.07,0,0,1,3.83-9.24l15.9-15.91c2.11-2.1,5.33-3.83,7.16-3.83s5.06-1.72,7.16-3.82L860.3,465.8a15.07,15.07,0,0,0,3.83-9.24V416.69a15,15,0,0,1,3.83-9.24L884.1,391.3a5.43,5.43,0,0,0,0-7.66Z" fill="#e6e6e6" stroke="#fff" stroke-linecap="round" stroke-linejoin="round" stroke-width="2.87"/><path d="M961.89,508.19a15.06,15.06,0,0,1-9.24-3.83l-5.7-5.7a15,15,0,0,1-3.83-9.24V476.93a15.07,15.07,0,0,0-3.83-9.25l-3-3a15.07,15.07,0,0,0-9.24-3.83h-5.54a15.07,15.07,0,0,1-9.25-3.83l-2.84-2.84a5.43,5.43,0,0,0-7.66,0l-2.54,2.54a15.06,15.06,0,0,1-9.24,3.82H869.54c-3,0-5.41.33-5.41.72s-1.73,2.44-3.83,4.54l-28.42,28.42c-2.1,2.1-5.32,3.82-7.16,3.82s-5.05,1.73-7.16,3.83l-15.9,15.91a15.07,15.07,0,0,0-3.83,9.24V541.7a5.43,5.43,0,0,0,5.42,5.41h3.47a5.42,5.42,0,0,0,5.41-5.41v-7.37a5.43,5.43,0,0,1,5.42-5.41h6.72a5.43,5.43,0,0,1,5.41,5.41v11.39a15,15,0,0,0,3.83,9.24l6.93,6.94a5.44,5.44,0,0,0,7.66,0l7.32-7.33a5.44,5.44,0,0,1,7.66,0l2.54,2.54a5.44,5.44,0,0,0,7.66,0l5.31-5.32a15,15,0,0,0,3.83-9.24v-8.32a5.44,5.44,0,0,1,5.42-5.42H888a5.44,5.44,0,0,1,5.42,5.42v7.24a15.06,15.06,0,0,0,3.83,9.24l9.48,9.49a14.48,14.48,0,0,0,8.77,3.83,5.22,5.22,0,0,0,4.95-5.41,15.06,15.06,0,0,1,3.82-9.23l10.57-10.57a15.07,15.07,0,0,1,9.25-3.83h5.23a5.43,5.43,0,0,1,5.41,5.41v.29a5.44,5.44,0,0,0,5.42,5.42h.6a5.43,5.43,0,0,0,5.41-5.42v-1.21a15.12,15.12,0,0,1,3.83-9.25l.68-.68a15,15,0,0,0,3.83-9.24v-6.7a5.43,5.43,0,0,0-5.41-5.42Z" fill="#e6e6e6" stroke="#fff" stroke-linecap="round" stroke-linejoin="round" stroke-width="2.87"/><path d="M1239,444.05a5.43,5.43,0,0,0,5.42-5.41v-7.13a15.07,15.07,0,0,0-3.83-9.24l-14-14c-2.1-2.1-2.31-5.34-.47-7.18a14.21,14.21,0,0,0,3.36-8.78v-5.45a5.44,5.44,0,0,0-5.42-5.41h-35a15,15,0,0,1-9.24-3.83l-1.91-1.91a15.12,15.12,0,0,0-9.24-3.83h-8.39a5.44,5.44,0,0,0-5.42,5.42v2.17a15.07,15.07,0,0,1-3.83,9.25l-4.34,4.34a15,15,0,0,1-9.24,3.83h-30.29a15.07,15.07,0,0,0-9.25,3.83l-30.78,30.78a5.44,5.44,0,0,0,0,7.66l15.51,15.5a5.44,5.44,0,0,1,0,7.66l-2.18,2.18a5.44,5.44,0,0,1-7.66,0l-1-1a15.06,15.06,0,0,0-9.24-3.82h-28.91a15.11,15.11,0,0,0-9.24,3.82l-3.63,3.63a15.06,15.06,0,0,1-9.24,3.83h-3c-3,0-6.83-1.41-8.56-3.14s-5.59-3.15-8.56-3.15h-4.11a15.07,15.07,0,0,0-9.25,3.83l-4.93,4.93a5.43,5.43,0,0,1-7.65,0l-10.3-10.3a5.43,5.43,0,0,0-7.66,0L945,465.72c-2.11,2.11-3.39,4.27-2.85,4.81s1,3.42,1,6.4v12.49a15,15,0,0,0,3.83,9.24l5.7,5.7a15.62,15.62,0,0,0,9.24,3.95L992,509a14.55,14.55,0,0,0,9.25-3.71l2.18-2.18a15,15,0,0,1,9.24-3.83H1040a15.07,15.07,0,0,1,9.25,3.83l9.92,9.92a15.07,15.07,0,0,0,9.25,3.83h20.13a15.12,15.12,0,0,1,9.25,3.83l1.65,1.66a15.12,15.12,0,0,0,9.25,3.83h29.62a15.12,15.12,0,0,0,9.24-3.83l5.6-5.6a15.07,15.07,0,0,1,9.25-3.83h10.65c3,0,6.62-1.21,8.1-2.69s5.12-2.68,8.1-2.68h9.14c3,0,5.42-1.55,5.42-3.44s1.72-5.17,3.83-7.27l1.24-1.24,7.65-7.66,4.43-4.42c2.11-2.11,3.83-3.91,3.83-4s-1.72-1.89-3.83-4l-2.24-2.24a5.43,5.43,0,0,1,0-7.66l2.58-2.58c2.1-2.11,2.47-5.19.8-6.85a12.26,12.26,0,0,1-3-7.55c0-2.5,2.44-4.54,5.42-4.54Z" fill="#e6e6e6" stroke="#fff" stroke-linecap="round" stroke-linejoin="round" stroke-width="2.87"/><path d="M1283.7,311.45a15,15,0,0,0-9.24-3.83h-14.24a5.44,5.44,0,0,1-5.42-5.42v-3.59a5.43,5.43,0,0,0-5.41-5.42h-5.31c-3,0-5.42-1.77-5.42-3.95s-2.44-3.95-5.41-3.95H1230a5.44,5.44,0,0,0-5.41,5.42v7a5.43,5.43,0,0,1-5.42,5.41h-1.87a15.07,15.07,0,0,1-9.25-3.83l-3.67-3.67a15.07,15.07,0,0,1-3.83-9.25v-3.2a5.43,5.43,0,0,0-5.42-5.41h-3.64a15.07,15.07,0,0,1-9.24-3.83L1180,271.7a15.06,15.06,0,0,0-9.24-3.82H1142c-3,0-6.48-1.06-7.77-2.36s-4.79-2.36-7.77-2.36h-4.09a15.12,15.12,0,0,0-9.25,3.83l-6.61,6.62a15.12,15.12,0,0,1-9.25,3.83H1094a15.07,15.07,0,0,0-9.25,3.83l-5.78,5.78a15.06,15.06,0,0,1-9.24,3.82h-.42a15.07,15.07,0,0,0-9.24,3.83l-3.76,3.77c-2.11,2.1-5.26,3.82-7,3.82s-4.82,1.65-6.82,3.65a5.17,5.17,0,0,0,0,7.3,14.77,14.77,0,0,1,3.64,9.07v13a15.12,15.12,0,0,0,3.83,9.25l9,9a15.12,15.12,0,0,0,9.25,3.83h6a15.11,15.11,0,0,1,9.25,3.82L1106,383.81a14,14,0,0,1,3.83,8.45c0,2.55,1.54,4.63,3.42,4.63h24.19a15,15,0,0,0,9.24-3.83l4.34-4.34a15.07,15.07,0,0,0,3.83-9.25V377.3a5.44,5.44,0,0,1,5.42-5.42h8.39a15.12,15.12,0,0,1,9.24,3.83l1.91,1.91a15,15,0,0,0,9.24,3.83h35c3,0,5.42,0,5.42,0s1.44-1.41,3.21-3.17,5.64-3.21,8.62-3.21h20.59a15.07,15.07,0,0,0,9.25-3.83l1.78-1.78a15.07,15.07,0,0,0,3.83-9.25V357a15,15,0,0,1,3.83-9.24l15.87-15.87a5.44,5.44,0,0,0,0-7.66Z" fill="#e6e6e6" stroke="#fff" stroke-linecap="round" stroke-linejoin="round" stroke-width="2.87"/><path d="M1450.2,387.41a15,15,0,0,0-9.24-3.83h-14.18a15,15,0,0,1-9.24-3.83l-4.94-4.94a5.43,5.43,0,0,0-7.66,0l-4.35,4.35a15.07,15.07,0,0,1-9.25,3.83h-5.71a15.06,15.06,0,0,0-9.24,3.83l-12.82,12.82a15.07,15.07,0,0,1-9.24,3.83h-16.74a5.43,5.43,0,0,0-5.41,5.41v1a5.44,5.44,0,0,1-5.42,5.42h-9.45a5.43,5.43,0,0,0-5.41,5.41v1.19a15.06,15.06,0,0,1-3.83,9.24l-2,2a15.12,15.12,0,0,1-9.24,3.83h-28.16a15.1,15.1,0,0,1-9.24-3.83l-4.55-4.55c-2.11-2.11-5.63-3.83-7.82-3.83s-3.69.31-3.32.68.69,3.12.69,6.1v7.13a5.43,5.43,0,0,1-5.42,5.41h-14.51c-3,0-5.42,2-5.42,4.54a12.26,12.26,0,0,0,3,7.55c1.67,1.66,1.3,4.74-.8,6.85l-2.58,2.58a5.43,5.43,0,0,0,0,7.66l2.24,2.24c2.11,2.11,3.83,3.91,3.83,4s-1.72,1.89-3.83,4l-4.43,4.42-6.33,6.33c-1.38,1.38-.78,4.23,1.33,6.34l25.06,25.06a15.06,15.06,0,0,0,9.24,3.83h.62a15,15,0,0,1,9.24,3.83l10.83,10.83a15.07,15.07,0,0,0,9.24,3.83h24.56a15.12,15.12,0,0,0,9.25-3.83l5.38-5.39a15.12,15.12,0,0,1,9.25-3.83h8.37a15.06,15.06,0,0,0,9.24-3.82l8.58-8.58a15.06,15.06,0,0,1,9.24-3.83h40.18a15.07,15.07,0,0,0,9.24-3.83l11.06-11.06a15.06,15.06,0,0,0,3.83-9.24V479.39a15,15,0,0,1,3.83-9.24l10.48-10.48a15.07,15.07,0,0,0,3.83-9.25v-10a15,15,0,0,1,3.83-9.24l14-14.05a15.12,15.12,0,0,0,3.83-9.24v-1.48a15.07,15.07,0,0,0-3.83-9.24Z" fill="#e6e6e6" stroke="#fff" stroke-linecap="round" stroke-linejoin="round" stroke-width="2.87"/><path d="M1298.38,326.12c1.06,1.06.2,3.65-1.9,5.76l-15.87,15.87a15,15,0,0,0-3.83,9.24v3.25a15.07,15.07,0,0,1-3.83,9.25l-1.78,1.78a15.07,15.07,0,0,1-9.25,3.83h-20.59c-3,0-6.86,1.45-8.62,3.21s-3.21,5.64-3.21,8.62v5.38a14.21,14.21,0,0,1-3.36,8.78c-1.84,1.84-1.63,5.08.47,7.18l14,14,3.14,3.14c-.37-.37,1.12-.68,3.32-.68s5.71,1.72,7.82,3.83l4.55,4.55a15.1,15.1,0,0,0,9.24,3.83h28.16a15.12,15.12,0,0,0,9.24-3.83l2-2a15.06,15.06,0,0,0,3.83-9.24v-1.19a5.43,5.43,0,0,1,5.41-5.41h9.45a5.44,5.44,0,0,0,5.42-5.42v-1a5.43,5.43,0,0,1,5.41-5.41h16.74a15.07,15.07,0,0,0,9.24-3.83l12.82-12.82a15.06,15.06,0,0,1,9.24-3.83h5.71a15.07,15.07,0,0,0,9.25-3.83l4.35-4.35a5.43,5.43,0,0,1,7.66,0l4.94,4.94a15,15,0,0,0,9.24,3.83h10.9a5.43,5.43,0,0,0,5.41-5.41V342.44a15,15,0,0,0-3.83-9.24l-12.64-12.65a15.07,15.07,0,0,0-9.25-3.83h-10.64a15,15,0,0,0-9.24,3.83l-4,4a15,15,0,0,1-9.24,3.83h-13a15.07,15.07,0,0,0-9.25,3.83l-3.54,3.54a15.07,15.07,0,0,1-9.25,3.83h-3.64a15,15,0,0,1-9.24-3.83l-7.75-7.74a15,15,0,0,0-9.24-3.83h-17.49C1298.88,324.19,1297.31,325.06,1298.38,326.12Z" fill="#e6e6e6" stroke="#fff" stroke-linecap="round" stroke-linejoin="round" stroke-width="2.87"/><path d="M1713.3,584.12a5.44,5.44,0,0,1,7.66,0l6.16,6.17a15.12,15.12,0,0,0,9.25,3.83h9.5a5.44,5.44,0,0,0,5.42-5.42V570.18a15.12,15.12,0,0,0-3.83-9.25L1745,558.5a15.07,15.07,0,0,1-3.83-9.25V519.11a5.44,5.44,0,0,1,5.42-5.42h1a5.4,5.4,0,0,1,5.42,5.35,5.39,5.39,0,0,0,5.41,5.34h.45a15.07,15.07,0,0,0,9.25-3.83l3.62-3.62a15.06,15.06,0,0,0,3.83-9.24v-5.35a15.06,15.06,0,0,0-3.83-9.24l-3.31-3.31a15,15,0,0,0-9.24-3.83h-3.48a15.07,15.07,0,0,0-9.25,3.83l-5.19,5.19a15.06,15.06,0,0,1-9.24,3.83h-15.73a5.42,5.42,0,0,1-5.41-5.41v-4.81a15.12,15.12,0,0,0-3.83-9.25l-6.77-6.77a15.06,15.06,0,0,1-3.83-9.24V431.72a15.12,15.12,0,0,0-3.83-9.25l-22.17-22.17a15.12,15.12,0,0,0-9.25-3.83h-9a5.43,5.43,0,0,1-5.42-5.41V385.4a15.06,15.06,0,0,0-3.82-9.24l-27-27a5.43,5.43,0,0,0-7.65,0l-6.17,6.17a15.12,15.12,0,0,0-3.83,9.24v12.21a5.43,5.43,0,0,1-5.41,5.42h-12.21a15,15,0,0,0-9.24,3.83l-9.08,9.07a15,15,0,0,1-9.24,3.83h-2.75a15.07,15.07,0,0,1-9.25-3.83l-4.95-4.95a15.06,15.06,0,0,0-9.24-3.83h-44.47a15.06,15.06,0,0,0-9.24,3.83l-6.33,6.32c-2.1,2.11-3.66,4-3.46,4.2a26,26,0,0,1,.37,5.78v1.48a15.12,15.12,0,0,1-3.83,9.24l-14,14.05a15,15,0,0,0-3.83,9.24v10a15.07,15.07,0,0,1-3.83,9.25l-10.48,10.48a15,15,0,0,0-3.83,9.24v15.14a15.06,15.06,0,0,1-3.83,9.24l-11.06,11.06a15.07,15.07,0,0,1-9.24,3.83h-21.56c-.64,0,.56,1.72,2.67,3.83l18.57,18.57a15,15,0,0,1,3.83,9.24v2.27a5.42,5.42,0,0,0,5.41,5.41h23.61a5.43,5.43,0,0,1,5.41,5.42V588a5.44,5.44,0,0,0,5.42,5.42h46.89a5.39,5.39,0,0,1,5.41,5.33c0,2.94-2,5.34-4.36,5.34s-4.37,2.44-4.37,5.41v2.27a5.43,5.43,0,0,0,5.42,5.41H1509a5.4,5.4,0,0,1,5.42,5.34,15,15,0,0,1-3.83,9.16l-.11.11c-2.1,2.1-1.39,3.83,1.59,3.83h48.34a15.12,15.12,0,0,0,9.25-3.83l1.8-1.8a15,15,0,0,1,9.24-3.83h39.85a15.12,15.12,0,0,0,9.25-3.83l4.83-4.83a15.12,15.12,0,0,0,3.83-9.25v-5.54a5.43,5.43,0,0,1,5.41-5.41h13.54a15.07,15.07,0,0,0,9.25-3.83l6.89-6.89a15.06,15.06,0,0,1,9.24-3.83h9.55a15.06,15.06,0,0,1,9.24,3.83l.83.83a5.44,5.44,0,0,0,7.66,0Z" fill="#e6e6e6" stroke="#fff" stroke-linecap="round" stroke-linejoin="round" stroke-width="2.87"/><path d="M1643,376.16a15.06,15.06,0,0,1,3.82,9.24v5.66a5.43,5.43,0,0,0,5.42,5.41h9a15.12,15.12,0,0,1,9.25,3.83l22.17,22.17a15.12,15.12,0,0,1,3.83,9.25v31.61a15.06,15.06,0,0,0,3.83,9.24l6.77,6.77c2.1,2.11,3.83,5.13,3.83,6.72s2.43,2.89,5.41,2.89h1a5.42,5.42,0,0,0,5.41-5.41v-6.43a15.12,15.12,0,0,1,3.83-9.24l1.76-1.75a15.12,15.12,0,0,0,3.83-9.25V432.8a5.43,5.43,0,0,1,5.41-5.42h18.19a5.43,5.43,0,0,0,5.42-5.41V403.78a5.44,5.44,0,0,0-5.42-5.42h-13.88a5.43,5.43,0,0,1-5.41-5.41V378.28a5.44,5.44,0,0,0-5.42-5.41h-14.27a5.44,5.44,0,0,1-5.41-5.42V350.83a5.43,5.43,0,0,0-5.42-5.41h-42.5a15.12,15.12,0,0,1-9.25-3.83l-12.14-12.15a5.43,5.43,0,0,0-7.66,0l-15.27,15.27a5.43,5.43,0,0,0,0,7.65Z" fill="#fbaf17" stroke="#fff" stroke-linecap="round" stroke-linejoin="round" stroke-width="2.87"/><path d="M2007.25,432.31a15.12,15.12,0,0,1,9.24-3.83h13.82a15,15,0,0,0,9.24-3.83l.81-.8a15.11,15.11,0,0,0,3.82-9.24v-6.54a5.43,5.43,0,0,0-5.41-5.42h-6a15.06,15.06,0,0,0-9.24,3.83l-6.3,6.3-7.65,7.66-2.74,2.73a15.07,15.07,0,0,1-9.24,3.83h-8.77a15.07,15.07,0,0,1-9.24-3.83l-8.08-8.08-7.66-7.66-3.62-3.62a5.43,5.43,0,0,0-7.66,0l-1.25,1.25a5.44,5.44,0,0,1-7.66,0l-4.81-4.81c-2.11-2.11-5.9-3.83-8.43-3.83s-2.88-1.73-.77-3.83l4.36-4.37a15.07,15.07,0,0,1,9.25-3.83h6.83a15.07,15.07,0,0,0,9.25-3.83l85.34-85.35a15.11,15.11,0,0,1,9.25-3.82h12.55a5.43,5.43,0,0,0,5.41-5.42v-6.76c0-3,1.1-6.51,2.44-7.85s.71-4.16-1.39-6.27l-3.28-3.27a5.43,5.43,0,0,1,0-7.66l1.37-1.37a15.12,15.12,0,0,0,3.83-9.25v-6a5.43,5.43,0,0,1,5.41-5.42h15a15.06,15.06,0,0,0,9.24-3.83l3-3a15.11,15.11,0,0,0,3.82-9.25v-17.7a15.06,15.06,0,0,0-3.82-9.24l-17.27-17.26a5.44,5.44,0,0,1,0-7.66l1.74-1.73a15.11,15.11,0,0,0,3.82-9.25V122.91a5.43,5.43,0,0,0-5.41-5.42h-49.12a15.12,15.12,0,0,0-9.25,3.83l-9.68,9.68a15,15,0,0,1-9.24,3.83h-11.56a15.07,15.07,0,0,1-9.25-3.83l-18.52-18.53a5.44,5.44,0,0,0-7.66,0l-11.66,11.67a15.12,15.12,0,0,1-9.25,3.83h-35a15.12,15.12,0,0,1-9.24-3.83l-17.26-17.26a15.07,15.07,0,0,0-9.25-3.83h-22.39a5.44,5.44,0,0,1-5.42-5.42V86.79a15,15,0,0,0-3.83-9.24L1825.2,59.92A15.11,15.11,0,0,0,1816,56.1h-28.89a15.11,15.11,0,0,0-9.25,3.82L1771.75,66l-7.66,7.66-14.74,14.73a15,15,0,0,1-9.24,3.83h-22.4a5.43,5.43,0,0,0-5.41,5.42V148.1a5.44,5.44,0,0,1-5.42,5.42h-18.69a15.07,15.07,0,0,1-9.25-3.83l-4-4a15.07,15.07,0,0,0-9.24-3.83h-48.58a15.12,15.12,0,0,0-9.25,3.83l-14.55,14.56a15.11,15.11,0,0,1-9.24,3.82h-89.22a15.12,15.12,0,0,0-9.24,3.83l-7.15,7.15a15.06,15.06,0,0,1-9.24,3.83h-15.63a5.43,5.43,0,0,0-5.41,5.42v4.79a15.06,15.06,0,0,0,3.82,9.24l25.84,25.84a15.07,15.07,0,0,1,3.83,9.25v22.21a15.07,15.07,0,0,1-3.83,9.25l-26.47,26.47a15.07,15.07,0,0,0-3.83,9.24v8.31a15.12,15.12,0,0,0,3.83,9.25l1.37,1.37a15,15,0,0,1,3.83,9.24v1.45a5.43,5.43,0,0,1-5.41,5.42h-4.06c-3,0-5.1.31-4.72.69s.69,3.13.69,6.11v35.73c0,3,.74,5.41,1.64,5.41s3.37,1.72,5.47,3.83l9.77,9.77,3.46,3.46c-.2-.2,1.36-2.09,3.46-4.2l6.33-6.32a15.06,15.06,0,0,1,9.24-3.83h44.47a15.06,15.06,0,0,1,9.24,3.83l4.95,4.95a15.07,15.07,0,0,0,9.25,3.83h2.75a15,15,0,0,0,9.24-3.83l9.08-9.07a15,15,0,0,1,9.24-3.83h12.21a5.43,5.43,0,0,0,5.41-5.42V364.54a15.12,15.12,0,0,1,3.83-9.24l6.17-6.17c2.1-2.1,4.55-3.1,5.44-2.21s3.34-.11,5.44-2.21l15.27-15.27a5.43,5.43,0,0,1,7.66,0l12.14,12.15a15.12,15.12,0,0,0,9.25,3.83H1706a5.43,5.43,0,0,1,5.42,5.41v16.62a5.44,5.44,0,0,0,5.41,5.42h14.27a5.44,5.44,0,0,1,5.42,5.41V393a5.43,5.43,0,0,0,5.41,5.41h13.88a5.44,5.44,0,0,1,5.42,5.42V422a5.43,5.43,0,0,1-5.42,5.41h-18.19a5.43,5.43,0,0,0-5.41,5.42v24.07a15.12,15.12,0,0,1-3.83,9.25l-1.76,1.75a15.12,15.12,0,0,0-3.83,9.24v6.43a5.42,5.42,0,0,1-5.41,5.41h-1a5,5,0,1,0,0,9.86h15.73a15.06,15.06,0,0,0,9.24-3.83l5.19-5.19a15.07,15.07,0,0,1,9.25-3.83h3.48a15,15,0,0,1,9.24,3.83l3.31,3.31c2.11,2.11,3.83,1.46,3.83-1.45a14.85,14.85,0,0,0-3.83-9.1l-3.92-3.92a5.44,5.44,0,0,1,0-7.66l14.32-14.31a15.11,15.11,0,0,0,3.82-9.25V436a15.12,15.12,0,0,1,3.83-9.25l20.4-20.4,7.66-7.66,4.81-4.81A15.12,15.12,0,0,1,1832,390h14.26a5.44,5.44,0,0,1,5.41,5.42v7.72a5.44,5.44,0,0,0,5.42,5.42h11.73a15,15,0,0,0,9.24-3.83l9.86-9.86a5.44,5.44,0,0,1,7.66,0l8.08,8.08a5.43,5.43,0,0,0,7.66,0l.06-.06a5.43,5.43,0,0,1,7.66,0l3.62,3.62a5.43,5.43,0,0,1,0,7.66l-34.5,34.5a5.43,5.43,0,0,0,0,7.66l.06.06a5.43,5.43,0,0,0,7.66,0l3.33-3.33a5.43,5.43,0,0,1,7.65,0l6,6a5.43,5.43,0,0,0,7.66,0l1.84-1.84a5.44,5.44,0,0,1,7.66,0l11.64,11.64a5.43,5.43,0,0,1,0,7.66l-5.7,5.7a5.43,5.43,0,0,0,0,7.66l2.14,2.14a15.06,15.06,0,0,0,9.24,3.83h8.18a15,15,0,0,0,9.24-3.83l7.78-7.78a15.06,15.06,0,0,0,3.83-9.24v-6.39a15.07,15.07,0,0,1,3.83-9.25l17-17,7.65-7.66Z" fill="#fbaf17" stroke="#fff" stroke-linecap="round" stroke-linejoin="round" stroke-width="2.87"/><path d="M853,164.42a5.44,5.44,0,0,0,5.42-5.42V141.34c0-3-.38-5-.84-4.59s-2.55-.89-4.66-3l-2.53-2.54a15.12,15.12,0,0,0-9.25-3.83H803.05a15.07,15.07,0,0,0-9.24,3.83l-5.08,5.08L781.07,144,767.83,157.2a15.1,15.1,0,0,0-3.83,9.24v16.69a15.07,15.07,0,0,1-3.83,9.25L742.35,210.2a15,15,0,0,0-3.83,9.24v8.67a5.44,5.44,0,0,0,5.42,5.42h35.59a15.07,15.07,0,0,1,9.25,3.83l3.54,3.54a15.07,15.07,0,0,1,3.83,9.25v19a5.44,5.44,0,0,0,5.42,5.42h6A5.43,5.43,0,0,0,813,269.2v-57a5.44,5.44,0,0,1,5.42-5.42h15.94a15.11,15.11,0,0,0,9.25-3.82l5.72-5.73a5.43,5.43,0,0,0,0-7.66l-7-7a15.07,15.07,0,0,1-3.83-9.25v-3.49a5.43,5.43,0,0,1,5.42-5.41Z" fill="#e6e6e6" stroke="#fff" stroke-linecap="round" stroke-linejoin="round" stroke-width="2.87"/><path d="M798.17,313.66a5.44,5.44,0,0,0-5.42,5.42v7.73a14.55,14.55,0,0,0,3.55,9,5.24,5.24,0,0,1-.28,7.38l-8.73,8.73c-2.1,2.1-1.39,3.83,1.59,3.83h27.59c3,0,5.72.3,6.09.68s.68-1.76.68-4.74V329.17a15,15,0,0,0-3.83-9.24l-.33-.34c-2.1-2.1-3.35-4.3-2.77-4.88s-1.39-1-4.37-1Z" fill="#e6e6e6" stroke="#fff" stroke-linecap="round" stroke-linejoin="round" stroke-width="2.87"/><path d="M816.79,276.89c-2.1-2.11-3.83-3.48-3.83-3.05s-2.43.78-5.41.78h-6a5.44,5.44,0,0,1-5.42-5.42v-19a15.07,15.07,0,0,0-3.83-9.25l-3.54-3.54a15.07,15.07,0,0,0-9.25-3.83H743.94a5.25,5.25,0,0,0-5.42,5,5.25,5.25,0,0,1-5.41,5h-31a15.11,15.11,0,0,0-9.25,3.82l-9.71,9.72a5.43,5.43,0,0,0,0,7.66l44.52,44.52a15.12,15.12,0,0,0,9.24,3.83h15.82a5.43,5.43,0,0,1,5.42,5.41v9.32a15,15,0,0,0,3.83,9.24l14.76,14.77c2.11,2.1,4.47,3.83,5.26,3.83s3.15-1.73,5.25-3.83l8.73-8.73a5.24,5.24,0,0,0,.28-7.38,14.55,14.55,0,0,1-3.55-9v-7.73a5.44,5.44,0,0,1,5.42-5.42h13.77a15.07,15.07,0,0,0,9.25-3.83l2.22-2.22a15.12,15.12,0,0,0,3.83-9.24v-5.63a15.12,15.12,0,0,0-3.83-9.24Z" fill="#e6e6e6" stroke="#fff" stroke-linecap="round" stroke-linejoin="round" stroke-width="2.87"/><path d="M1072.83,464.5a5.44,5.44,0,0,0,7.66,0l2.18-2.18a5.44,5.44,0,0,0,0-7.66l-15.51-15.5a5.44,5.44,0,0,1,0-7.66l30.78-30.78c2.11-2.11,5.65-3.83,7.88-3.83a4.38,4.38,0,0,0,4-4.63,14,14,0,0,0-3.83-8.45l-22.56-22.57a15.11,15.11,0,0,0-9.25-3.82h-6a15.12,15.12,0,0,1-9.25-3.83l-9-9a15.12,15.12,0,0,1-3.83-9.25v-13a14.77,14.77,0,0,0-3.64-9.07,5.17,5.17,0,0,1,0-7.3c2-2,5.07-3.65,6.82-3.65s4.9-1.72,7-3.82l3.76-3.77a15.07,15.07,0,0,1,9.24-3.83h.42a15.06,15.06,0,0,0,9.24-3.82l5.78-5.78a15.07,15.07,0,0,1,9.25-3.83h3.2a15.12,15.12,0,0,0,9.25-3.83l6.61-6.62a15.12,15.12,0,0,1,9.25-3.83h4.09c3,0,6.47,1.06,7.77,2.36a9.25,9.25,0,0,0,5.7,2.36c1.84,0,3.35-2.44,3.35-5.42V239.88a15.07,15.07,0,0,0-3.83-9.25L1125,216.19a15.07,15.07,0,0,1-3.83-9.25V187.89a15.07,15.07,0,0,0-3.83-9.25l-12.27-12.26a15.12,15.12,0,0,1-3.83-9.25v-2.86a15.12,15.12,0,0,1,3.83-9.25l2.31-2.3a15.12,15.12,0,0,0,3.83-9.25V106.31c0-3-1.76-5.42-3.9-5.42s-5.62-1.72-7.72-3.83l-17.83-17.82a5.44,5.44,0,0,1,0-7.66l6.11-6.1a5.44,5.44,0,0,0,0-7.66l-3.56-3.55a5.43,5.43,0,0,0-7.66,0l-5.08,5.08a15,15,0,0,1-9.24,3.83h-16.69a15.12,15.12,0,0,0-9.25,3.83l-18.84,18.84a15,15,0,0,1-9.24,3.83H997.72a5.43,5.43,0,0,1-5.41-5.41V75.73a5.43,5.43,0,0,0-5.42-5.41H965.62a5.44,5.44,0,0,1-5.42-5.42V51.78a15.06,15.06,0,0,0-3.82-9.24l-9.16-9.16h0l8.09,8.09c2.1,2.1,1.39,3.83-1.59,3.83H941.47a15.12,15.12,0,0,1-9.25-3.83l-.63-.63A15,15,0,0,0,922.35,37h-5.91a33.74,33.74,0,0,0-5.41.22,53.05,53.05,0,0,0,3.83,4.05l7.88,7.88a15.06,15.06,0,0,1,3.83,9.24V81.72A15,15,0,0,1,922.74,91l-19.86,19.86a5.43,5.43,0,0,1-7.66,0l-2-2A15.07,15.07,0,0,0,884,105H872.36a5.44,5.44,0,0,0-5.42,5.42V122a15.06,15.06,0,0,1-3.82,9.24l-.88.87a15.11,15.11,0,0,0-3.82,9.25V159a5.44,5.44,0,0,1-5.42,5.42h-9.09a5.43,5.43,0,0,0-5.42,5.41v3.49a15.07,15.07,0,0,0,3.83,9.25l7,7a5.43,5.43,0,0,1,0,7.66l-5.72,5.73a15.11,15.11,0,0,1-9.25,3.82H818.38a5.44,5.44,0,0,0-5.42,5.42v55.47a15.12,15.12,0,0,0,3.83,9.25l6.62,6.61a15.12,15.12,0,0,1,3.83,9.24v5.63a15.12,15.12,0,0,1-3.83,9.24l-2.22,2.22-4.88,4.88c-.58.58.67,2.78,2.77,4.88l.33.34a15,15,0,0,1,3.83,9.24v22.48a15.12,15.12,0,0,0,3.83,9.25l4.79,4.79a15.07,15.07,0,0,0,9.25,3.83h23.45a15.07,15.07,0,0,1,9.25,3.83l10.29,10.29a5.43,5.43,0,0,1,0,7.66L868,407.45a15,15,0,0,0-3.83,9.24v38.44a5.42,5.42,0,0,0,5.41,5.41H890a15.06,15.06,0,0,0,9.24-3.82l2.54-2.54a5.43,5.43,0,0,1,7.66,0l2.84,2.84a15.07,15.07,0,0,0,9.25,3.83h5.54a15.07,15.07,0,0,1,9.24,3.83l1,1a5.43,5.43,0,0,0,7.66,0l2.57-2.56a5.43,5.43,0,0,1,7.66,0l10.3,10.3a5.43,5.43,0,0,0,7.65,0l4.93-4.93a15.07,15.07,0,0,1,9.25-3.83h4.11c3,0,6.83,1.41,8.56,3.15s5.58,3.14,8.56,3.14h3a15.06,15.06,0,0,0,9.24-3.83l3.63-3.63a15.11,15.11,0,0,1,9.24-3.82h28.91a15.06,15.06,0,0,1,9.24,3.82Z" fill="#e6e6e6" stroke="#fff" stroke-linecap="round" stroke-linejoin="round" stroke-width="2.87"/><path d="M1105.06,145a15.12,15.12,0,0,0-3.83,9.25v2.86a15.12,15.12,0,0,0,3.83,9.25l12.27,12.26a15.07,15.07,0,0,1,3.83,9.25v19.05a15.07,15.07,0,0,0,3.83,9.25l14.44,14.44a15.07,15.07,0,0,1,3.83,9.25v22.58a5.44,5.44,0,0,0,5.42,5.42h22.06a15.06,15.06,0,0,1,9.24,3.82l2.26,2.26a15.07,15.07,0,0,0,9.24,3.83h3.64a5.43,5.43,0,0,1,5.42,5.41v3.2a15.07,15.07,0,0,0,3.83,9.25l3.67,3.67a15.07,15.07,0,0,0,9.25,3.83h1.87a5.43,5.43,0,0,0,5.42-5.41v-7a5.44,5.44,0,0,1,5.41-5.42h3.26c3,0,5.41,1.78,5.41,3.95s2.44,3.95,5.42,3.95h5.31a5.43,5.43,0,0,1,5.41,5.42v3.59a5.44,5.44,0,0,0,5.42,5.42h14.24a15,15,0,0,1,9.24,3.83l12.78,12.77c2.1,2.11,3,3,1.9,1.9s.5-1.93,3.48-1.93h17.49a15,15,0,0,1,9.24,3.83l7.75,7.74a15,15,0,0,0,9.24,3.83h3.64a15.07,15.07,0,0,0,9.25-3.83l3.54-3.54a15.07,15.07,0,0,1,9.25-3.83h13a15,15,0,0,0,9.24-3.83l4-4a15,15,0,0,1,9.24-3.83h10.64a15.07,15.07,0,0,1,9.25,3.83l11.25,11.26a15.12,15.12,0,0,0,9.25,3.83h4.06a5.43,5.43,0,0,0,5.41-5.42v-1.45a15,15,0,0,0-3.83-9.24l-1.37-1.37a15.12,15.12,0,0,1-3.83-9.25V300.6a15.07,15.07,0,0,1,3.83-9.24l26.47-26.47a15.07,15.07,0,0,0,3.83-9.25V233.43a15.07,15.07,0,0,0-3.83-9.25L1452,198.34a15.06,15.06,0,0,1-3.82-9.24v-4.79c0-3,.26-5.42.58-5.42s.59-2.43.59-5.41v-5.43a15,15,0,0,0-3.83-9.24l-5.69-5.69a15.12,15.12,0,0,1-3.83-9.25V125a5.43,5.43,0,0,1,5.42-5.41h12.09a5.44,5.44,0,0,0,5.41-5.42V85.44a15,15,0,0,0-3.83-9.24l-23.82-23.83a15,15,0,0,1-3.83-9.24V27.77a5.44,5.44,0,0,0-5.42-5.42h-19.89a15.07,15.07,0,0,0-9.25,3.83l-7,7a15,15,0,0,1-9.24,3.83h-61a5.43,5.43,0,0,0-5.41,5.41v5.2a5.44,5.44,0,0,1-5.42,5.42h-53.38a5.43,5.43,0,0,1-5.41-5.42V40.06a5.44,5.44,0,0,0-5.42-5.42H1225a15.07,15.07,0,0,0-9.24,3.83L1203,51.2c-2.1,2.11-5.55,5.55-7.66,7.66L1174.5,79.74a15.07,15.07,0,0,1-9.24,3.83h-36a5.43,5.43,0,0,0-5.42,5.41v6.5a5.43,5.43,0,0,1-5.41,5.41h-1.77a5.43,5.43,0,0,0-5.41,5.42v27.16a15.12,15.12,0,0,1-3.83,9.25Z" fill="#e6e6e6" stroke="#fff" stroke-linecap="round" stroke-linejoin="round" stroke-width="2.87"/><path d="M1753.32,710.5a15.07,15.07,0,0,0-9.24-3.83h-13.41a15.06,15.06,0,0,1-9.24-3.83l-3.38-3.38a5.44,5.44,0,0,0-7.66,0L1687.82,722a5.41,5.41,0,0,0,0,7.65L1699.1,741a5.43,5.43,0,0,1,0,7.66l-5.76,5.76a15.07,15.07,0,0,0-3.83,9.25V771a15.07,15.07,0,0,1-3.83,9.25l-.85.85a15,15,0,0,0-3.83,9.24,5.44,5.44,0,0,0,5.41,5.42H1693a15.12,15.12,0,0,0,9.25-3.83l5.1-5.11a5.43,5.43,0,0,1,7.66,0l1.85,1.84a5.44,5.44,0,0,1,0,7.66l-12.83,12.83c-2.11,2.1-2.7,5-1.31,6.35s4.25.8,6.35-1.31l18.47-18.47,7.66-7.65,6-6a15.07,15.07,0,0,0,3.83-9.25V765a5.44,5.44,0,0,1,5.42-5.42h10.84a15,15,0,0,0,9.24-3.83l5.11-5.11a15.11,15.11,0,0,1,9.25-3.82h15a5.43,5.43,0,0,0,5.41-5.42v-2.53a5.42,5.42,0,0,0-5.41-5.41h-18.27a15.07,15.07,0,0,1-9.24-3.83Z" fill="#e6e6e6" stroke="#fff" stroke-linecap="round" stroke-linejoin="round" stroke-width="2.87"/><path d="M1688.87,1132.89c3,0,5.42,2.17,5.42,4.81s2.43,4.81,5.41,4.81H1704a15.07,15.07,0,0,0,9.25-3.83l4.93-4.93a15.06,15.06,0,0,1,9.24-3.83h15.5a14.24,14.24,0,0,0,8.8-3.38,14.19,14.19,0,0,1,8.79-3.38h.27a5.43,5.43,0,0,0,5.42-5.41V1114a5.36,5.36,0,0,0-5.27-5.42,14.89,14.89,0,0,0-9.09,3.83l-5.62,5.62a5.43,5.43,0,0,1-7.66,0l-4-4a15.07,15.07,0,0,0-9.25-3.83h-18.7a15.07,15.07,0,0,0-9.25,3.83l-4.13,4.13A15.07,15.07,0,0,1,1684,1122h-12.64a15.07,15.07,0,0,1-9.24-3.83l-.42-.41a15,15,0,0,0-9.24-3.83h-18.65a5.42,5.42,0,0,0-5.41,5.41v8.12a5.42,5.42,0,0,0,5.41,5.41Z" fill="#e6e6e6" stroke="#fff" stroke-linecap="round" stroke-linejoin="round" stroke-width="2.87"/><path d="M1592.19,809.17a5.43,5.43,0,0,0,7.66,0l15-14.95c2.11-2.1,5.06-2.6,6.56-1.1s4.45,1,6.56-1.1l6.53-6.53a15.07,15.07,0,0,1,9.24-3.83h31.89c3,0,5.42.74,5.42,1.64s1.72-.09,3.83-2.2l.85-.85a15.07,15.07,0,0,0,3.83-9.25v-7.35a15.07,15.07,0,0,1,3.83-9.25l5.76-5.76a5.43,5.43,0,0,0,0-7.66l-7-7.06a15,15,0,0,0-9.17-3.83,5.39,5.39,0,0,0-5.33,5.42v8.9a15.1,15.1,0,0,1-3.83,9.24l-10.63,10.63a15.07,15.07,0,0,1-9.24,3.83h-4.79a15.12,15.12,0,0,1-9.25-3.83l-2.72-2.73a15.12,15.12,0,0,0-9.25-3.83h-37a15.07,15.07,0,0,0-9.24,3.83l-5.53,5.53a15.06,15.06,0,0,1-9.24,3.82h-4.34a15.12,15.12,0,0,0-9.25,3.83l-22,22a15.07,15.07,0,0,1-9.25,3.83h-22.39a5.44,5.44,0,0,0-5.42,5.42v1.35a5.43,5.43,0,0,1-5.41,5.42h-5.15a15.07,15.07,0,0,0-9.25,3.83l-6.52,6.52a15.07,15.07,0,0,0-3.83,9.24V844a15.11,15.11,0,0,1-3.82,9.25L1435,878.49a5.43,5.43,0,0,0,0,7.66l5,5a5.43,5.43,0,0,1,0,7.66l-6.44,6.45c-2.11,2.1-2.39,5.27-.62,7l7,7,11,11a15.07,15.07,0,0,0,9.24,3.83H1474a5.43,5.43,0,0,1,5.42,5.41v1.74a15.11,15.11,0,0,0,3.82,9.25l6.53,6.52a15,15,0,0,0,9.24,3.83h63.52a15.07,15.07,0,0,1,9.25,3.83l3.93,3.93a5.44,5.44,0,0,1,0,7.66l-2,2a15.12,15.12,0,0,1-9.25,3.83h-16.86a15.12,15.12,0,0,1-9.25-3.83l-1.57-1.58a15.12,15.12,0,0,0-9.25-3.83h-9a15.07,15.07,0,0,0-9.24,3.83l-16.08,16.08a5.43,5.43,0,0,0,0,7.66l22,22a15,15,0,0,1,3.83,9.24v5.66a15,15,0,0,0,3.83,9.24l7.18,7.18c2.1,2.11,5.83,3.83,8.28,3.83s4.45-2.44,4.45-5.41v-6.65c0-3,1.72-3.69,3.83-1.58l19.38,19.37c2.1,2.11,5.16,3.83,6.79,3.83s3-2.43,3-5.41v-5c0-3,1.72-3.69,3.83-1.58l9.82,9.81a5.13,5.13,0,1,0,7.25-7.25l-6.19-6.19a15.12,15.12,0,0,1-3.83-9.25v-11.92a15.06,15.06,0,0,0-3.83-9.24l-10.64-10.64c-2.1-2.11-1.39-3.83,1.59-3.83h23a5.44,5.44,0,0,0,5.42-5.41v-.55a5.44,5.44,0,0,0-5.42-5.42h-7.63a5.42,5.42,0,0,1-5.41-5.41v-3.68a15.06,15.06,0,0,1,3.82-9.24l1.91-1.91a5.44,5.44,0,0,1,7.66,0l15.09,15.1a5.44,5.44,0,0,0,7.66,0l8.16-8.17a5.43,5.43,0,0,0,0-7.66l-17.73-17.73-7.65-7.66-2.24-2.23a15,15,0,0,0-9.24-3.83h-14.56a15,15,0,0,1-9.24-3.83l-9.33-9.32a5.44,5.44,0,0,1,0-7.66l3.72-3.72a5.41,5.41,0,0,0,0-7.65l-3.22-3.23a5.43,5.43,0,0,1,0-7.66l.25-.25a5.43,5.43,0,0,1,7.66,0l3.22,3.22c2.11,2.11,5.32,2.35,7.13.53s1.58-5-.53-7.12l-36.85-36.86a15,15,0,0,1-3.83-9.24V838.43a15,15,0,0,1,3.83-9.24l3.55-3.56a5.44,5.44,0,0,1,7.66,0l1.15,1.16a15,15,0,0,1,3.83,9.24v2.9a5.42,5.42,0,0,0,5.41,5.41h.39a5.44,5.44,0,0,1,5.42,5.42v4.45a5.42,5.42,0,0,0,5.41,5.41h5.7c3,0,5.41-1.47,5.41-3.27s-1.4-4.68-3.11-6.39-2-4.21-.71-5.54,4.14-.69,6.25,1.41l8.4,8.41c2.11,2.1,5.27,2.39,7,.63s1.47-4.92-.64-7l-10.27-10.27c-2.1-2.11-2.95-4.71-1.88-5.78s3.67-.22,5.78,1.88l9.65,9.65c2.1,2.11,5.2,2.46,6.87.79s1.32-4.76-.79-6.87l-16.67-16.67-7.41-7.41c-2-2-2.43-4.74-1-6.16s4.29-.85,6.4,1.26Z" fill="#e6e6e6" fill-rule="evenodd"/><path d="M1584.73,915.33l-5,5c-2.11,2.11-1.4,3.83,1.58,3.83h1.56a15,15,0,0,1,9.24,3.83l8.59,8.59a15.07,15.07,0,0,0,9.25,3.83h4.48a15.07,15.07,0,0,1,9.25,3.83l6.32,6.32a15.07,15.07,0,0,1,3.83,9.25v.89a5.43,5.43,0,0,0,5.42,5.41H1642a5.2,5.2,0,0,0,5.42-4.92,14.45,14.45,0,0,0-3.83-8.76l-20.71-20.71a15.07,15.07,0,0,0-9.25-3.83h-1.29a15.06,15.06,0,0,1-9.24-3.83l-1.13-1.13a25,25,0,0,0-9-5.33S1584.53,915.13,1584.73,915.33Z" fill="#e6e6e6" fill-rule="evenodd"/><path d="M1511.26,692.56a15.07,15.07,0,0,0-3.83,9.25v18.06a15.07,15.07,0,0,0,3.83,9.25l9,9,7.66,7.66,8.18,8.17a15.07,15.07,0,0,1,3.83,9.25v19.48c0,3,1.72,3.7,3.83,1.59l9.5-9.51a15.12,15.12,0,0,1,9.25-3.83h4.34a15.06,15.06,0,0,0,9.24-3.82l5.53-5.53a15.07,15.07,0,0,1,9.24-3.83h37a15.12,15.12,0,0,1,9.25,3.83l2.72,2.73a15.12,15.12,0,0,0,9.25,3.83h4.79a15.07,15.07,0,0,0,9.24-3.83l10.63-10.63a15.1,15.1,0,0,0,3.83-9.24v-8.9a5.39,5.39,0,0,1,5.33-5.42c2.94,0,4.39-1,3.22-2.11s-.39-3.84,1.72-5.94l22.57-22.58a5.44,5.44,0,0,1,7.66,0l3.38,3.38a15.06,15.06,0,0,0,9.24,3.83h13.41a46.64,46.64,0,0,0,5.27-.14l-4-4L1732,689.14a15.07,15.07,0,0,1-3.83-9.25V664a15,15,0,0,1,3.83-9.24l2.73-2.74a15,15,0,0,0,3.83-9.24V618.87a5.44,5.44,0,0,1,5.41-5.42h1.94a5.43,5.43,0,0,0,5.42-5.41v-8.51a5.43,5.43,0,0,0-5.42-5.41h-9.5a15.12,15.12,0,0,1-9.25-3.83l-6.16-6.17a5.44,5.44,0,0,0-7.66,0l-3.25,3.26a5.44,5.44,0,0,1-7.66,0l-.83-.83a15.06,15.06,0,0,0-9.24-3.83h-9.55a15.06,15.06,0,0,0-9.24,3.83l-6.89,6.89a15.07,15.07,0,0,1-9.25,3.83h-13.54a5.43,5.43,0,0,0-5.41,5.41v5.54a15.12,15.12,0,0,1-3.83,9.25l-4.83,4.83a15.12,15.12,0,0,1-9.25,3.83h-39.85a15,15,0,0,0-9.24,3.83l-1.8,1.8a15.12,15.12,0,0,1-9.25,3.83h-48.34c-3,0-3.69-1.73-1.59-3.83l.11-.11a15,15,0,0,0,3.83-9.16,5.4,5.4,0,0,0-5.42-5.34h-13.75a5.44,5.44,0,0,0-5.42,5.42V640.5a15.07,15.07,0,0,0,3.83,9.25L1520,676.13a5.44,5.44,0,0,1,0,7.66Z" fill="#e6e6e6" stroke="#fff" stroke-linecap="round" stroke-linejoin="round" stroke-width="2.87"/><path d="M1211.54,500.56c-2.11-2.11-4.71-3-5.78-1.89a8.71,8.71,0,0,0-1.94,5.39c0,1.89-2.44,3.44-5.42,3.44h-9.14c-3,0-6.62,1.21-8.1,2.68s-5.12,2.69-8.1,2.69h-10.65a15.07,15.07,0,0,0-9.25,3.83l-5.6,5.6a15.12,15.12,0,0,1-9.24,3.83H1110a5.42,5.42,0,0,0-5.41,5.41V563c0,3,1.7,5.42,3.78,5.42s5.5,1.72,7.6,3.83l.24.23c2.1,2.11,2.65,5,1.2,6.46s-.19,2.63,2.79,2.63h13.53a15.12,15.12,0,0,0,9.25-3.83l.74-.75a5.44,5.44,0,0,1,7.66,0l1.69,1.69a15.06,15.06,0,0,0,9.24,3.83h13.44a5.43,5.43,0,0,0,5.41-5.41v-4.44c0-3,1.47-6.88,3.26-8.67s3.25-5.69,3.25-8.67v-7.16a15,15,0,0,1,3.83-9.24l7.73-7.73a15,15,0,0,1,9.24-3.83h.53a5.44,5.44,0,0,0,5.42-5.41v-1.25a5.43,5.43,0,0,1,5.41-5.41h1c3,0,3.69-1.72,1.59-3.83Z" fill="#e6e6e6" stroke="#fff" stroke-linecap="round" stroke-linejoin="round" stroke-width="2.87"/><path d="M1367.46,644.33a15,15,0,0,0-3.83-9.24l-2.52-2.53a15.12,15.12,0,0,0-9.24-3.83h-1.31c-3,0-3.7-1.72-1.59-3.82l1.55-1.55a15.11,15.11,0,0,0,3.82-9.24v-7.78a5.43,5.43,0,0,0-5.41-5.41h-16.78a15,15,0,0,1-9.24-3.82l-3.9-3.89a15.06,15.06,0,0,0-9.24-3.83h-63a15.06,15.06,0,0,0-9.24,3.83l-8.5,8.49a5.41,5.41,0,0,1-7.65,0l-5.37-5.36a15,15,0,0,0-9.24-3.83h-1.9a5.44,5.44,0,0,0-5.42,5.41v16a15.07,15.07,0,0,0,3.83,9.24l12.32,12.32a15.12,15.12,0,0,1,3.83,9.24V648a5.43,5.43,0,0,0,5.41,5.42h11.5a5.43,5.43,0,0,1,5.41,5.41v3.66a15.07,15.07,0,0,0,3.83,9.25l5.85,5.85,7.66,7.66,8,8a15.07,15.07,0,0,1,3.83,9.24v1.11a15.07,15.07,0,0,0,3.83,9.25L1279,717a5.23,5.23,0,0,1,.3,7.35,5.23,5.23,0,0,0,.3,7.36l1,1a5.32,5.32,0,0,0,7.5.16,14.77,14.77,0,0,1,9.09-3.67h20.3a15.12,15.12,0,0,0,9.25-3.83l3-3a15,15,0,0,0,3.83-9.24V699.16a15,15,0,0,1,3.83-9.24l10.31-10.31a15,15,0,0,1,9.24-3.83h5.18a5.43,5.43,0,0,0,5.41-5.42v-6.45a15.06,15.06,0,0,0-3.83-9.24l-1-1c-2.11-2.1-1.89-3.83.48-3.83s4.3-2.43,4.3-5.41Z" fill="#fbaf17" stroke="#fff" stroke-linecap="round" stroke-linejoin="round" stroke-width="2.87"/><path d="M1297.1,729.19a14.77,14.77,0,0,0-9.09,3.67,5,5,0,0,0-.31,7,14.24,14.24,0,0,0,8.78,3.37H1321c3,0,3.69-1.73,1.59-3.83l-6.42-6.42a15.07,15.07,0,0,0-9.25-3.83Z" fill="#e6e6e6" stroke="#fff" stroke-linecap="round" stroke-linejoin="round" stroke-width="2.87"/><path d="M1331.43,540.31a5.43,5.43,0,0,0-5.41-5.42h-1.81a15.12,15.12,0,0,0-9.25,3.83l-5.38,5.39a15.12,15.12,0,0,1-9.25,3.83h-24.56a15.07,15.07,0,0,1-9.24-3.83l-10.83-10.83a15,15,0,0,0-9.24-3.83h-.62a15.06,15.06,0,0,1-9.24-3.83l-6.52-6.52a15.07,15.07,0,0,0-9.25-3.83h-1a5.43,5.43,0,0,0-5.41,5.41v1.25a5.44,5.44,0,0,1-5.42,5.41h-.53a15,15,0,0,0-9.24,3.83l-7.73,7.73a15,15,0,0,0-3.83,9.24v7.16c0,3-1.46,6.88-3.25,8.67s-3.26,5.69-3.26,8.67v4.44a5.43,5.43,0,0,1-5.41,5.41h-13.44a15.06,15.06,0,0,1-9.24-3.83l-1.69-1.69a5.44,5.44,0,0,0-7.66,0l-.74.75a15.12,15.12,0,0,1-9.25,3.83H1120.2a14.77,14.77,0,0,0-9.09,3.67,5.34,5.34,0,0,0,.16,7.5l13.34,13.33a5.41,5.41,0,0,0,7.65,0l9.19-9.18a5.41,5.41,0,0,1,7.65,0l7.41,7.41a15,15,0,0,1,3.83,9.24v14a15.07,15.07,0,0,0,3.83,9.24l46.41,46.41a15.07,15.07,0,0,0,9.24,3.83h9.56a15.06,15.06,0,0,1,9.24,3.83l33.27,33.27A5,5,0,1,0,1279,717l-4.19-4.19a15.07,15.07,0,0,1-3.83-9.25v-1.11a15.07,15.07,0,0,0-3.83-9.24l-8-8-7.66-7.66-5.85-5.85a15.07,15.07,0,0,1-3.83-9.25v-3.66a5.43,5.43,0,0,0-5.41-5.41h-11.5a5.43,5.43,0,0,1-5.41-5.42v-3.27a15.12,15.12,0,0,0-3.83-9.24l-12.32-12.32a15.07,15.07,0,0,1-3.83-9.24v-16a5.44,5.44,0,0,1,5.42-5.41h1.9a15,15,0,0,1,9.24,3.83l5.37,5.36a5.41,5.41,0,0,0,7.65,0l8.5-8.49a15.06,15.06,0,0,1,9.24-3.83h63a15.06,15.06,0,0,1,9.24,3.83l3.9,3.89c2.1,2.11,4.88,3.83,6.17,3.83s7.84-2.3,7.84-5.1a14.55,14.55,0,0,1,3.82-8.9,5.42,5.42,0,0,0,0-7.65l-5.46-5.46a15.12,15.12,0,0,1-3.83-9.24Z" fill="#e6e6e6" stroke="#fff" stroke-linecap="round" stroke-linejoin="round" stroke-width="2.87"/><path d="M1507.49,725.36s-.06-2.51-.06-5.49V701.81a15.07,15.07,0,0,1,3.83-9.25l8.77-8.77a5.44,5.44,0,0,0,0-7.66l-26.39-26.38a15.07,15.07,0,0,1-3.83-9.25V622.57c0-3-.69-5.42-1.53-5.42s-1.53-2.43-1.53-5.41v-2.27c0-3,2-5.41,4.37-5.41s4.36-2.4,4.36-5.34a5.39,5.39,0,0,0-5.41-5.33h-46.89a5.44,5.44,0,0,1-5.42-5.42V563.4a5.43,5.43,0,0,0-5.41-5.42h-23.61a5.42,5.42,0,0,1-5.41-5.41V550.3a15,15,0,0,0-3.83-9.24l-18.57-18.57a15.07,15.07,0,0,0-9.25-3.83h-12a15.06,15.06,0,0,0-9.24,3.83l-8.58,8.58c-2.1,2.1-5.3,3.82-7.11,3.82s-3.28,2.44-3.28,5.42v24.27a15.12,15.12,0,0,0,3.83,9.24l5.46,5.46a5.42,5.42,0,0,1,0,7.65,14.55,14.55,0,0,0-3.82,8.9,5.27,5.27,0,0,0,5.41,5.09h7.23c2.63,0,4.78,2.45,4.78,5.42v7.78a15.11,15.11,0,0,1-3.82,9.24l-1.55,1.55c-2.11,2.1-1.39,3.82,1.59,3.82h1.31a15.12,15.12,0,0,1,9.24,3.83l2.52,2.53a15,15,0,0,1,3.83,9.24v.14c0,3-1.93,5.41-4.3,5.41s-2.59,1.73-.48,3.83l1,1a15.06,15.06,0,0,1,3.83,9.24v6.45c0,3-.6,5.42-1.33,5.42s.38,1.72,2.49,3.83L1385,696a15.07,15.07,0,0,0,9.24,3.83h20.49a5.43,5.43,0,0,0,5.41-5.42v-2.64a5.44,5.44,0,0,1,5.42-5.42h5.11a15.07,15.07,0,0,1,9.25,3.83l14.55,14.55a15,15,0,0,0,9.24,3.83h6.45a5.43,5.43,0,0,1,5.41,5.41v18.22c0,3,1.72,3.69,3.83,1.58l4.49-4.49a15.12,15.12,0,0,1,9.24-3.83h9C1505.12,725.42,1507.53,725.39,1507.49,725.36Z" fill="#fbaf17" stroke="#fff" stroke-linecap="round" stroke-linejoin="round" stroke-width="2.87"/><path d="M1460.23,832.61c2.1,2.1,3.82,1.68,3.82-1a14.23,14.23,0,0,1,3.83-8.6l6.52-6.52a15.07,15.07,0,0,1,9.25-3.83h5.15a5.43,5.43,0,0,0,5.41-5.42v-1.35a5.44,5.44,0,0,1,5.42-5.42H1522a15.07,15.07,0,0,0,9.25-3.83l4.79-4.79a15.07,15.07,0,0,0,3.83-9.25V763.17a15.07,15.07,0,0,0-3.83-9.25l-8.18-8.17-7.66-7.66-9-9c-2.11-2.11-3.8-3.8-3.77-3.76s-2.37.06-5.35.06h-9a15.12,15.12,0,0,0-9.24,3.83l-4.49,4.49c-2.11,2.11-3.83,2.87-3.83,1.7s-1.72-.42-3.83,1.69l-10.43,10.43c-2.1,2.1-5,2.66-6.42,1.23s-4.31-.86-6.42,1.24l-11.51,11.51a15.06,15.06,0,0,0-3.82,9.24v32a5.43,5.43,0,0,0,5.41,5.41h2a5.27,5.27,0,0,1,5.42,5.07,14.57,14.57,0,0,0,3.83,8.9Z" fill="#fbaf17" stroke="#fff" stroke-linecap="round" stroke-linejoin="round" stroke-width="2.87"/><path d="M1394.22,699.8A15.07,15.07,0,0,1,1385,696l-16.36-16.36a15.07,15.07,0,0,0-9.25-3.83h-2.5a15,15,0,0,0-9.24,3.83l-10.31,10.31a15,15,0,0,0-3.83,9.24V713.1a15,15,0,0,1-3.83,9.24l-3,3a14.88,14.88,0,0,1-9.06,3.83c-2.88,0-3.51,1.72-1.4,3.83l6.42,6.42c2.1,2.1,5.54,3.83,7.64,3.83s5.53,1.72,7.63,3.83L1367.74,777c2.11,2.11,3.83,1.39,3.83-1.58v-8.2c0-3-1.37-6.78-3-8.46s-1.32-4.76.79-6.87l7.33-7.33a15.07,15.07,0,0,0,3.83-9.25v-4.61c0-3,2-5.41,4.34-5.41s4.34,2.43,4.34,5.41v.22c0,3,1.73,3.69,3.83,1.58l2.38-2.37c2.1-2.11,5.37-5.71,7.27-8l8.33-10.13c1.9-2.3,3.44-6,3.44-8.16s-2.43-4-5.41-4Z" fill="#fbaf17" stroke="#fff" stroke-linecap="round" stroke-linejoin="round" stroke-width="2.87"/><path d="M1429.29,763.07c2.1,2.1,3.83,3.48,3.83,3.06s1.72-2.49,3.82-4.59L1448.45,750c2.11-2.1,5-2.66,6.42-1.24s4.32.87,6.42-1.23l10.43-10.43a15.06,15.06,0,0,0,3.83-9.24V713.94a5.43,5.43,0,0,0-5.41-5.41h-6.45a15,15,0,0,1-9.24-3.83l-14.55-14.55a15.07,15.07,0,0,0-9.25-3.83h-5.11a5.44,5.44,0,0,0-5.42,5.42v2.64c0,3-1.28,5.42-2.86,5.42s-2.86,1.79-2.86,4-1.54,5.86-3.44,8.16l-8.33,10.13c-1.9,2.3-3.82,4.55-4.27,5s.89,2.55,3,4.66l8.37,8.37a15.07,15.07,0,0,0,9.25,3.83h.43a5.44,5.44,0,0,1,5.42,5.41v3.83a15,15,0,0,0,3.83,9.24Z" fill="#fbaf17" stroke="#fff" stroke-linecap="round" stroke-linejoin="round" stroke-width="2.87"/><path d="M1440,898.79a5.43,5.43,0,0,0,0-7.66l-5-5a5.43,5.43,0,0,1,0-7.66l25.21-25.2a15.11,15.11,0,0,0,3.82-9.25v-2.19a15.06,15.06,0,0,0-3.82-9.24l-10.43-10.44a14.57,14.57,0,0,1-3.83-8.9,5.27,5.27,0,0,0-5.42-5.07h-2a5.43,5.43,0,0,1-5.41-5.41V772.31a15.07,15.07,0,0,0-3.83-9.24l-.64-.65a15,15,0,0,1-3.83-9.24v-3.83a5.44,5.44,0,0,0-5.42-5.41H1419a15.07,15.07,0,0,1-9.25-3.83l-8.37-8.37a5.41,5.41,0,0,0-7.65,0l-.72.71c-2.1,2.11-3.83,1.4-3.83-1.58v-.22c0-3-2-5.41-4.34-5.41s-4.34,2.43-4.34,5.41v4.61a15.07,15.07,0,0,1-3.83,9.25l-7.33,7.33c-2.11,2.11-2.46,5.2-.79,6.87s3,5.48,3,8.46v8.2c0,3,1.28,6.69,2.84,8.26s2.85,5.28,2.85,8.26v32.37a15.07,15.07,0,0,0,3.83,9.25l8,8a15.07,15.07,0,0,1,3.83,9.25v16.09a15.06,15.06,0,0,0,3.83,9.24l35.6,35.6c2.11,2.11,2.39,2.39.63.62s-1.49-4.93.62-7Z" fill="#fbaf17" stroke="#fff" stroke-linecap="round" stroke-linejoin="round" stroke-width="2.87"/><path d="M1074.28,1042.42l15.2,15.2a5.43,5.43,0,0,0,7.65,0l1.79-1.79a5.44,5.44,0,0,1,7.66,0l28.44,28.45a5.44,5.44,0,0,0,7.66,0l6.78-6.79a5.44,5.44,0,0,1,7.66,0l15.67,15.67A15,15,0,0,0,1182,1097h19.3a15.07,15.07,0,0,0,9.25-3.83l6.85-6.85a5.44,5.44,0,0,0,0-7.66l-14.07-14.07a5.42,5.42,0,0,1,0-7.65,15,15,0,0,0,3.82-9.23v-4.31a15.12,15.12,0,0,1,3.83-9.24l1.86-1.85a15.11,15.11,0,0,0,3.82-9.25v-8.81a5.43,5.43,0,0,0-5.41-5.42h-1.6a14.78,14.78,0,0,0-9.09,3.68,14.83,14.83,0,0,1-9.1,3.68h-10.41a15.07,15.07,0,0,0-9.25,3.83l-4.07,4.07a15.06,15.06,0,0,1-9.24,3.83h-24.93a15,15,0,0,1-9.24-3.83l-2.31-2.3a15,15,0,0,0-9.24-3.83h-2a15,15,0,0,0-9.24,3.83l-5.42,5.41a15,15,0,0,1-9.24,3.83h-7.2a5.26,5.26,0,0,0-5.28,5.41S1074.56,1042.14,1074.28,1042.42Z" fill="#e6e6e6" fill-rule="evenodd"/><path d="M885.18,886.73l-6.87-6.86a15.12,15.12,0,0,1-3.83-9.25v-7.89a5.44,5.44,0,0,1,5.42-5.42h11a15.07,15.07,0,0,0,9.25-3.83l13-13a5.44,5.44,0,0,1,7.66,0l2.28,2.28a15.12,15.12,0,0,1,3.83,9.24v5.23a15,15,0,0,0,3.83,9.24l12.4,12.41a5.43,5.43,0,0,1,0,7.66l-8.49,8.49a5.44,5.44,0,0,0,0,7.66l2.38,2.37a15.12,15.12,0,0,1,3.83,9.24v24.15a15.07,15.07,0,0,1-3.83,9.24l-3.62,3.62a15.1,15.1,0,0,1-9.24,3.83h-11a5.42,5.42,0,0,0-5.41,5.41v13.54a5.43,5.43,0,0,1-5.42,5.41H888.4a15,15,0,0,1-9.24-3.83l-.66-.65a15.12,15.12,0,0,1-3.83-9.24V950.44a15.12,15.12,0,0,1,3.83-9.24l2.86-2.85a15.06,15.06,0,0,0,3.82-9.25Z" fill="#e6e6e6" stroke="#fff" stroke-linecap="round" stroke-linejoin="round" stroke-width="2.87"/><path d="M1329.15,857.77a15.11,15.11,0,0,0-9.25-3.82h-19.81a15.07,15.07,0,0,1-9.24-3.83l-18.39-18.39a15.07,15.07,0,0,0-9.25-3.83h-31.56a5.43,5.43,0,0,1-5.41-5.42V813.4a15.07,15.07,0,0,1,3.83-9.25l1-1a5.43,5.43,0,0,0,0-7.66l-4.09-4.09a15,15,0,0,0-9.24-3.83h-25.94a15.07,15.07,0,0,1-9.25-3.83L1145.8,747l-7.66-7.66-14.56-14.56a15,15,0,0,1-3.83-9.24v-7a5.42,5.42,0,0,0-5.41-5.41h-6a15.07,15.07,0,0,1-9.24-3.83l-40.61-40.61a15.07,15.07,0,0,1-3.83-9.24V633.62c0-3,1.15-6.56,2.56-8s2.55-5,2.55-8v-23.9a5.44,5.44,0,0,1,5.42-5.41h2.23a15,15,0,0,0,9.24-3.83L1089,572.23a15,15,0,0,1,9.24-3.83h1a5.44,5.44,0,0,0,5.42-5.42V531.54c0-3-.3-5.41-.65-5.41s-2.38-1.73-4.49-3.83l-1.65-1.66a15.12,15.12,0,0,0-9.25-3.83h-20.13a15.07,15.07,0,0,1-9.25-3.83l-9.92-9.92a15.07,15.07,0,0,0-9.25-3.83h-27.31a15,15,0,0,0-9.24,3.83l-2.18,2.18A14.55,14.55,0,0,1,992,509l-12.13-.26a5.3,5.3,0,0,0-5.42,5.3v6.32a15,15,0,0,1-3.83,9.24l-.68.68a15.12,15.12,0,0,0-3.83,9.25v1.21a5.43,5.43,0,0,1-5.41,5.42h-.6a5.44,5.44,0,0,1-5.42-5.42v-.29a5.43,5.43,0,0,0-5.41-5.41h-5.23a15.07,15.07,0,0,0-9.25,3.83l-10.57,10.57a15.06,15.06,0,0,0-3.82,9.23,5.22,5.22,0,0,1-4.95,5.41,14.48,14.48,0,0,1-8.77-3.83l-9.48-9.49a15.06,15.06,0,0,1-3.83-9.24v-7.24a5.44,5.44,0,0,0-5.42-5.42h-.13a5.44,5.44,0,0,0-5.42,5.42v8.32a15,15,0,0,1-3.83,9.24l-5.31,5.32a5.44,5.44,0,0,1-7.66,0l-2.54-2.54a5.44,5.44,0,0,0-7.66,0l-7.32,7.33a5.44,5.44,0,0,1-7.66,0L833.51,555c-2.11-2.1-3.83-1.39-3.83,1.59v.1a15,15,0,0,1-3.83,9.24l-1.76,1.77a5.43,5.43,0,0,0,0,7.66l9.24,9.24a5.43,5.43,0,0,1,0,7.65l-8.92,8.92a15.06,15.06,0,0,0-3.83,9.24v7.37a15.07,15.07,0,0,0,3.83,9.25l1.44,1.44a15,15,0,0,1,3.83,9.24v13.87A5.43,5.43,0,0,0,835.1,657h17.76a5.44,5.44,0,0,1,5.42,5.42v17.24c0,3,1.2,5.42,2.67,5.42s4.4-1.73,6.5-3.83l11-11.05a15.07,15.07,0,0,1,9.25-3.83h3.15a15.06,15.06,0,0,0,9.24-3.83l9.36-9.35a12.75,12.75,0,0,1,18.22,0l21.12,21.11a15,15,0,0,0,9.24,3.83h7.38a5.44,5.44,0,0,1,5.42,5.42v30.2a15,15,0,0,0,3.83,9.24L1001.78,750a14.65,14.65,0,0,1,3.83,8.93,14.69,14.69,0,0,0,3.82,8.94L1037,795.47a15,15,0,0,0,9.24,3.83h6a15.07,15.07,0,0,1,9.25,3.83l21.71,21.71a15.07,15.07,0,0,0,9.24,3.83h30.28a15.11,15.11,0,0,1,9.25,3.82l25.41,25.42a15.09,15.09,0,0,0,9.24,3.82h7.18a5.44,5.44,0,0,1,5.41,5.42v19.17a5.44,5.44,0,0,0,5.42,5.42h21.85a15.07,15.07,0,0,1,9.25,3.83L1227,906.81a15.06,15.06,0,0,1,3.82,9.24v17.26a15.07,15.07,0,0,0,3.83,9.24l20.18,20.18a5.43,5.43,0,0,1,0,7.66l-.77.77a15.12,15.12,0,0,1-9.24,3.83h-1.94a5.43,5.43,0,0,0-5.42,5.41v13.18a15.06,15.06,0,0,1-3.83,9.24l-4.59,4.6a14.65,14.65,0,0,0-3.83,8.94,5.28,5.28,0,0,0,5.41,5.1h6a15.06,15.06,0,0,0,9.24-3.83l17.37-17.36a15.12,15.12,0,0,0,3.83-9.25v-9.09a15.11,15.11,0,0,1,3.82-9.24l8.69-8.68a14.65,14.65,0,0,1,8.94-3.83,5.29,5.29,0,0,0,5.1-5.42v-8.07a15.06,15.06,0,0,0-3.83-9.24l-26.3-26.3a5.43,5.43,0,0,1,0-7.66l24.26-24.26a15.07,15.07,0,0,1,9.25-3.83h11.64a15,15,0,0,1,9.24,3.83l6.64,6.64c2.11,2.1,3.83,5.67,3.83,7.91s2.44,4.09,5.42,4.09h8.57a5.44,5.44,0,0,0,5.42-5.42V881.83a15,15,0,0,0-3.83-9.24Z" fill="#e6e6e6" fill-rule="evenodd"/><path d="M1329.15,857.77a15.11,15.11,0,0,0-9.25-3.82h-19.81a15.07,15.07,0,0,1-9.24-3.83l-18.39-18.39a15.07,15.07,0,0,0-9.25-3.83h-31.56a5.43,5.43,0,0,1-5.41-5.42V813.4a15.07,15.07,0,0,1,3.83-9.25l1-1a5.43,5.43,0,0,0,0-7.66l-4.09-4.09a15,15,0,0,0-9.24-3.83h-25.94a15.07,15.07,0,0,1-9.25-3.83L1145.8,747l-7.66-7.66-14.56-14.56a15,15,0,0,1-3.83-9.24v-7a5.42,5.42,0,0,0-5.41-5.41h-6a15.07,15.07,0,0,1-9.24-3.83l-40.61-40.61a15.07,15.07,0,0,1-3.83-9.24V633.62c0-3,1.15-6.56,2.56-8s2.55-5,2.55-8v-23.9a5.44,5.44,0,0,1,5.42-5.41h2.23a15,15,0,0,0,9.24-3.83L1089,572.23a15,15,0,0,1,9.24-3.83h1a5.44,5.44,0,0,0,5.42-5.42V531.54c0-3-.3-5.41-.65-5.41s-2.38-1.73-4.49-3.83l-1.65-1.66a15.12,15.12,0,0,0-9.25-3.83h-20.13a15.07,15.07,0,0,1-9.25-3.83l-9.92-9.92a15.07,15.07,0,0,0-9.25-3.83h-27.31a15,15,0,0,0-9.24,3.83l-2.18,2.18A14.55,14.55,0,0,1,992,509l-12.13-.26a5.3,5.3,0,0,0-5.42,5.3v6.32a15,15,0,0,1-3.83,9.24l-.68.68a15.12,15.12,0,0,0-3.83,9.25v1.21a5.43,5.43,0,0,1-5.41,5.42h-.6a5.44,5.44,0,0,1-5.42-5.42v-.29a5.43,5.43,0,0,0-5.41-5.41h-5.23a15.07,15.07,0,0,0-9.25,3.83l-10.57,10.57a15.06,15.06,0,0,0-3.82,9.23,5.22,5.22,0,0,1-4.95,5.41,14.48,14.48,0,0,1-8.77-3.83l-9.48-9.49a15.06,15.06,0,0,1-3.83-9.24v-7.24a5.44,5.44,0,0,0-5.42-5.42h-.13a5.44,5.44,0,0,0-5.42,5.42v8.32a15,15,0,0,1-3.83,9.24l-5.31,5.32a5.44,5.44,0,0,1-7.66,0l-2.54-2.54a5.44,5.44,0,0,0-7.66,0l-7.32,7.33a5.44,5.44,0,0,1-7.66,0L833.51,555c-2.11-2.1-3.83-1.39-3.83,1.59v.1a15,15,0,0,1-3.83,9.24l-1.76,1.77a5.43,5.43,0,0,0,0,7.66l9.24,9.24a5.43,5.43,0,0,1,0,7.65l-8.92,8.92a15.06,15.06,0,0,0-3.83,9.24v7.37a15.07,15.07,0,0,0,3.83,9.25l1.44,1.44a15,15,0,0,1,3.83,9.24v13.87A5.43,5.43,0,0,0,835.1,657h17.76a5.44,5.44,0,0,1,5.42,5.42v17.24c0,3,1.2,5.42,2.67,5.42s4.4-1.73,6.5-3.83l11-11.05a15.07,15.07,0,0,1,9.25-3.83h3.15a15.06,15.06,0,0,0,9.24-3.83l9.36-9.35a12.75,12.75,0,0,1,18.22,0l21.12,21.11a15,15,0,0,0,9.24,3.83h7.38a5.44,5.44,0,0,1,5.42,5.42v30.2a15,15,0,0,0,3.83,9.24L1001.78,750a14.65,14.65,0,0,1,3.83,8.93,14.69,14.69,0,0,0,3.82,8.94L1037,795.47a15,15,0,0,0,9.24,3.83h6a15.07,15.07,0,0,1,9.25,3.83l21.71,21.71a15.07,15.07,0,0,0,9.24,3.83h30.28a15.11,15.11,0,0,1,9.25,3.82l25.41,25.42a15.09,15.09,0,0,0,9.24,3.82h7.18a5.44,5.44,0,0,1,5.41,5.42v19.17a5.44,5.44,0,0,0,5.42,5.42h21.85a15.07,15.07,0,0,1,9.25,3.83L1227,906.81a15.06,15.06,0,0,1,3.82,9.24v17.26a15.07,15.07,0,0,0,3.83,9.24l20.18,20.18a5.43,5.43,0,0,1,0,7.66l-.77.77a15.12,15.12,0,0,1-9.24,3.83h-1.94a5.43,5.43,0,0,0-5.42,5.41v13.18a15.06,15.06,0,0,1-3.83,9.24l-4.59,4.6a14.65,14.65,0,0,0-3.83,8.94,5.28,5.28,0,0,0,5.41,5.1h6a15.06,15.06,0,0,0,9.24-3.83l17.37-17.36a15.12,15.12,0,0,0,3.83-9.25v-9.09a15.11,15.11,0,0,1,3.82-9.24l8.69-8.68a14.65,14.65,0,0,1,8.94-3.83,5.29,5.29,0,0,0,5.1-5.42v-8.07a15.06,15.06,0,0,0-3.83-9.24l-26.3-26.3a5.43,5.43,0,0,1,0-7.66l24.26-24.26a15.07,15.07,0,0,1,9.25-3.83h11.64a15,15,0,0,1,9.24,3.83l6.64,6.64c2.11,2.1,3.83,5.67,3.83,7.91s2.44,4.09,5.42,4.09h8.57a5.44,5.44,0,0,0,5.42-5.42V881.83a15,15,0,0,0-3.83-9.24Z" fill="#e6e6e6" stroke="#fff" stroke-linecap="round" stroke-linejoin="round" stroke-width="2.87"/><path d="M506.29,13.16a15,15,0,0,0,3.83,9.24L523.4,35.68a15.12,15.12,0,0,1,3.83,9.25V62.36a15.07,15.07,0,0,1-3.83,9.24L511,84a15.07,15.07,0,0,1-9.25,3.83H447.18a5.43,5.43,0,0,0-5.41,5.42v28a15.12,15.12,0,0,1-3.83,9.25L417,151.45a15,15,0,0,0-3.83,9.24v8.58a5.42,5.42,0,0,0,5.41,5.41h18.79a15.12,15.12,0,0,1,9.25,3.83l17.88,17.88a15,15,0,0,0,9.24,3.83h15.73c3,0,3.69,1.72,1.58,3.83L474.2,220.91a15.11,15.11,0,0,1-9.25,3.82H420.62a15.12,15.12,0,0,0-9.24,3.83l-12.77,12.77c-2.11,2.11-1.39,3.83,1.59,3.83H615.41c-3.4,0,15-9.72,15-9.72a3.77,3.77,0,0,0,1-6.36L620.6,218.35a5.44,5.44,0,0,1,0-7.66l42.06-42.05a5.44,5.44,0,0,0,0-7.66l-27.08-27.07a5.41,5.41,0,0,0-7.65,0l-11.41,11.41a5.44,5.44,0,0,1-7.66,0l-8.69-8.69a5.43,5.43,0,0,1,0-7.65l9.88-9.88a5.43,5.43,0,0,0,0-7.66l-2.73-2.73a15.06,15.06,0,0,1-3.82-9.24V58.89a15.12,15.12,0,0,0-3.83-9.25L577,27a15.12,15.12,0,0,1-3.83-9.25V0h-66.9Z" fill="#e6e6e6"/><path d="M349,4.65a5.44,5.44,0,0,0,5.42,5.42h2.84a15.07,15.07,0,0,0,9.24-3.83l1-1a15.1,15.1,0,0,1,9.24-3.83h2.7a5.43,5.43,0,0,1,5.41,5.42v8.87a5.43,5.43,0,0,0,5.42,5.41h9.46A15.07,15.07,0,0,0,409,17.26l5.35-5.35a15.07,15.07,0,0,0,3.83-9.25V0H349Z" fill="#e6e6e6" stroke="#fff" stroke-linecap="round" stroke-linejoin="round" stroke-width="2.87"/><path d="M384.85,15.68V6.81a5.43,5.43,0,0,0-5.41-5.42h-2.7a15.1,15.1,0,0,0-9.24,3.83l-1,1a15.07,15.07,0,0,1-9.24,3.83H354.4A5.44,5.44,0,0,1,349,4.65V0H276.31L273,3.34A5.44,5.44,0,0,0,273,11l6.64,6.64a5.43,5.43,0,0,1,0,7.66l-5.11,5.11a5.43,5.43,0,0,0,0,7.65l11.75,11.75a5.43,5.43,0,0,1,0,7.66L276,67.69a5.43,5.43,0,0,0,0,7.66l6.13,6.13c2.1,2.1,1.39,3.83-1.59,3.83H260.26A15.07,15.07,0,0,0,251,89.14L247.18,93a15.06,15.06,0,0,0-3.83,9.24v15a15.06,15.06,0,0,0,3.83,9.24l22.09,22.09a15.07,15.07,0,0,0,9.25,3.83h18.92a15.06,15.06,0,0,0,9.24-3.83L326.15,129a15.07,15.07,0,0,1,9.25-3.83h30.47a15.12,15.12,0,0,0,9.25-3.83l22.76-22.76a15.12,15.12,0,0,0,3.83-9.25V30c0-3,.77-6.19,1.72-7.14s-.72-1.72-3.7-1.72h-9.46A5.43,5.43,0,0,1,384.85,15.68Z" fill="#e6e6e6" stroke="#fff" stroke-linecap="round" stroke-linejoin="round" stroke-width="2.87"/><path d="M1010.73,19.17c2.1,2.11,5.11,2.55,6.68,1s4.57-1.13,6.68,1l3.37,3.37c2.11,2.11,5.32,2.34,7.14.52s1.59-5-.52-7.14l-1.35-1.35a5.44,5.44,0,0,1,0-7.66L1041.6,0h-50Z" fill="#e6e6e6"/><path d="M911,4.39V31.6A5.43,5.43,0,0,0,916.44,37h5.91a15,15,0,0,1,9.24,3.83l.63.63a15.12,15.12,0,0,0,9.25,3.83h12.25c3,0,3.69-1.73,1.59-3.83l-8.09-8.09a15.07,15.07,0,0,1-3.83-9.25V15.6c0-3,1.72-3.69,3.83-1.59L961,27.76a15.12,15.12,0,0,0,9.25,3.83h3.94a5.44,5.44,0,0,0,5.42-5.42v-4A15,15,0,0,0,975.74,13l-13-13H910.11A13.18,13.18,0,0,1,911,4.39Z" fill="#e6e6e6" stroke="#fff" stroke-linecap="round" stroke-linejoin="round" stroke-width="2.87"/><path d="M1400.8,1.87l0-.16c0-.16,0-.31-.08-.46a.83.83,0,0,1,0-.15c-.05-.16-.09-.31-.15-.46a.3.3,0,0,0,0-.1,4.41,4.41,0,0,0-.24-.54h-61.37V1.71a5.43,5.43,0,0,1-5.42,5.41h-27.9a5.43,5.43,0,0,0-5.41,5.42V19a5.28,5.28,0,0,0,5.09,5.41,5.28,5.28,0,0,1,5.1,5.42v1.67a5.44,5.44,0,0,0,5.41,5.42h61a15.07,15.07,0,0,0,9.25-3.83l6.94-7c2.11-2.11,4.76-3.83,5.88-3.83s2-2.43,2-5.41V2.48A6.08,6.08,0,0,0,1400.8,1.87Z" fill="#e6e6e6" stroke="#fff" stroke-linecap="round" stroke-linejoin="round" stroke-width="2.87"/><path d="M1465.91,36.85h6.95a15.12,15.12,0,0,0,9.25-3.83l9.52-9.52a15.11,15.11,0,0,0,3.82-9.25V0h-95.23a4.41,4.41,0,0,1,.24.54.3.3,0,0,1,0,.1,3.53,3.53,0,0,1,.15.46.83.83,0,0,0,0,.15c0,.15.06.3.08.46l0,.16a6.08,6.08,0,0,1,0,.61V16.94a5.43,5.43,0,0,0,5.42,5.41H1422a5.44,5.44,0,0,1,5.42,5.42V43.13a15,15,0,0,0,3.83,9.24l3,3a5.44,5.44,0,0,0,7.66,0l14.71-14.72A15.11,15.11,0,0,1,1465.91,36.85Z" fill="#e6e6e6" stroke="#fff" stroke-linecap="round" stroke-linejoin="round" stroke-width="2.87"/><path d="M1732.76,83.14a9.69,9.69,0,0,1-.77-.88,13.69,13.69,0,0,1-1.36-2.18c-.19-.36-.35-.73-.51-1.1l-.1-.24c-.15-.36-.29-.73-.41-1.1,0-.07,0-.13,0-.19-.11-.34-.21-.68-.29-1,0-.06,0-.12,0-.18-.09-.37-.15-.73-.2-1.08l0-.23a9.56,9.56,0,0,1-.07-1V67.38a9.64,9.64,0,0,0-.07-1.17,15.31,15.31,0,0,0-.58-2.51c-.14-.42-.3-.85-.47-1.27a14.79,14.79,0,0,0-1.94-3.41,7.41,7.41,0,0,0-.76-.88l-10.49-10.49a15.07,15.07,0,0,1-3.83-9.25V32.28a4.94,4.94,0,0,1,.08-.87.59.59,0,0,1,0-.13,5,5,0,0,1,.21-.78c0-.05,0-.1.05-.14a6.07,6.07,0,0,1,.34-.73l.06-.1a6.54,6.54,0,0,1,.48-.69h0a6.29,6.29,0,0,1,.73-.73c.14-.11.28-.22.42-.31h0a5.2,5.2,0,0,1,.6-.35l.16-.08a4.77,4.77,0,0,1,.66-.26,5.32,5.32,0,0,1,.69-.16l.18,0a5.84,5.84,0,0,1,.73-.05h12.5A15.12,15.12,0,0,0,1738,23l14.48-14.48a5.44,5.44,0,0,0,0-7.66l-.91-.9H1495.45V14.25a15.11,15.11,0,0,1-3.82,9.25L1482.11,33a15.12,15.12,0,0,1-9.25,3.83h-6.95a15.11,15.11,0,0,0-9.24,3.82L1442,55.39a5.41,5.41,0,0,0,0,7.65l13.15,13.16a15,15,0,0,1,3.83,9.24v28.71a5.44,5.44,0,0,1-5.41,5.42h-12.09A5.43,5.43,0,0,0,1436,125v18.89a15.12,15.12,0,0,0,3.83,9.25l5.69,5.69a15,15,0,0,1,3.83,9.24v5.43a5.43,5.43,0,0,0,5.42,5.41h14.45a15.06,15.06,0,0,0,9.24-3.83l7.15-7.15a15.12,15.12,0,0,1,9.24-3.83h89.22a15.11,15.11,0,0,0,9.24-3.82l14.55-14.56a15.12,15.12,0,0,1,9.25-3.83h48.58a15.07,15.07,0,0,1,9.24,3.83l4,4a15.07,15.07,0,0,0,9.25,3.83h18.69a5.44,5.44,0,0,0,5.42-5.42V97.63a5.43,5.43,0,0,1,5.41-5.42h18.71a4.61,4.61,0,0,0,.53,0,5.13,5.13,0,0,0,.6-.08A4,4,0,0,0,1738,92a2.22,2.22,0,0,0,.72-.37l.1-.07a1.34,1.34,0,0,0,.39-.64,1.33,1.33,0,0,0,0-.4.88.88,0,0,0,0-.17s0-.1,0-.15l0-.08a2.32,2.32,0,0,0-.25-.6s0,0,0,0a5.59,5.59,0,0,0-.87-1.09Z" fill="#e6e6e6" stroke="#fff" stroke-linecap="round" stroke-linejoin="round" stroke-width="2.87"/><path d="M1752.43.9a5.44,5.44,0,0,1,0,7.66L1738,23a15.12,15.12,0,0,1-9.25,3.83h-12.5a5.84,5.84,0,0,0-.73.05l-.18,0a5.32,5.32,0,0,0-.69.16,4.77,4.77,0,0,0-.66.26l-.16.08a5.2,5.2,0,0,0-.6.35c-.14.09-.28.2-.42.31a6.29,6.29,0,0,0-.73.73h0a6.54,6.54,0,0,0-.48.69l-.06.1a6.07,6.07,0,0,0-.34.73s0,.09-.05.14a5,5,0,0,0-.21.78.59.59,0,0,0,0,.13,4.94,4.94,0,0,0-.08.87V38.4a15.07,15.07,0,0,0,3.83,9.25l10.49,10.49a11.07,11.07,0,0,1,1.48,1.91,16.13,16.13,0,0,1,1.22,2.38c.17.42.33.85.47,1.27a15.31,15.31,0,0,1,.58,2.51,9.64,9.64,0,0,1,.07,1.17V73.9a9.56,9.56,0,0,0,.07,1l0,.23c0,.35.11.71.2,1.08,0,.06,0,.12,0,.18.08.34.18.68.29,1,0,.06,0,.12,0,.19.12.37.26.74.41,1.1l.1.24c.16.37.32.74.51,1.1a13.69,13.69,0,0,0,1.36,2.18,9.69,9.69,0,0,0,.77.88l5.24,5.24a20.94,20.94,0,0,0,4.17,3.28c.17.09.33.18.49.25a2.77,2.77,0,0,0,1,.3c.76,0,2.39-1,4-2.34.55-.46,1.11-1,1.63-1.49l14.74-14.73c.52-.53,1.13-1.14,1.79-1.79s1.34-1.35,2-2l1-1,2-1.94.85-.85,6.06-6.07a12.51,12.51,0,0,1,3.07-2.13,17.58,17.58,0,0,1,2.5-1,12.43,12.43,0,0,1,3.68-.65H1816a15.11,15.11,0,0,1,9.25,3.82l17.62,17.63a8.36,8.36,0,0,1,.77.88,14.19,14.19,0,0,1,1.37,2.18,14.6,14.6,0,0,1,1.69,6.18V97.63a5.41,5.41,0,0,0,1.59,3.83,5.73,5.73,0,0,0,1.25.93,5.38,5.38,0,0,0,2.58.66h22.39a14.56,14.56,0,0,1,6.18,1.69,12.26,12.26,0,0,1,3.07,2.14L1901,124.14a9.69,9.69,0,0,0,.88.77,15.36,15.36,0,0,0,3.41,1.93,16.83,16.83,0,0,0,2.55.83,11.09,11.09,0,0,0,2.4.3h35a11.18,11.18,0,0,0,2.41-.3,16.72,16.72,0,0,0,2.54-.83,16.09,16.09,0,0,0,2.38-1.21,11.09,11.09,0,0,0,1.92-1.49l11.66-11.67a5.43,5.43,0,0,1,7.66,0L1992.34,131a11.09,11.09,0,0,0,1.92,1.49,15.21,15.21,0,0,0,7.33,2.34h11.56a15,15,0,0,0,9.24-3.83l9.68-9.68a13.63,13.63,0,0,1,4.3-2.7,13.47,13.47,0,0,1,5-1.13h49.12a5.38,5.38,0,0,1,2.58.66,5.43,5.43,0,0,1,2.83,4.76v30.34a13.65,13.65,0,0,1-1.12,4.95q-.26.63-.57,1.23a12.24,12.24,0,0,1-2.13,3.07l-.87.86-.87.87a5.44,5.44,0,0,0,0,7.66l17.27,17.26a11.07,11.07,0,0,1,1.48,1.91,16.64,16.64,0,0,1,1.22,2.38c.17.42.33.85.47,1.27a13.74,13.74,0,0,1,.61,2.82,8.38,8.38,0,0,1,0,.86v17.7a8.71,8.71,0,0,1,0,.87,13.8,13.8,0,0,1-.61,2.81c-.14.43-.3.85-.47,1.27a16.13,16.13,0,0,1-1.22,2.38,11.16,11.16,0,0,1-1.48,1.92l-3,3a7.35,7.35,0,0,1-.88.77,13.82,13.82,0,0,1-2.19,1.37,12.53,12.53,0,0,1-1.23.57,15.31,15.31,0,0,1-2.54.82,10.5,10.5,0,0,1-2.4.3h-15a5.43,5.43,0,0,0-5.41,5.42v6a15.12,15.12,0,0,1-2.35,7.33,10.69,10.69,0,0,1-1.48,1.92l-1.37,1.37a5.44,5.44,0,0,0-1.19,5.87,5.49,5.49,0,0,0,1.19,1.79l3.28,3.27a5,5,0,0,0,.84.7,5.69,5.69,0,0,0,2,.79,6,6,0,0,0,1,.09,5.56,5.56,0,0,0,2-.39,5.2,5.2,0,0,0,1.78-1.19l6.06-6,6.06-6.06a5.58,5.58,0,0,1,.85-.69,5.27,5.27,0,0,1,1.94-.79,5.54,5.54,0,0,1,2.07,0,5.39,5.39,0,0,1,2.8,1.48l9,9a5.46,5.46,0,0,1,1.18,1.79,5.76,5.76,0,0,1,.3,1,5.54,5.54,0,0,1,0,2.07,5.39,5.39,0,0,1-1.48,2.8l-19.66,19.65a5.49,5.49,0,0,0-1.19,1.79,5.56,5.56,0,0,0-.39,2,5.48,5.48,0,0,0,.39,2,5.29,5.29,0,0,0,1.19,1.79l3.62,3.63a5.41,5.41,0,0,1,0,7.65L2082.6,319a5.44,5.44,0,0,0,0,7.66l.06.06a15.07,15.07,0,0,0,9.25,3.83h7.87a5.37,5.37,0,0,1,1.61.25,5.63,5.63,0,0,1,1.42.68,5.43,5.43,0,0,1,2.39,4.49v.15c0,.28,0,.57,0,.87a13.16,13.16,0,0,1-.61,2.81c-.14.43-.29.85-.47,1.27a16.09,16.09,0,0,1-1.21,2.38,10.72,10.72,0,0,1-1.49,1.92L2089.73,357a9.69,9.69,0,0,0-.77.88,14.19,14.19,0,0,0-1.37,2.18,14.6,14.6,0,0,0-1.69,6.18v6.1a14.6,14.6,0,0,0,1.69,6.18,14.19,14.19,0,0,0,1.37,2.18,9.69,9.69,0,0,0,.77.88l4.07,4.07a5.56,5.56,0,0,1,.89,1.14,1.54,1.54,0,0,1-.11,2,3.48,3.48,0,0,1-2.37.66h-26.13a5.43,5.43,0,0,0-5.42,5.41v8.92a5.39,5.39,0,0,0,1.59,3.82,5.46,5.46,0,0,0,1.25.94,5.37,5.37,0,0,0,2.58.65h24.8a15.11,15.11,0,0,1,9.24,3.83l2.44,2.44a10.63,10.63,0,0,0,1.91,1.49,16.85,16.85,0,0,0,3.65,1.68,12.14,12.14,0,0,0,3.68.66h9.36a10.85,10.85,0,0,1,2.72.38l1,.27a14.48,14.48,0,0,1,5.56,3.18l10.46,10.45a12.38,12.38,0,0,0,3.06,2.14,16.44,16.44,0,0,0,2.5,1,12.2,12.2,0,0,0,3.68.66h25.1a15,15,0,0,1,9.24,3.83L2206,462.81a15.06,15.06,0,0,0,9.24,3.82h8.61a5.48,5.48,0,0,0,2.11-.42,6.28,6.28,0,0,0,.92-.5,5.47,5.47,0,0,0,2-2.39,5.29,5.29,0,0,0,.41-1.55,4.93,4.93,0,0,0,0-.55L2232,0H1751.52Z" fill="#e6e6e6" stroke="#fff" stroke-linecap="round" stroke-linejoin="round" stroke-width="2.87"/></svg>