<svg id="ae8b6ecc-265f-48d5-8cd9-d7ce187cbf82" data-name="Layer 1" xmlns="http://www.w3.org/2000/svg" xmlns:xlink="http://www.w3.org/1999/xlink" width="120.33" height="112.4" viewBox="0 0 120.33 112.4"><defs><clipPath id="edcd8ef1-5549-4efc-a03b-8b8d4247f724" transform="translate(-3.8 -3.8)"><path d="M60,4.55a55.11,55.11,0,0,0-26.77,6.89,55.45,55.45,0,0,0,76,74A55.45,55.45,0,0,0,60,4.55Z" fill="none"/></clipPath></defs><title>01_perpetrators_color</title><circle cx="56.2" cy="56.2" r="55.45" fill="#00adef"/><path d="M60,4.55a55.12,55.12,0,0,0-26.68,6.84,54.87,54.87,0,0,0,75.94,74.05A55.43,55.43,0,0,0,60,4.55Z" transform="translate(-3.8 -3.8)" fill="#fbaf17"/><circle cx="35.93" cy="91.83" r="8.09" fill="#fbaf17"/><g clip-path="url(#edcd8ef1-5549-4efc-a03b-8b8d4247f724)"><line x1="15.33" y1="6.95" x2="119.58" y2="6.95" fill="none" stroke="#1d1d1b" stroke-linecap="round" stroke-miterlimit="10" stroke-width="1.5"/><line x1="15.33" y1="12.76" x2="119.58" y2="12.76" fill="none" stroke="#1d1d1b" stroke-linecap="round" stroke-miterlimit="10" stroke-width="1.5"/><line x1="15.33" y1="18.57" x2="119.58" y2="18.57" fill="none" stroke="#1d1d1b" stroke-linecap="round" stroke-miterlimit="10" stroke-width="1.5"/><line x1="15.33" y1="24.37" x2="119.58" y2="24.37" fill="none" stroke="#1d1d1b" stroke-linecap="round" stroke-miterlimit="10" stroke-width="1.5"/><line x1="15.33" y1="30.18" x2="119.58" y2="30.18" fill="none" stroke="#1d1d1b" stroke-linecap="round" stroke-miterlimit="10" stroke-width="1.5"/><line x1="15.33" y1="35.99" x2="119.58" y2="35.99" fill="none" stroke="#1d1d1b" stroke-linecap="round" stroke-miterlimit="10" stroke-width="1.5"/><line x1="15.33" y1="41.79" x2="119.58" y2="41.79" fill="none" stroke="#1d1d1b" stroke-linecap="round" stroke-miterlimit="10" stroke-width="1.5"/><line x1="15.33" y1="47.6" x2="119.58" y2="47.6" fill="none" stroke="#1d1d1b" stroke-linecap="round" stroke-miterlimit="10" stroke-width="1.5"/><line x1="15.33" y1="53.41" x2="119.58" y2="53.41" fill="none" stroke="#1d1d1b" stroke-linecap="round" stroke-miterlimit="10" stroke-width="1.5"/><line x1="15.33" y1="59.21" x2="119.58" y2="59.21" fill="none" stroke="#1d1d1b" stroke-linecap="round" stroke-miterlimit="10" stroke-width="1.5"/><line x1="15.33" y1="65.02" x2="119.58" y2="65.02" fill="none" stroke="#1d1d1b" stroke-linecap="round" stroke-miterlimit="10" stroke-width="1.5"/><line x1="15.33" y1="70.83" x2="119.58" y2="70.83" fill="none" stroke="#1d1d1b" stroke-linecap="round" stroke-miterlimit="10" stroke-width="1.5"/><line x1="15.33" y1="76.64" x2="119.58" y2="76.64" fill="none" stroke="#1d1d1b" stroke-linecap="round" stroke-miterlimit="10" stroke-width="1.5"/><line x1="15.33" y1="82.44" x2="119.58" y2="82.44" fill="none" stroke="#1d1d1b" stroke-linecap="round" stroke-miterlimit="10" stroke-width="1.5"/></g><circle cx="35.59" cy="92.38" r="5" fill="none" stroke="#1d1d1b" stroke-miterlimit="10" stroke-width="1.5"/><path d="M109.32,85.43a55.47,55.47,0,0,1-76.2-73.82" transform="translate(-3.8 -3.8)" fill="none" stroke="#1d1d1b" stroke-linecap="round" stroke-linejoin="round" stroke-width="1.5"/><circle cx="56.2" cy="56.2" r="55.45" fill="none" stroke="#1d1d1b" stroke-miterlimit="10" stroke-width="1.5"/></svg>