<svg id="e2900a55-0d1e-472f-87f7-d8f2afb70b35" data-name="Layer 1" xmlns="http://www.w3.org/2000/svg" width="112.4" height="112.4" viewBox="0 0 112.4 112.4"><title>health_effects</title><circle cx="56.2" cy="56.2" r="55.45" fill="#fff"/><path d="M58.66,115.42A89.83,89.83,0,0,1,87.49,11.85,55.06,55.06,0,0,0,73.54,6.22,89.75,89.75,0,0,0,18.57,89c0,2.81.14,5.59.39,8.33A55.34,55.34,0,0,0,58.66,115.42Z" transform="translate(-3.8 -3.8)" fill="none" stroke="#1d1d1b" stroke-miterlimit="10" stroke-width="1.5"/><path d="M87.49,11.85A89.83,89.83,0,0,0,58.66,115.42c.45,0,.89,0,1.34,0" transform="translate(-3.8 -3.8)" fill="none" stroke="#1d1d1b" stroke-miterlimit="10" stroke-width="1.5"/><path d="M112.17,78.81A55.45,55.45,0,0,0,24.92,17.06,145.34,145.34,0,0,1,112.17,78.81Z" transform="translate(-3.8 -3.8)" fill="none" stroke="#1d1d1b" stroke-miterlimit="10" stroke-width="1.5"/><path d="M13.15,30.35A145.69,145.69,0,0,1,94.24,103.6a55.55,55.55,0,0,0,17.93-24.79A145.34,145.34,0,0,0,24.92,17.06,55.72,55.72,0,0,0,13.15,30.35Z" transform="translate(-3.8 -3.8)" fill="none" stroke="#1d1d1b" stroke-miterlimit="10" stroke-width="1.5"/><path d="M13.15,30.35A55.44,55.44,0,0,0,94.24,103.6,145.69,145.69,0,0,0,13.15,30.35Z" transform="translate(-3.8 -3.8)" fill="none" stroke="#1d1d1b" stroke-miterlimit="10" stroke-width="1.5"/></svg>