<svg id="f7decc2a-265a-4102-93f3-88b515e9d259" data-name="Layer 1" xmlns="http://www.w3.org/2000/svg" width="112.4" height="112.4" viewBox="0 0 112.4 112.4"><title>04_barriers</title><circle cx="56.2" cy="56.2" r="55.45" fill="#fff"/><circle cx="33.34" cy="61.03" r="8.09" fill="none" stroke="#1d1d1b" stroke-miterlimit="10" stroke-width="1.5"/><circle cx="53.76" cy="40.73" r="13.09" fill="none" stroke="#1d1d1b" stroke-miterlimit="10" stroke-width="1.5"/><circle cx="56.2" cy="56.2" r="55.45" fill="none" stroke="#1d1d1b" stroke-miterlimit="10" stroke-width="1.5"/><path d="M95.86,17.72A55.44,55.44,0,0,0,5.3,69.07,145,145,0,0,1,95.86,17.72Z" transform="translate(-3.8 -3.8)" fill="none" stroke="#1d1d1b" stroke-miterlimit="10" stroke-width="1.5"/><path d="M47,113.9c0-1.12-.07-2.24-.07-3.36a89.83,89.83,0,0,1,57.46-83.81,55.78,55.78,0,0,0-8.5-9A145,145,0,0,0,5.3,69.07,55.49,55.49,0,0,0,47,113.9Z" transform="translate(-3.8 -3.8)" fill="none" stroke="#1d1d1b" stroke-miterlimit="10" stroke-width="1.5"/><path d="M46.9,110.54c0,1.12,0,2.24.07,3.36A55.46,55.46,0,0,0,115.45,60a55.23,55.23,0,0,0-11.09-33.27A89.83,89.83,0,0,0,46.9,110.54Z" transform="translate(-3.8 -3.8)" fill="none" stroke="#1d1d1b" stroke-miterlimit="10" stroke-width="1.5"/></svg>