<svg id="b1db5b34-92e4-430e-80a6-8ccac2ae814e" data-name="Layer 1" xmlns="http://www.w3.org/2000/svg" width="112.4" height="112.4" viewBox="0 0 112.4 112.4"><title>05_partner_involved</title><circle cx="56.2" cy="56.2" r="55.45" fill="#fff"/><path d="M99.27,36.89A8.07,8.07,0,0,0,93.88,39a8.06,8.06,0,0,1,0,12,8.09,8.09,0,1,0,5.39-14.11Z" transform="translate(-3.8 -3.8)" fill="none" stroke="#1d1d1b" stroke-miterlimit="10" stroke-width="1.5"/><path d="M87.09,45a8.08,8.08,0,0,1,2.7-6,8.09,8.09,0,1,0,0,12A8.06,8.06,0,0,1,87.09,45Z" transform="translate(-3.8 -3.8)" fill="none" stroke="#1d1d1b" stroke-miterlimit="10" stroke-width="1.5"/><path d="M30.23,13.09A89.49,89.49,0,0,1,4.55,65.21" transform="translate(-3.8 -3.8)" fill="none" stroke="#1d1d1b" stroke-miterlimit="10" stroke-width="1.5"/><path d="M44.24,6a89.58,89.58,0,0,1,4.92,29.38A89.45,89.45,0,0,1,21.4,100.25" transform="translate(-3.8 -3.8)" fill="none" stroke="#1d1d1b" stroke-miterlimit="10" stroke-width="1.5"/><circle cx="56.2" cy="56.2" r="55.45" fill="none" stroke="#1d1d1b" stroke-miterlimit="10" stroke-width="1.5"/><path d="M44.62,6.68A89.33,89.33,0,0,1,63,61.15a89.4,89.4,0,0,1-17,52.57" transform="translate(-3.8 -3.8)" fill="none" stroke="#1d1d1b" stroke-miterlimit="10" stroke-width="1.5"/><path d="M114.23,71.53c.1-.47.19-.93.28-1.41a88.94,88.94,0,0,0-20.69,5.55" transform="translate(-3.8 -3.8)" fill="none" stroke="#1d1d1b" stroke-miterlimit="10" stroke-width="1.5"/><path d="M110.91,82c.18-.42.36-.83.53-1.26a89.54,89.54,0,0,0-27.11-6" transform="translate(-3.8 -3.8)" fill="none" stroke="#1d1d1b" stroke-miterlimit="10" stroke-width="1.5"/><path d="M100.34,98c.92-1,1.79-2,2.64-3a90.24,90.24,0,0,0-24.3-24.16" transform="translate(-3.8 -3.8)" fill="none" stroke="#1d1d1b" stroke-miterlimit="10" stroke-width="1.5"/><path d="M87.93,107.91l.95-.57A89.2,89.2,0,0,0,71,59.24" transform="translate(-3.8 -3.8)" fill="none" stroke="#1d1d1b" stroke-miterlimit="10" stroke-width="1.5"/><path d="M66.46,115.07c.53-.06,1.05-.13,1.58-.21A89.49,89.49,0,0,0,74,82.6a89.34,89.34,0,0,0-16.5-51.87" transform="translate(-3.8 -3.8)" fill="none" stroke="#1d1d1b" stroke-miterlimit="10" stroke-width="1.5"/></svg>