<svg id="a4d97e00-8bf6-4b42-857d-ba04a2d7abaa" data-name="Layer 1" xmlns="http://www.w3.org/2000/svg" width="112.4" height="112.4" viewBox="0 0 112.4 112.4"><title>conflict_affected</title><circle cx="56.2" cy="56.2" r="55.45" fill="#fff"/><path d="M21.22,35.53a55.79,55.79,0,0,1,29.4.33" transform="translate(-3.8 -3.8)" fill="none" stroke="#1d1d1b" stroke-linecap="round" stroke-miterlimit="10" stroke-width="1.5"/><polyline points="91.47 71.53 91.47 45.87 84.49 45.87 84.49 49.5 81.33 49.5 81.33 54 75.79 54 75.79 68.02" fill="none" stroke="#1d1d1b" stroke-miterlimit="10" stroke-width="1.5"/><polyline points="104 67.49 104 63.39 99.14 63.39 99.14 54.03 91.47 54.03 91.47 71.95" fill="none" stroke="#1d1d1b" stroke-miterlimit="10" stroke-width="1.5"/><circle cx="40.2" cy="86.58" r="8.09" fill="none" stroke="#1d1d1b" stroke-miterlimit="10" stroke-width="1.5"/><circle cx="76.82" cy="45.21" r="1.91" fill="none" stroke="#1d1d1b" stroke-miterlimit="10" stroke-width="1.5"/><circle cx="76.24" cy="27.55" r="3.09" fill="none" stroke="#1d1d1b" stroke-miterlimit="10" stroke-width="1.5"/><circle cx="84.75" cy="19.25" r="3.09" fill="none" stroke="#1d1d1b" stroke-miterlimit="10" stroke-width="1.5"/><circle cx="68.28" cy="14.65" r="5" fill="none" stroke="#1d1d1b" stroke-miterlimit="10" stroke-width="1.5"/><circle cx="82.48" cy="37.94" r="1.91" fill="none" stroke="#1d1d1b" stroke-miterlimit="10" stroke-width="1.5"/><circle cx="71.28" cy="35.74" r="1.91" fill="none" stroke="#1d1d1b" stroke-miterlimit="10" stroke-width="1.5"/><circle cx="56.2" cy="56.2" r="55.45" fill="none" stroke="#1d1d1b" stroke-miterlimit="10" stroke-width="1.5"/><path d="M44.62,6.68A89.33,89.33,0,0,1,63,61.15a89.4,89.4,0,0,1-17,52.57" transform="translate(-3.8 -3.8)" fill="none" stroke="#1d1d1b" stroke-miterlimit="10" stroke-width="1.5"/><path d="M114.23,71.53c.1-.47.19-.93.28-1.41a88.94,88.94,0,0,0-20.69,5.55" transform="translate(-3.8 -3.8)" fill="none" stroke="#1d1d1b" stroke-miterlimit="10" stroke-width="1.5"/><path d="M110.91,82c.18-.42.36-.83.53-1.26a89.54,89.54,0,0,0-27.11-6" transform="translate(-3.8 -3.8)" fill="none" stroke="#1d1d1b" stroke-miterlimit="10" stroke-width="1.5"/><path d="M100.34,98c.92-1,1.79-2,2.64-3a90.24,90.24,0,0,0-24.3-24.16" transform="translate(-3.8 -3.8)" fill="none" stroke="#1d1d1b" stroke-miterlimit="10" stroke-width="1.5"/><path d="M87.93,107.91l.95-.57A89.2,89.2,0,0,0,71,59.24" transform="translate(-3.8 -3.8)" fill="none" stroke="#1d1d1b" stroke-miterlimit="10" stroke-width="1.5"/><path d="M8.85,81.7a13.1,13.1,0,0,0,14.09-.87h0a34.32,34.32,0,0,1-.79-34.24" transform="translate(-3.8 -3.8)" fill="none" stroke="#1d1d1b" stroke-linecap="round" stroke-linejoin="round" stroke-width="1.5"/><path d="M33.69,43.3a3.09,3.09,0,1,1-3.09.32" transform="translate(-3.8 -3.8)" fill="none" stroke="#1d1d1b" stroke-linecap="round" stroke-linejoin="round" stroke-width="1.5"/><path d="M22.17,46.63A21.35,21.35,0,0,1,28,53.34h0a21.18,21.18,0,0,0,21.64-2.46l-.09-.23a21.19,21.19,0,0,0-27.46-4.06" transform="translate(-3.8 -3.8)" fill="none" stroke="#1d1d1b" stroke-linecap="round" stroke-linejoin="round" stroke-width="1.5"/><path d="M26.46,51a7.68,7.68,0,0,1-.1-1.27,8.09,8.09,0,0,1,2.52-5.87" transform="translate(-3.8 -3.8)" fill="none" stroke="#1d1d1b" stroke-linecap="round" stroke-linejoin="round" stroke-width="1.5"/><path d="M40.75,44.61a8.09,8.09,0,0,1,0,10.19" transform="translate(-3.8 -3.8)" fill="none" stroke="#1d1d1b" stroke-linecap="round" stroke-linejoin="round" stroke-width="1.5"/><path d="M36.84,43.63a5,5,0,1,1-7.46.1" transform="translate(-3.8 -3.8)" fill="none" stroke="#1d1d1b" stroke-linecap="round" stroke-linejoin="round" stroke-width="1.5"/><path d="M66.46,115.07c.53-.06,1.05-.13,1.58-.21A89.49,89.49,0,0,0,74,82.6a89.34,89.34,0,0,0-16.5-51.87" transform="translate(-3.8 -3.8)" fill="none" stroke="#1d1d1b" stroke-miterlimit="10" stroke-width="1.5"/></svg>