<svg id="f528b23e-0f43-497c-925d-9e47d71d096a" data-name="Layer 1" xmlns="http://www.w3.org/2000/svg" width="116.07" height="112.4" viewBox="0 0 116.07 112.4"><title>conflict_affected_orange</title><circle cx="59.87" cy="56.2" r="55.45" fill="#fff"/><ellipse cx="34.35" cy="56.8" rx="34.35" ry="51.28" fill="#fbaf17"/><path d="M23.43,35.53a55.79,55.79,0,0,1,29.4.33" transform="translate(-2.34 -3.8)" fill="none" stroke="#1d1d1b" stroke-linecap="round" stroke-miterlimit="10" stroke-width="1.5"/><polyline points="95.14 71.53 95.14 45.87 88.16 45.87 88.16 49.5 85 49.5 85 54 79.46 54 79.46 68.02" fill="none" stroke="#1d1d1b" stroke-miterlimit="10" stroke-width="1.5"/><polyline points="107.67 67.49 107.67 63.39 102.81 63.39 102.81 54.03 95.14 54.03 95.14 71.95" fill="none" stroke="#1d1d1b" stroke-miterlimit="10" stroke-width="1.5"/><circle cx="43.87" cy="86.58" r="8.09" fill="none" stroke="#1d1d1b" stroke-miterlimit="10" stroke-width="1.5"/><circle cx="80.49" cy="45.21" r="1.91" fill="none" stroke="#1d1d1b" stroke-miterlimit="10" stroke-width="1.5"/><circle cx="79.92" cy="27.55" r="3.09" fill="none" stroke="#1d1d1b" stroke-miterlimit="10" stroke-width="1.5"/><circle cx="88.42" cy="19.25" r="3.09" fill="none" stroke="#1d1d1b" stroke-miterlimit="10" stroke-width="1.5"/><circle cx="71.95" cy="14.65" r="5" fill="none" stroke="#1d1d1b" stroke-miterlimit="10" stroke-width="1.5"/><circle cx="86.15" cy="37.94" r="1.91" fill="none" stroke="#1d1d1b" stroke-miterlimit="10" stroke-width="1.5"/><circle cx="74.95" cy="35.74" r="1.91" fill="none" stroke="#1d1d1b" stroke-miterlimit="10" stroke-width="1.5"/><circle cx="59.87" cy="56.2" r="55.45" fill="none" stroke="#1d1d1b" stroke-miterlimit="10" stroke-width="1.5"/><path d="M46.83,6.68A89.33,89.33,0,0,1,65.25,61.15a89.4,89.4,0,0,1-17,52.57" transform="translate(-2.34 -3.8)" fill="none" stroke="#1d1d1b" stroke-miterlimit="10" stroke-width="1.5"/><path d="M116.44,71.53c.1-.47.19-.93.28-1.41A88.94,88.94,0,0,0,96,75.67" transform="translate(-2.34 -3.8)" fill="none" stroke="#1d1d1b" stroke-miterlimit="10" stroke-width="1.5"/><path d="M113.12,82c.18-.42.36-.83.53-1.26a89.54,89.54,0,0,0-27.11-6" transform="translate(-2.34 -3.8)" fill="none" stroke="#1d1d1b" stroke-miterlimit="10" stroke-width="1.5"/><path d="M102.55,98c.92-1,1.79-2,2.64-3a90.24,90.24,0,0,0-24.3-24.16" transform="translate(-2.34 -3.8)" fill="none" stroke="#1d1d1b" stroke-miterlimit="10" stroke-width="1.5"/><path d="M90.14,107.91l1-.57a89.29,89.29,0,0,0-17.87-48.1" transform="translate(-2.34 -3.8)" fill="none" stroke="#1d1d1b" stroke-miterlimit="10" stroke-width="1.5"/><path d="M11.06,81.7a13.1,13.1,0,0,0,14.09-.87h0a34.32,34.32,0,0,1-.79-34.24" transform="translate(-2.34 -3.8)" fill="none" stroke="#1d1d1b" stroke-linecap="round" stroke-linejoin="round" stroke-width="1.5"/><path d="M35.9,43.3a3.09,3.09,0,1,1-3.09.32" transform="translate(-2.34 -3.8)" fill="none" stroke="#1d1d1b" stroke-linecap="round" stroke-linejoin="round" stroke-width="1.5"/><path d="M24.38,46.63a21.35,21.35,0,0,1,5.86,6.71h0a21.18,21.18,0,0,0,21.64-2.46l-.09-.23a21.19,21.19,0,0,0-27.46-4.06" transform="translate(-2.34 -3.8)" fill="none" stroke="#1d1d1b" stroke-linecap="round" stroke-linejoin="round" stroke-width="1.5"/><path d="M28.67,51a7.68,7.68,0,0,1-.1-1.27,8.06,8.06,0,0,1,2.53-5.87" transform="translate(-2.34 -3.8)" fill="none" stroke="#1d1d1b" stroke-linecap="round" stroke-linejoin="round" stroke-width="1.5"/><path d="M43,44.61a8.09,8.09,0,0,1,0,10.19" transform="translate(-2.34 -3.8)" fill="none" stroke="#1d1d1b" stroke-linecap="round" stroke-linejoin="round" stroke-width="1.5"/><path d="M39.05,43.63a5,5,0,1,1-7.46.1" transform="translate(-2.34 -3.8)" fill="none" stroke="#1d1d1b" stroke-linecap="round" stroke-linejoin="round" stroke-width="1.5"/><path d="M68.67,115.07c.53-.06,1-.13,1.58-.21a89.49,89.49,0,0,0,6-32.26,89.34,89.34,0,0,0-16.5-51.87" transform="translate(-2.34 -3.8)" fill="none" stroke="#1d1d1b" stroke-miterlimit="10" stroke-width="1.5"/></svg>