<svg xmlns="http://www.w3.org/2000/svg" width="112.64" height="112.4" viewBox="0 0 112.64 112.4"><title>conflict_affected_main</title><g style="isolation:isolate"><g id="a6867a9c-d83c-41c6-9975-c826cf31e744" data-name="Layer 1"><circle cx="55.45" cy="56.2" r="55.45" fill="#fff"/><circle cx="44.46" cy="86.19" r="8.09" fill="#fbaf17"/><circle cx="82.53" cy="41.98" r="21.18" fill="#00adef" style="mix-blend-mode:multiply"/><path d="M21.71,35.53a55.83,55.83,0,0,1,29.41.33" transform="translate(-4.06 -3.8)" fill="none" stroke="#1d1d1b" stroke-linecap="round" stroke-miterlimit="10" stroke-width="1.5"/><polyline points="91.7 71.53 91.7 45.87 84.73 45.87 84.73 49.5 81.57 49.5 81.57 54 76.03 54 76.03 68.02" fill="none" stroke="#1d1d1b" stroke-miterlimit="10" stroke-width="1.5"/><polyline points="104.24 67.49 104.24 63.39 99.38 63.39 99.38 54.03 91.71 54.03 91.71 71.95" fill="none" stroke="#1d1d1b" stroke-miterlimit="10" stroke-width="1.5"/><circle cx="40.43" cy="86.58" r="8.09" fill="none" stroke="#1d1d1b" stroke-miterlimit="10" stroke-width="1.5"/><circle cx="77.06" cy="45.21" r="1.91" fill="none" stroke="#1d1d1b" stroke-miterlimit="10" stroke-width="1.5"/><circle cx="76.48" cy="27.55" r="3.09" fill="none" stroke="#1d1d1b" stroke-miterlimit="10" stroke-width="1.5"/><circle cx="84.99" cy="19.25" r="3.09" fill="none" stroke="#1d1d1b" stroke-miterlimit="10" stroke-width="1.5"/><circle cx="68.52" cy="14.65" r="5" fill="none" stroke="#1d1d1b" stroke-miterlimit="10" stroke-width="1.5"/><circle cx="82.72" cy="37.94" r="1.91" fill="none" stroke="#1d1d1b" stroke-miterlimit="10" stroke-width="1.5"/><circle cx="71.52" cy="35.74" r="1.91" fill="none" stroke="#1d1d1b" stroke-miterlimit="10" stroke-width="1.5"/><circle cx="56.44" cy="56.2" r="55.45" fill="none" stroke="#1d1d1b" stroke-miterlimit="10" stroke-width="1.5"/><path d="M45.12,6.68A89.38,89.38,0,0,1,63.53,61.15a89.33,89.33,0,0,1-17,52.57" transform="translate(-4.06 -3.8)" fill="none" stroke="#1d1d1b" stroke-miterlimit="10" stroke-width="1.5"/><path d="M114.73,71.53c.1-.47.19-.93.28-1.41a88.94,88.94,0,0,0-20.69,5.55" transform="translate(-4.06 -3.8)" fill="none" stroke="#1d1d1b" stroke-miterlimit="10" stroke-width="1.5"/><path d="M111.4,82c.18-.42.36-.83.53-1.26a89.47,89.47,0,0,0-27.11-6" transform="translate(-4.06 -3.8)" fill="none" stroke="#1d1d1b" stroke-miterlimit="10" stroke-width="1.5"/><path d="M100.84,98c.91-1,1.79-2,2.63-3a90.24,90.24,0,0,0-24.3-24.16" transform="translate(-4.06 -3.8)" fill="none" stroke="#1d1d1b" stroke-miterlimit="10" stroke-width="1.5"/><path d="M88.42,107.91l1-.57a89.29,89.29,0,0,0-17.87-48.1" transform="translate(-4.06 -3.8)" fill="none" stroke="#1d1d1b" stroke-miterlimit="10" stroke-width="1.5"/><path d="M9.35,81.7a13.08,13.08,0,0,0,14.08-.87h0a34.32,34.32,0,0,1-.79-34.24" transform="translate(-4.06 -3.8)" fill="none" stroke="#1d1d1b" stroke-linecap="round" stroke-linejoin="round" stroke-width="1.5"/><path d="M34.18,43.3a3.09,3.09,0,1,1-3.09.32" transform="translate(-4.06 -3.8)" fill="none" stroke="#1d1d1b" stroke-linecap="round" stroke-linejoin="round" stroke-width="1.5"/><path d="M22.66,46.63a21.22,21.22,0,0,1,5.86,6.71h0a21.2,21.2,0,0,0,21.65-2.46l-.09-.23a21.19,21.19,0,0,0-27.46-4.06" transform="translate(-4.06 -3.8)" fill="none" stroke="#1d1d1b" stroke-linecap="round" stroke-linejoin="round" stroke-width="1.5"/><path d="M27,51a8.94,8.94,0,0,1-.1-1.27,8.06,8.06,0,0,1,2.53-5.87" transform="translate(-4.06 -3.8)" fill="none" stroke="#1d1d1b" stroke-linecap="round" stroke-linejoin="round" stroke-width="1.5"/><path d="M41.24,44.61a8.09,8.09,0,0,1,0,10.19" transform="translate(-4.06 -3.8)" fill="none" stroke="#1d1d1b" stroke-linecap="round" stroke-linejoin="round" stroke-width="1.5"/><path d="M37.33,43.63a5,5,0,1,1-7.45.1" transform="translate(-4.06 -3.8)" fill="none" stroke="#1d1d1b" stroke-linecap="round" stroke-linejoin="round" stroke-width="1.5"/><path d="M67,115.07c.53-.06,1.06-.13,1.58-.21a89.49,89.49,0,0,0,6-32.26A89.34,89.34,0,0,0,58,30.73" transform="translate(-4.06 -3.8)" fill="none" stroke="#1d1d1b" stroke-miterlimit="10" stroke-width="1.5"/></g></g></svg>