<svg id="e70f7ddd-38f4-4dca-8f0e-a13da3e00b8a" data-name="Layer 1" xmlns="http://www.w3.org/2000/svg" width="112.4" height="112.4" viewBox="0 0 112.4 112.4"><title>disadvantaged_women</title><circle cx="56.2" cy="56.19" r="55.45" fill="#fff"/><path d="M70.38,34.24a55.83,55.83,0,0,1,29.41.33" transform="translate(-3.8 -3.81)" fill="none" stroke="#1d1d1b" stroke-linecap="round" stroke-miterlimit="10" stroke-width="1.5"/><circle cx="72.2" cy="86.58" r="8.09" fill="none" stroke="#1d1d1b" stroke-miterlimit="10" stroke-width="1.5"/><circle cx="56.2" cy="56.2" r="55.45" fill="none" stroke="#1d1d1b" stroke-miterlimit="10" stroke-width="1.5"/><path d="M75.38,6.69a89.76,89.76,0,0,0-1.42,107" transform="translate(-3.8 -3.81)" fill="none" stroke="#1d1d1b" stroke-miterlimit="10" stroke-width="1.5"/><path d="M111.15,81.71a13.1,13.1,0,0,1-14.09-.87h0a34.32,34.32,0,0,0,.79-34.24" transform="translate(-3.8 -3.81)" fill="none" stroke="#1d1d1b" stroke-linecap="round" stroke-linejoin="round" stroke-width="1.5"/><path d="M86.31,43.31a3.09,3.09,0,1,0,3.09.32" transform="translate(-3.8 -3.81)" fill="none" stroke="#1d1d1b" stroke-linecap="round" stroke-linejoin="round" stroke-width="1.5"/><path d="M97.83,46.64A21.35,21.35,0,0,0,92,53.35h0a21.24,21.24,0,0,1-21.64-2.46l.09-.23A21.19,21.19,0,0,1,97.87,46.6" transform="translate(-3.8 -3.81)" fill="none" stroke="#1d1d1b" stroke-linecap="round" stroke-linejoin="round" stroke-width="1.5"/><path d="M93.54,51a7.68,7.68,0,0,0,.1-1.27,8.09,8.09,0,0,0-2.52-5.87" transform="translate(-3.8 -3.81)" fill="none" stroke="#1d1d1b" stroke-linecap="round" stroke-linejoin="round" stroke-width="1.5"/><path d="M79.25,44.62a8.09,8.09,0,0,0,0,10.19" transform="translate(-3.8 -3.81)" fill="none" stroke="#1d1d1b" stroke-linecap="round" stroke-linejoin="round" stroke-width="1.5"/><path d="M83.16,43.64a5,5,0,1,0,7.46.1" transform="translate(-3.8 -3.81)" fill="none" stroke="#1d1d1b" stroke-linecap="round" stroke-linejoin="round" stroke-width="1.5"/><path d="M22.63,101.72A89.92,89.92,0,0,1,58.48,77.15" transform="translate(-3.8 -3.81)" fill="none" stroke="#1d1d1b" stroke-miterlimit="10" stroke-width="1.5"/><path d="M7.88,40.93a236.17,236.17,0,0,1,49.73-5.27l3,0" transform="translate(-3.8 -3.81)" fill="none" stroke="#1d1d1b" stroke-miterlimit="10" stroke-width="1.5"/><path d="M29.49,13.6a380.79,380.79,0,0,1,39.66,3.07" transform="translate(-3.8 -3.81)" fill="none" stroke="#1d1d1b" stroke-miterlimit="10" stroke-width="1.5"/><path d="M6.07,73.8A144.16,144.16,0,0,1,57,56" transform="translate(-3.8 -3.81)" fill="none" stroke="#1d1d1b" stroke-miterlimit="10" stroke-width="1.5"/><path d="M47.71,114.24a55.73,55.73,0,0,1,17-17" transform="translate(-3.8 -3.81)" fill="none" stroke="#1d1d1b" stroke-miterlimit="10" stroke-width="1.5"/><path d="M20.48,99A144.76,144.76,0,0,1,52.05,5.32" transform="translate(-3.8 -3.81)" fill="none" stroke="#1d1d1b" stroke-miterlimit="10" stroke-width="1.5"/></svg>