<svg xmlns="http://www.w3.org/2000/svg" xmlns:xlink="http://www.w3.org/1999/xlink" width="123.13" height="112.62" viewBox="0 0 123.13 112.62"><defs><clipPath id="a684d424-7a7e-42d6-bcff-9e030bd948c4" transform="translate(-4.06 -3.31)"><path d="M60.49,4.06A55.6,55.6,0,0,0,45.14,6.23,89.33,89.33,0,0,1,63.53,60.66a89.29,89.29,0,0,1-17,52.54A55.46,55.46,0,1,0,60.49,4.06Z" fill="none"/></clipPath></defs><title>experienced_violance_blue</title><g style="isolation:isolate"><g id="bf649d03-5a0d-4b9e-a547-d771c718527b" data-name="Layer 1"><circle cx="55.45" cy="57.17" r="55.45" fill="#fff"/><circle cx="43.65" cy="86.99" r="8.09" fill="#00adef" style="mix-blend-mode:multiply"/><circle cx="40.94" cy="52.26" r="21.18" fill="#00adef" style="mix-blend-mode:multiply"/><circle cx="38.01" cy="51.4" r="21.18" fill="none" stroke="#1d1d1b" stroke-miterlimit="10" stroke-width="1.5"/><path d="M52.37,49.92a21.18,21.18,0,0,1-29.69-3.71" transform="translate(-4.06 -3.31)" fill="none" stroke="#1d1d1b" stroke-linecap="round" stroke-linejoin="round" stroke-width="1.5"/><circle cx="40.43" cy="86.58" r="8.09" fill="none" stroke="#1d1d1b" stroke-miterlimit="10" stroke-width="1.5"/><circle cx="56.44" cy="56.2" r="55.45" fill="none" stroke="#1d1d1b" stroke-miterlimit="10" stroke-width="1.5"/><path d="M45.12,6.2A89.33,89.33,0,0,1,63.53,60.66a89.28,89.28,0,0,1-17,52.57" transform="translate(-4.06 -3.31)" fill="none" stroke="#1d1d1b" stroke-miterlimit="10" stroke-width="1.5"/><path d="M9.35,81.21a13.11,13.11,0,0,0,14.08-.86h0a34.34,34.34,0,0,1-.79-34.25" transform="translate(-4.06 -3.31)" fill="none" stroke="#1d1d1b" stroke-linecap="round" stroke-linejoin="round" stroke-width="1.5"/><g clip-path="url(#a684d424-7a7e-42d6-bcff-9e030bd948c4)"><line x1="31.52" y1="5.41" x2="122.38" y2="5.41" fill="none" stroke="#1d1d1b" stroke-linecap="round" stroke-miterlimit="10" stroke-width="1.5"/><line x1="31.52" y1="11.21" x2="122.38" y2="11.21" fill="none" stroke="#1d1d1b" stroke-linecap="round" stroke-miterlimit="10" stroke-width="1.5"/><line x1="31.52" y1="17.02" x2="122.38" y2="17.02" fill="none" stroke="#1d1d1b" stroke-linecap="round" stroke-miterlimit="10" stroke-width="1.5"/><line x1="31.52" y1="22.83" x2="122.38" y2="22.83" fill="none" stroke="#1d1d1b" stroke-linecap="round" stroke-miterlimit="10" stroke-width="1.5"/><line x1="31.52" y1="28.63" x2="122.38" y2="28.63" fill="none" stroke="#1d1d1b" stroke-linecap="round" stroke-miterlimit="10" stroke-width="1.5"/><line x1="31.52" y1="34.44" x2="122.38" y2="34.44" fill="none" stroke="#1d1d1b" stroke-linecap="round" stroke-miterlimit="10" stroke-width="1.5"/><line x1="31.52" y1="40.25" x2="122.38" y2="40.25" fill="none" stroke="#1d1d1b" stroke-linecap="round" stroke-miterlimit="10" stroke-width="1.5"/><line x1="31.52" y1="46.06" x2="122.38" y2="46.06" fill="none" stroke="#1d1d1b" stroke-linecap="round" stroke-miterlimit="10" stroke-width="1.5"/><line x1="31.52" y1="51.86" x2="122.38" y2="51.86" fill="none" stroke="#1d1d1b" stroke-linecap="round" stroke-miterlimit="10" stroke-width="1.5"/><line x1="31.52" y1="57.67" x2="122.38" y2="57.67" fill="none" stroke="#1d1d1b" stroke-linecap="round" stroke-miterlimit="10" stroke-width="1.5"/><line x1="31.52" y1="63.48" x2="122.38" y2="63.48" fill="none" stroke="#1d1d1b" stroke-linecap="round" stroke-miterlimit="10" stroke-width="1.5"/><line x1="31.52" y1="69.28" x2="122.38" y2="69.28" fill="none" stroke="#1d1d1b" stroke-linecap="round" stroke-miterlimit="10" stroke-width="1.5"/><line x1="31.52" y1="75.09" x2="122.38" y2="75.09" fill="none" stroke="#1d1d1b" stroke-linecap="round" stroke-miterlimit="10" stroke-width="1.5"/><line x1="31.52" y1="80.9" x2="122.38" y2="80.9" fill="none" stroke="#1d1d1b" stroke-linecap="round" stroke-miterlimit="10" stroke-width="1.5"/><line x1="31.52" y1="86.7" x2="122.38" y2="86.7" fill="none" stroke="#1d1d1b" stroke-linecap="round" stroke-miterlimit="10" stroke-width="1.5"/><line x1="31.52" y1="92.51" x2="122.38" y2="92.51" fill="none" stroke="#1d1d1b" stroke-linecap="round" stroke-miterlimit="10" stroke-width="1.5"/><line x1="31.52" y1="98.32" x2="122.38" y2="98.32" fill="none" stroke="#1d1d1b" stroke-linecap="round" stroke-miterlimit="10" stroke-width="1.5"/><line x1="31.52" y1="104.12" x2="122.38" y2="104.12" fill="none" stroke="#1d1d1b" stroke-linecap="round" stroke-miterlimit="10" stroke-width="1.5"/><line x1="31.52" y1="109.93" x2="122.38" y2="109.93" fill="none" stroke="#1d1d1b" stroke-linecap="round" stroke-miterlimit="10" stroke-width="1.5"/></g></g></g></svg>