<svg id="aec84e98-bb5a-4ac0-bb7d-ac39d14252d9" data-name="Layer 1" xmlns="http://www.w3.org/2000/svg" width="112.4" height="112.4" viewBox="0 0 112.4 112.4"><title>not_experienced_violance</title><circle cx="56.2" cy="56.2" r="55.45" fill="#fff"/><path d="M21.22,35.53a55.79,55.79,0,0,1,29.4.33" transform="translate(-3.8 -3.8)" fill="none" stroke="#1d1d1b" stroke-linecap="round" stroke-miterlimit="10" stroke-width="1.5"/><circle cx="40.2" cy="86.58" r="8.09" fill="none" stroke="#1d1d1b" stroke-miterlimit="10" stroke-width="1.5"/><circle cx="56.2" cy="56.2" r="55.45" fill="none" stroke="#1d1d1b" stroke-miterlimit="10" stroke-width="1.5"/><path d="M44.62,6.68A89.33,89.33,0,0,1,63,61.15a89.4,89.4,0,0,1-17,52.57" transform="translate(-3.8 -3.8)" fill="none" stroke="#1d1d1b" stroke-miterlimit="10" stroke-width="1.5"/><path d="M8.85,81.7a13.1,13.1,0,0,0,14.09-.87h0a34.32,34.32,0,0,1-.79-34.24" transform="translate(-3.8 -3.8)" fill="none" stroke="#1d1d1b" stroke-linecap="round" stroke-linejoin="round" stroke-width="1.5"/><path d="M33.69,43.3a3.09,3.09,0,1,1-3.09.32" transform="translate(-3.8 -3.8)" fill="none" stroke="#1d1d1b" stroke-linecap="round" stroke-linejoin="round" stroke-width="1.5"/><path d="M22.17,46.63A21.35,21.35,0,0,1,28,53.34h0a21.18,21.18,0,0,0,21.64-2.46l-.09-.23a21.19,21.19,0,0,0-27.46-4.06" transform="translate(-3.8 -3.8)" fill="none" stroke="#1d1d1b" stroke-linecap="round" stroke-linejoin="round" stroke-width="1.5"/><path d="M26.46,51a7.68,7.68,0,0,1-.1-1.27,8.09,8.09,0,0,1,2.52-5.87" transform="translate(-3.8 -3.8)" fill="none" stroke="#1d1d1b" stroke-linecap="round" stroke-linejoin="round" stroke-width="1.5"/><path d="M40.75,44.61a8.09,8.09,0,0,1,0,10.19" transform="translate(-3.8 -3.8)" fill="none" stroke="#1d1d1b" stroke-linecap="round" stroke-linejoin="round" stroke-width="1.5"/><path d="M36.84,43.63a5,5,0,1,1-7.46.1" transform="translate(-3.8 -3.8)" fill="none" stroke="#1d1d1b" stroke-linecap="round" stroke-linejoin="round" stroke-width="1.5"/><circle cx="83.37" cy="43.44" r="8.09" fill="none" stroke="#1d1d1b" stroke-miterlimit="10" stroke-width="1.5"/><circle cx="83.37" cy="43.44" r="13.09" fill="none" stroke="#1d1d1b" stroke-miterlimit="10" stroke-width="1.5"/><line x1="83.36" y1="20.59" x2="83.36" y2="26.29" fill="none" stroke="#1d1d1b" stroke-linecap="round" stroke-miterlimit="10" stroke-width="1.5"/><line x1="71.93" y1="23.6" x2="74.77" y2="28.53" fill="none" stroke="#1d1d1b" stroke-linecap="round" stroke-miterlimit="10" stroke-width="1.5"/><line x1="63.52" y1="31.91" x2="68.45" y2="34.76" fill="none" stroke="#1d1d1b" stroke-linecap="round" stroke-miterlimit="10" stroke-width="1.5"/><line x1="60.41" y1="43.32" x2="66.1" y2="43.32" fill="none" stroke="#1d1d1b" stroke-linecap="round" stroke-miterlimit="10" stroke-width="1.5"/><line x1="63.41" y1="54.76" x2="68.34" y2="51.91" fill="none" stroke="#1d1d1b" stroke-linecap="round" stroke-miterlimit="10" stroke-width="1.5"/><line x1="71.73" y1="63.16" x2="74.57" y2="58.23" fill="none" stroke="#1d1d1b" stroke-linecap="round" stroke-miterlimit="10" stroke-width="1.5"/><line x1="83.13" y1="66.28" x2="83.13" y2="60.58" fill="none" stroke="#1d1d1b" stroke-linecap="round" stroke-miterlimit="10" stroke-width="1.5"/><line x1="94.57" y1="63.27" x2="91.72" y2="58.34" fill="none" stroke="#1d1d1b" stroke-linecap="round" stroke-miterlimit="10" stroke-width="1.5"/><line x1="102.97" y1="54.96" x2="98.04" y2="52.11" fill="none" stroke="#1d1d1b" stroke-linecap="round" stroke-miterlimit="10" stroke-width="1.5"/><line x1="106.09" y1="43.55" x2="100.4" y2="43.55" fill="none" stroke="#1d1d1b" stroke-linecap="round" stroke-miterlimit="10" stroke-width="1.5"/><line x1="103.09" y1="32.11" x2="98.16" y2="34.96" fill="none" stroke="#1d1d1b" stroke-linecap="round" stroke-miterlimit="10" stroke-width="1.5"/><line x1="94.77" y1="23.71" x2="91.92" y2="28.64" fill="none" stroke="#1d1d1b" stroke-linecap="round" stroke-miterlimit="10" stroke-width="1.5"/></svg>