<svg id="a7616746-e02d-4c41-a768-18980062c7d6" data-name="Layer 1" xmlns="http://www.w3.org/2000/svg" width="116.07" height="112.4" viewBox="0 0 116.07 112.4"><title>not_experienced_violance_orange</title><circle cx="59.87" cy="56.2" r="55.45" fill="#fff"/><ellipse cx="34.35" cy="57.73" rx="34.35" ry="51.28" fill="#fbaf17"/><path d="M23.43,35.53a55.79,55.79,0,0,1,29.4.33" transform="translate(-2.34 -3.8)" fill="none" stroke="#1d1d1b" stroke-linecap="round" stroke-miterlimit="10" stroke-width="1.5"/><circle cx="43.87" cy="86.58" r="8.09" fill="none" stroke="#1d1d1b" stroke-miterlimit="10" stroke-width="1.5"/><circle cx="59.87" cy="56.2" r="55.45" fill="none" stroke="#1d1d1b" stroke-miterlimit="10" stroke-width="1.5"/><path d="M46.83,6.68A89.33,89.33,0,0,1,65.25,61.15a89.4,89.4,0,0,1-17,52.57" transform="translate(-2.34 -3.8)" fill="none" stroke="#1d1d1b" stroke-miterlimit="10" stroke-width="1.5"/><path d="M11.06,81.7a13.1,13.1,0,0,0,14.09-.87h0a34.32,34.32,0,0,1-.79-34.24" transform="translate(-2.34 -3.8)" fill="none" stroke="#1d1d1b" stroke-linecap="round" stroke-linejoin="round" stroke-width="1.5"/><path d="M35.9,43.3a3.09,3.09,0,1,1-3.09.32" transform="translate(-2.34 -3.8)" fill="none" stroke="#1d1d1b" stroke-linecap="round" stroke-linejoin="round" stroke-width="1.5"/><path d="M24.38,46.63a21.35,21.35,0,0,1,5.86,6.71h0a21.18,21.18,0,0,0,21.64-2.46l-.09-.23a21.19,21.19,0,0,0-27.46-4.06" transform="translate(-2.34 -3.8)" fill="none" stroke="#1d1d1b" stroke-linecap="round" stroke-linejoin="round" stroke-width="1.5"/><path d="M28.67,51a7.68,7.68,0,0,1-.1-1.27,8.06,8.06,0,0,1,2.53-5.87" transform="translate(-2.34 -3.8)" fill="none" stroke="#1d1d1b" stroke-linecap="round" stroke-linejoin="round" stroke-width="1.5"/><path d="M43,44.61a8.09,8.09,0,0,1,0,10.19" transform="translate(-2.34 -3.8)" fill="none" stroke="#1d1d1b" stroke-linecap="round" stroke-linejoin="round" stroke-width="1.5"/><path d="M39.05,43.63a5,5,0,1,1-7.46.1" transform="translate(-2.34 -3.8)" fill="none" stroke="#1d1d1b" stroke-linecap="round" stroke-linejoin="round" stroke-width="1.5"/><circle cx="87.04" cy="43.44" r="8.09" fill="none" stroke="#1d1d1b" stroke-miterlimit="10" stroke-width="1.5"/><circle cx="87.04" cy="43.44" r="13.09" fill="none" stroke="#1d1d1b" stroke-miterlimit="10" stroke-width="1.5"/><line x1="87.03" y1="20.59" x2="87.03" y2="26.29" fill="none" stroke="#1d1d1b" stroke-linecap="round" stroke-miterlimit="10" stroke-width="1.5"/><line x1="75.6" y1="23.6" x2="78.44" y2="28.53" fill="none" stroke="#1d1d1b" stroke-linecap="round" stroke-miterlimit="10" stroke-width="1.5"/><line x1="67.19" y1="31.91" x2="72.13" y2="34.76" fill="none" stroke="#1d1d1b" stroke-linecap="round" stroke-miterlimit="10" stroke-width="1.5"/><line x1="64.08" y1="43.32" x2="69.77" y2="43.32" fill="none" stroke="#1d1d1b" stroke-linecap="round" stroke-miterlimit="10" stroke-width="1.5"/><line x1="67.08" y1="54.76" x2="72.01" y2="51.91" fill="none" stroke="#1d1d1b" stroke-linecap="round" stroke-miterlimit="10" stroke-width="1.5"/><line x1="75.4" y1="63.16" x2="78.25" y2="58.23" fill="none" stroke="#1d1d1b" stroke-linecap="round" stroke-miterlimit="10" stroke-width="1.5"/><line x1="86.8" y1="66.28" x2="86.8" y2="60.58" fill="none" stroke="#1d1d1b" stroke-linecap="round" stroke-miterlimit="10" stroke-width="1.5"/><line x1="98.24" y1="63.27" x2="95.39" y2="58.34" fill="none" stroke="#1d1d1b" stroke-linecap="round" stroke-miterlimit="10" stroke-width="1.5"/><line x1="106.64" y1="54.96" x2="101.71" y2="52.11" fill="none" stroke="#1d1d1b" stroke-linecap="round" stroke-miterlimit="10" stroke-width="1.5"/><line x1="109.76" y1="43.55" x2="104.07" y2="43.55" fill="none" stroke="#1d1d1b" stroke-linecap="round" stroke-miterlimit="10" stroke-width="1.5"/><line x1="106.76" y1="32.11" x2="101.83" y2="34.96" fill="none" stroke="#1d1d1b" stroke-linecap="round" stroke-miterlimit="10" stroke-width="1.5"/><line x1="98.44" y1="23.71" x2="95.59" y2="28.64" fill="none" stroke="#1d1d1b" stroke-linecap="round" stroke-miterlimit="10" stroke-width="1.5"/></svg>