<svg id="f7372a3b-ecc0-4854-80b5-a8483ff3e9e8" data-name="Layer 1" xmlns="http://www.w3.org/2000/svg" xmlns:xlink="http://www.w3.org/1999/xlink" width="122.89" height="112.8" viewBox="0 0 122.89 112.8"><defs><clipPath id="efa82c10-6e3a-4a1b-96d2-85882f04e9c3" transform="translate(-3.8 -3.97)"><path d="M60,5.13A55.17,55.17,0,0,0,44.65,7.3,89.29,89.29,0,0,1,63,61.73a89.35,89.35,0,0,1-17,52.53A55.45,55.45,0,1,0,60,5.13Z" fill="none"/></clipPath></defs><title>not_conflict_affected</title><circle cx="56.2" cy="55.45" r="55.45" fill="#fff"/><g clip-path="url(#efa82c10-6e3a-4a1b-96d2-85882f04e9c3)"><line x1="31.28" y1="69.69" x2="122.14" y2="69.69" fill="none" stroke="#1d1d1b" stroke-linecap="round" stroke-miterlimit="10" stroke-width="1.5"/><line x1="31.28" y1="75.49" x2="122.14" y2="75.49" fill="none" stroke="#1d1d1b" stroke-linecap="round" stroke-miterlimit="10" stroke-width="1.5"/><line x1="31.28" y1="81.3" x2="122.14" y2="81.3" fill="none" stroke="#1d1d1b" stroke-linecap="round" stroke-miterlimit="10" stroke-width="1.5"/><line x1="31.28" y1="87.11" x2="122.14" y2="87.11" fill="none" stroke="#1d1d1b" stroke-linecap="round" stroke-miterlimit="10" stroke-width="1.5"/><line x1="31.28" y1="92.91" x2="122.14" y2="92.91" fill="none" stroke="#1d1d1b" stroke-linecap="round" stroke-miterlimit="10" stroke-width="1.5"/><line x1="31.28" y1="98.72" x2="122.14" y2="98.72" fill="none" stroke="#1d1d1b" stroke-linecap="round" stroke-miterlimit="10" stroke-width="1.5"/><line x1="31.28" y1="104.53" x2="122.14" y2="104.53" fill="none" stroke="#1d1d1b" stroke-linecap="round" stroke-miterlimit="10" stroke-width="1.5"/></g><path d="M21.22,36.1a55.79,55.79,0,0,1,29.4.33" transform="translate(-3.8 -3.97)" fill="none" stroke="#1d1d1b" stroke-linecap="round" stroke-miterlimit="10" stroke-width="1.5"/><circle cx="40.2" cy="86.98" r="8.09" fill="none" stroke="#1d1d1b" stroke-miterlimit="10" stroke-width="1.5"/><circle cx="56.2" cy="56.6" r="55.45" fill="none" stroke="#1d1d1b" stroke-miterlimit="10" stroke-width="1.5"/><path d="M44.62,7.26A89.28,89.28,0,0,1,63,61.73a89.35,89.35,0,0,1-17,52.56" transform="translate(-3.8 -3.97)" fill="none" stroke="#1d1d1b" stroke-miterlimit="10" stroke-width="1.5"/><path d="M8.85,82.27a13.12,13.12,0,0,0,14.09-.86h0a34.34,34.34,0,0,1-.79-34.25" transform="translate(-3.8 -3.97)" fill="none" stroke="#1d1d1b" stroke-linecap="round" stroke-linejoin="round" stroke-width="1.5"/><path d="M33.69,43.88a3.09,3.09,0,1,1-3.09.32" transform="translate(-3.8 -3.97)" fill="none" stroke="#1d1d1b" stroke-linecap="round" stroke-linejoin="round" stroke-width="1.5"/><path d="M22.17,47.2A21.38,21.38,0,0,1,28,53.92h0a21.2,21.2,0,0,0,21.64-2.45l-.09-.23a21.19,21.19,0,0,0-27.46-4.06" transform="translate(-3.8 -3.97)" fill="none" stroke="#1d1d1b" stroke-linecap="round" stroke-linejoin="round" stroke-width="1.5"/><path d="M26.46,51.52a7.48,7.48,0,0,1-.1-1.26,8.07,8.07,0,0,1,2.52-5.87" transform="translate(-3.8 -3.97)" fill="none" stroke="#1d1d1b" stroke-linecap="round" stroke-linejoin="round" stroke-width="1.5"/><path d="M40.75,45.18a8.11,8.11,0,0,1,0,10.2" transform="translate(-3.8 -3.97)" fill="none" stroke="#1d1d1b" stroke-linecap="round" stroke-linejoin="round" stroke-width="1.5"/><path d="M36.84,44.21a5,5,0,1,1-7.46.09" transform="translate(-3.8 -3.97)" fill="none" stroke="#1d1d1b" stroke-linecap="round" stroke-linejoin="round" stroke-width="1.5"/><line x1="58.09" y1="69.69" x2="110.24" y2="69.69" fill="none" stroke="#1d1d1b" stroke-miterlimit="10" stroke-width="1.5"/><circle cx="82.45" cy="39.44" r="13.09" fill="none" stroke="#1d1d1b" stroke-miterlimit="10" stroke-width="1.5"/><circle cx="86.52" cy="34.51" r="3.09" fill="none" stroke="#1d1d1b" stroke-miterlimit="10" stroke-width="1.5"/><circle cx="76.57" cy="37.62" r="3.09" fill="none" stroke="#1d1d1b" stroke-miterlimit="10" stroke-width="1.5"/><circle cx="85.55" cy="44.46" r="3.09" fill="none" stroke="#1d1d1b" stroke-miterlimit="10" stroke-width="1.5"/><polyline points="85.54 52.16 85.54 69.69 79.36 69.69 79.36 52.16" fill="none" stroke="#1d1d1b" stroke-miterlimit="10" stroke-width="1.5"/></svg>