<svg id="f56f3d1a-973b-4cc8-94a7-48eacf01562e" data-name="Layer 1" xmlns="http://www.w3.org/2000/svg" xmlns:xlink="http://www.w3.org/1999/xlink" width="126.46" height="112.8" viewBox="0 0 126.46 112.8"><defs><clipPath id="f9a25428-b673-4985-86fb-85e23e0ad542" transform="translate(-2.39 -3.97)"><path d="M62.16,5.13A55.17,55.17,0,0,0,46.81,7.3,89.29,89.29,0,0,1,65.2,61.73a89.35,89.35,0,0,1-17,52.53A55.45,55.45,0,1,0,62.16,5.13Z" fill="none"/></clipPath></defs><title>not_conflict_affected_blue</title><circle cx="59.77" cy="55.45" r="55.45" fill="#fff"/><ellipse cx="34.35" cy="57.96" rx="34.35" ry="51.28" fill="#00adef"/><g clip-path="url(#f9a25428-b673-4985-86fb-85e23e0ad542)"><line x1="34.85" y1="69.69" x2="125.71" y2="69.69" fill="none" stroke="#1d1d1b" stroke-linecap="round" stroke-miterlimit="10" stroke-width="1.5"/><line x1="34.85" y1="75.49" x2="125.71" y2="75.49" fill="none" stroke="#1d1d1b" stroke-linecap="round" stroke-miterlimit="10" stroke-width="1.5"/><line x1="34.85" y1="81.3" x2="125.71" y2="81.3" fill="none" stroke="#1d1d1b" stroke-linecap="round" stroke-miterlimit="10" stroke-width="1.5"/><line x1="34.85" y1="87.11" x2="125.71" y2="87.11" fill="none" stroke="#1d1d1b" stroke-linecap="round" stroke-miterlimit="10" stroke-width="1.5"/><line x1="34.85" y1="92.91" x2="125.71" y2="92.91" fill="none" stroke="#1d1d1b" stroke-linecap="round" stroke-miterlimit="10" stroke-width="1.5"/><line x1="34.85" y1="98.72" x2="125.71" y2="98.72" fill="none" stroke="#1d1d1b" stroke-linecap="round" stroke-miterlimit="10" stroke-width="1.5"/><line x1="34.85" y1="104.53" x2="125.71" y2="104.53" fill="none" stroke="#1d1d1b" stroke-linecap="round" stroke-miterlimit="10" stroke-width="1.5"/></g><path d="M23.38,36.1a55.79,55.79,0,0,1,29.4.33" transform="translate(-2.39 -3.97)" fill="none" stroke="#1d1d1b" stroke-linecap="round" stroke-miterlimit="10" stroke-width="1.5"/><circle cx="43.77" cy="86.98" r="8.09" fill="none" stroke="#1d1d1b" stroke-miterlimit="10" stroke-width="1.5"/><circle cx="59.77" cy="56.6" r="55.45" fill="none" stroke="#1d1d1b" stroke-miterlimit="10" stroke-width="1.5"/><path d="M46.78,7.26A89.28,89.28,0,0,1,65.2,61.73a89.28,89.28,0,0,1-17,52.56" transform="translate(-2.39 -3.97)" fill="none" stroke="#1d1d1b" stroke-miterlimit="10" stroke-width="1.5"/><path d="M11,82.27a13.11,13.11,0,0,0,14.08-.86h0a34.34,34.34,0,0,1-.79-34.25" transform="translate(-2.39 -3.97)" fill="none" stroke="#1d1d1b" stroke-linecap="round" stroke-linejoin="round" stroke-width="1.5"/><path d="M35.85,43.88a3.09,3.09,0,1,1-3.09.32" transform="translate(-2.39 -3.97)" fill="none" stroke="#1d1d1b" stroke-linecap="round" stroke-linejoin="round" stroke-width="1.5"/><path d="M24.33,47.2a21.26,21.26,0,0,1,5.86,6.72h0a21.2,21.2,0,0,0,21.64-2.45l-.08-.23A21.19,21.19,0,0,0,24.3,47.17" transform="translate(-2.39 -3.97)" fill="none" stroke="#1d1d1b" stroke-linecap="round" stroke-linejoin="round" stroke-width="1.5"/><path d="M28.62,51.52a7.48,7.48,0,0,1-.1-1.26,8,8,0,0,1,2.53-5.87" transform="translate(-2.39 -3.97)" fill="none" stroke="#1d1d1b" stroke-linecap="round" stroke-linejoin="round" stroke-width="1.5"/><path d="M42.91,45.18a8.11,8.11,0,0,1,0,10.2" transform="translate(-2.39 -3.97)" fill="none" stroke="#1d1d1b" stroke-linecap="round" stroke-linejoin="round" stroke-width="1.5"/><path d="M39,44.21a5,5,0,0,1-3.69,8.38,5,5,0,0,1-3.77-8.29" transform="translate(-2.39 -3.97)" fill="none" stroke="#1d1d1b" stroke-linecap="round" stroke-linejoin="round" stroke-width="1.5"/><line x1="61.66" y1="69.69" x2="113.81" y2="69.69" fill="none" stroke="#1d1d1b" stroke-miterlimit="10" stroke-width="1.5"/><circle cx="86.03" cy="39.44" r="13.09" fill="none" stroke="#1d1d1b" stroke-miterlimit="10" stroke-width="1.5"/><circle cx="90.09" cy="34.51" r="3.09" fill="none" stroke="#1d1d1b" stroke-miterlimit="10" stroke-width="1.5"/><circle cx="80.15" cy="37.62" r="3.09" fill="none" stroke="#1d1d1b" stroke-miterlimit="10" stroke-width="1.5"/><circle cx="89.13" cy="44.46" r="3.09" fill="none" stroke="#1d1d1b" stroke-miterlimit="10" stroke-width="1.5"/><polyline points="89.11 52.16 89.11 69.69 82.94 69.69 82.94 52.16" fill="none" stroke="#1d1d1b" stroke-miterlimit="10" stroke-width="1.5"/></svg>