<svg id="e35f5831-4777-4aea-a4c9-fe7cd0a83aeb" data-name="Layer 1" xmlns="http://www.w3.org/2000/svg" width="23" height="45" viewBox="0 0 23 45"><title>woman_icon</title><circle cx="11.49" cy="5.38" r="5.27" fill="#dadde0"/><path d="M22.71,25.86l-4.65-13A1.8,1.8,0,0,0,16,11.69l-.24,0H7.24l-.21,0a1.82,1.82,0,0,0-2.09,1.17l-4.65,13A1.82,1.82,0,0,0,1.4,28.19,1.87,1.87,0,0,0,2,28.3a1.81,1.81,0,0,0,1.55-.88l-1.4,9.95H4.92v5.25a2.28,2.28,0,0,0,4.56,0V37.37h4v5.25a2.28,2.28,0,1,0,4.56,0V37.37h2.76l-1.42-10A1.83,1.83,0,0,0,21,28.3a1.87,1.87,0,0,0,.61-.11A1.82,1.82,0,0,0,22.71,25.86Z" fill="#dadde0"/></svg>